<?xml version="1.0" encoding="utf-8"?>
<!-- Generator: Adobe Illustrator 23.0.4, SVG Export Plug-In . SVG Version: 6.00 Build 0)  -->
<svg version="1.1" id="Layer_1_1_" xmlns="http://www.w3.org/2000/svg" xmlns:xlink="http://www.w3.org/1999/xlink" x="0px" y="0px"
	 viewBox="0 0 512 512" style="enable-background:new 0 0 512 512;" xml:space="preserve">
<style type="text/css">
	.st0{fill:#0AA06A;}
</style>
<path class="st0" d="M17.6,404.8l21.2,28.3l-22.2,51.7c-1.3,3.1-0.6,6.8,2,9.1c1.5,1.4,3.4,2.1,5.4,2.1c1.3,0,2.6-0.3,3.9-1l160-88
	c2.6-1.4,4.1-4.1,4.1-7s-1.6-5.6-4.1-7l-160-88c-3-1.6-6.7-1.2-9.2,1.1c-2.5,2.3-3.3,5.9-2,9.1l22.2,51.7l-21.2,28.3
	C15.5,398,15.5,402,17.6,404.8L17.6,404.8z M53.8,438.9l75.1-17.7l-88.4,48.6L53.8,438.9z M128.9,378.8l-75.1-17.7l-13.3-30.9
	L128.9,378.8z M51.3,377l97.8,23l-97.8,23L34,400L51.3,377z"/>
<path class="st0" d="M368,16c-67.9,0-123.4,53.2-127.6,120h-21.1l-21.7-21.7l-11.3,11.3l10.3,10.3H164c-46.3,0-84,37.7-84,84
	s37.7,84,84,84h88.7l21.7,21.7l11.3-11.3L275.3,304H428c24.3,0,44,19.7,44,44s-19.7,44-44,44h-72.7l-21.7-21.7l-11.3,11.3l10.3,10.3
	H208v16h124.7l-10.3,10.3l11.3,11.3l21.7-21.7H428c33.1,0,60-26.9,60-60s-26.9-60-60-60H275.3l10.3-10.3l-11.3-11.3L252.7,288H164
	c-37.5,0-68-30.5-68-68s30.5-68,68-68h32.7l-10.3,10.3l11.3,11.3l21.7-21.7h21.1c4.2,66.8,59.7,120,127.6,120
	c70.6,0,128-57.4,128-128S438.6,16,368,16L368,16z M368,256c-59.1,0-107.5-46-111.6-104h24c4.1,44.8,41.8,80,87.6,80
	c48.5,0,88-39.5,88-88s-39.5-88-88-88c-45.8,0-83.5,35.2-87.6,80h-24C260.5,78,308.9,32,368,32c61.8,0,112,50.2,112,112
	S429.8,256,368,256z M349.7,173.7l24-24c3.1-3.1,3.1-8.2,0-11.3l-24-24l-11.3,11.3l10.3,10.3h-52.2c4-35.9,34.5-64,71.5-64
	c39.7,0,72,32.3,72,72s-32.3,72-72,72c-37,0-67.5-28.1-71.5-64h52.2l-10.3,10.3L349.7,173.7z"/>
<path class="st0" d="M416,144c0-26.5-21.5-48-48-48v16c17.6,0,32,14.4,32,32s-14.4,32-32,32v16C394.5,192,416,170.5,416,144z"/>
</svg>
