<?xml version="1.0" encoding="utf-8"?>
<!-- Generator: Adobe Illustrator 23.0.4, SVG Export Plug-In . SVG Version: 6.00 Build 0)  -->
<svg version="1.1" id="outline" xmlns="http://www.w3.org/2000/svg" xmlns:xlink="http://www.w3.org/1999/xlink" x="0px" y="0px"
	 viewBox="0 0 512 512" style="enable-background:new 0 0 512 512;" xml:space="preserve">
<style type="text/css">
	.st0{fill:#0AA06A;}
</style>
<path class="st0" d="M409.9,183.8c3.6-0.9,6.1-4.1,6.1-7.8v-72h32c0,4.4,3.6,8,8,8h48c4.4,0,8-3.6,8-8V40c0-4.4-3.6-8-8-8h-48
	c-4.4,0-8,3.6-8,8h-72c-4.4,0-8,3.6-8,8h-32c0-4.4-3.6-8-8-8h-23.1l14.2-28.4c1.2-2.5,1.1-5.4-0.4-7.8S314.8,0,312,0h-96
	c-2.1,0-4.2,0.8-5.7,2.3l-16,16c-1.5,1.5-2.3,3.5-2.3,5.7v56c0,2.5,1.2,4.9,3.2,6.4L224,108v28h-40c-2.3,0-4.5,1-6,2.7l-2,2.3V96
	c0-4.4-3.6-8-8-8h-28.7l-13.7-13.7c-1.5-1.5-3.5-2.3-5.7-2.3H24c-4.4,0-8,3.6-8,8v40c0,2.1,0.8,4.2,2.3,5.7l8,8
	c1.5,1.5,3.5,2.3,5.7,2.3h8v8c-2.5,0-4.8,1.1-6.3,3.1c-1.5,1.9-2.1,4.5-1.5,6.9l5.5,22.1H8c-4.4,0-8,3.6-8,8v80v72c0,4.4,3.6,8,8,8
	h24.2v40v120c0,4.3,3.5,7.8,7.8,7.8h32c3.9,0,7.3-2.9,7.8-6.8l15.1-113.2h2.3L112.2,505c0.5,3.9,3.8,6.8,7.8,6.8h32
	c4.3,0,7.8-3.5,7.8-7.8V384v-40h8.2c4.4,0,8-3.6,8-8v-52.7l6.8,6.8l-6.4,19.3c-1,2.9-0.2,6,1.9,8.2l13.7,13.7v154.8l-7.2,14.3
	c-1.2,2.5-1.1,5.4,0.4,7.8s4,3.8,6.8,3.8h40c4,0,7.4-3,7.9-7L256,381.9L272.1,505c0.5,4,3.9,7,7.9,7h48c3.2,0,6.2-1.9,7.4-4.9
	s0.6-6.4-1.7-8.7L320,484.7V440c4.7,3.5,10.1,6,16,7.2V504c0,4.4,3.6,8,8,8h128c4.4,0,8-3.6,8-8v-88.8c18.2-3.7,32-19.9,32-39.2v-48
	c0-4.4-3.6-8-8-8h-32h-26.2l-2.7-8H456c4.4,0,8-3.6,8-8v-16c2.5,0,4.8-1.1,6.3-3.1c1.5-1.9,2.1-4.5,1.5-6.9l-7.8-31v-31
	c0-4.4-3.6-8-8-8h-96c-4.4,0-8,3.6-8,8v48v40c0,4.4,3.6,8,8,8h4.9l-2.7,8H344h-24V206.2L409.9,183.8z M464,48h32v48h-32V48z M384,56
	h64v32h-64V56z M368,64v16h-32V64H368z M336,96h31.6l-13.3,40H288v-8c3,0,5.8-1.7,7.2-4.4l5.8-11.6H312c2.5,0,4.8-1.1,6.3-3.1
	c1.1-1.4,1.7-3.2,1.7-4.9h8C332.4,104,336,100.4,336,96z M271.4,268.1L256,278.4l-15.4-10.3L255.1,152h1.9L271.4,268.1z M320,88
	h-3.8l-8-32H320V88z M208,76V27.3L219.3,16h79.7l-8,16H248c-4.4,0-8,3.6-8,8v16h-8c-4.4,0-8,3.6-8,8v24L208,76z M240,104V72h8
	c4.4,0,8-3.6,8-8V48h33.8l12,48H296c-3,0-5.8,1.7-7.2,4.4l-5.8,11.6H280c-4.4,0-8,3.6-8,8v16h-32V104z M32,116.7V88h84.7l13.7,13.7
	c1.5,1.5,3.5,2.3,5.7,2.3h24v55l-16,18v-25c0-4.4-3.6-8-8-8h-24v-16c0-4.4-3.6-8-8-8H48H35.3L32,116.7z M47.8,343.8h96.3v32.3H47.8
	V343.8z M48,328.2v-28.8L59.3,288H88h8v40.2H48z M96,224h16v16H96V224z M104,272h-8v-16h20.7l11.3,11.3V296h-16v-16
	C112,275.6,108.4,272,104,272z M50.2,159.7c3.4-0.9,5.8-4,5.8-7.7v-16h40v16c0,4.4,3.6,8,8,8h24v16h-8c-4.4,0-8,3.6-8,8v24H96v-24
	c0-4.4-3.6-8-8-8H54.2L50.2,159.7z M130.6,192l-2.6,3v-3H130.6z M80,192v80H56h-8v-24c0-4.4-3.6-8-8-8H24c-2.1,0-4.2,0.8-5.7,2.3
	l-2.3,2.3V192H80z M32,328H16v-60.7L27.3,256H32v24c0,3.4,2.2,6.4,5.2,7.5l-2.8,2.8c-1.5,1.5-2.3,3.5-2.3,5.7V328z M65.1,496.2H47.8
	V391.8H79L65.1,496.2z M126.9,496.2L113,391.8h31.2v104.3H126.9z M160,328h-8v0.2h-40V312h24c4.4,0,8-3.6,8-8v-40
	c0-2.1-0.8-4.2-2.3-5.7L128,244.7v-9.4l32,32V328z M287,496l-23.1-177c-0.5-4-3.9-7-7.9-7s-7.4,3-7.9,7L225,496h-20l2.2-4.4
	c0.6-1.1,0.8-2.3,0.8-3.6V328c0-2.1-0.8-4.2-2.3-5.7l-12.5-12.5l6.4-19.3c1-2.9,0.2-6-1.9-8.2L131,215.7l56.6-63.7h51.3l-14.9,119
	c-0.4,3,1,6,3.5,7.6l24,16c1.3,0.9,2.9,1.3,4.4,1.3s3.1-0.4,4.4-1.3l24-16c2.5-1.7,3.9-4.6,3.5-7.6l-14.9-119H360
	c3.4,0,6.5-2.2,7.6-5.5l14.2-42.5H400v65.8l-89.9,22.5c-3.6,0.9-6.1,4.1-6.1,7.8v288c0,2.1,0.8,4.2,2.3,5.7l2.3,2.3H287z M352,496
	v-48h24.9l-0.9,7c-0.4,3,1,6,3.5,7.6l24,16c1.3,0.9,2.9,1.3,4.4,1.3s3.1-0.4,4.4-1.3l24-16c2.5-1.7,3.9-4.6,3.5-7.6l-0.9-7h0.9
	c8.7,0,17.1-2.8,24-8v56H352z M462.6,416c-1.2,3.3-3.1,6.4-5.6,9c-2.6,2.6-5.7,4.5-9,5.6V416H462.6z M422.9,448l0.5,4.1L408,462.4
	l-15.4-10.3l0.5-4.1H422.9z M472,400h-88v-16h110.6C491.3,393.3,482.4,400,472,400z M353.4,400c1.2-3.3,3.1-6.4,5.6-9
	c2.6-2.6,5.7-4.5,9-5.6V400H353.4z M352,336h38.9l-4,32H376c-8.7,0-17.1,2.8-24,8V336z M408.9,336l4,32h-9.9l4-32H408.9z M496,368
	h-16v-32h16V368z M464,368h-34.9l-4-32H464V368z M368,224h80v16h-24c-2.1,0-4.2,0.8-5.7,2.3l-18.8,18.8c-1.1-3-4.1-5.2-7.5-5.2h-24
	V224z M382.5,299.3c-1.5-2.1-3.9-3.3-6.5-3.3h-8v-24h16v8c0,3.2,1.9,6.2,4.9,7.4c1,0.4,2,0.6,3.1,0.6c2.1,0,4.1-0.8,5.7-2.3
	l29.7-29.7h22.4l4.1,16.3c-3.4,0.9-5.8,4-5.8,7.7v16h-16c-2.6,0-5,1.2-6.5,3.3c-1.5,2.1-1.9,4.8-1.1,7.2l4.5,13.5h-49.8l4.5-13.5
	C384.4,304.1,384,301.4,382.5,299.3z M336,336v72c0,4.4,3.6,8,8,8h32h56v16h-88c-13.2,0-24-10.8-24-24v-72H336z"/>
<path class="st0" d="M211.1,168.6c-3-1.2-6.4-0.6-8.7,1.7l-40,40c-3.1,3.1-3.1,8.2,0,11.3l40,40c1.5,1.5,3.6,2.3,5.7,2.3
	c1,0,2.1-0.2,3.1-0.6c3-1.2,4.9-4.2,4.9-7.4v-80C216,172.8,214.1,169.8,211.1,168.6z M200,236.7L179.3,216l20.7-20.7V236.7z"/>
</svg>
