<?xml version="1.0" encoding="utf-8"?>
<!-- Generator: Adobe Illustrator 23.0.4, SVG Export Plug-In . SVG Version: 6.00 Build 0)  -->
<svg version="1.1" id="Icons" xmlns="http://www.w3.org/2000/svg" xmlns:xlink="http://www.w3.org/1999/xlink" x="0px" y="0px"
	 viewBox="0 0 512 512" style="enable-background:new 0 0 512 512;" xml:space="preserve">
<style type="text/css">
	.st0{fill:#262626;}
</style>
<path class="st0" d="M318.5,385.7H201.6c-3.8,0-6.9-3.1-6.9-6.9s3.1-6.9,6.9-6.9h116.9c4.8,0,9.4-1.9,12.9-5.3
	c0.3-0.3,0.6-0.6,0.8-0.9c0.1-0.2,0.3-0.4,0.4-0.6c2.7-3.2,4.2-7.3,4.2-11.5c0-10.1-8.2-18.3-18.3-18.3h-65.3c-2,0-3.8-0.8-5.1-2.3
	c-17.6-19.3-42.6-30.4-68.7-30.4h-84c-3.8,0-6.9-3.1-6.9-6.9s3.1-6.9,6.9-6.9h84c29,0,56.7,11.8,76.9,32.7h62.3
	c17.7,0,32.1,14.4,32.1,32.1c0,7.2-2.4,14.1-6.9,19.8c-0.2,0.3-0.4,0.6-0.6,0.8c-0.7,0.8-1.3,1.5-2,2.2
	C335.1,382.4,327,385.7,318.5,385.7z"/>
<path class="st0" d="M259.8,467.6c-17,0-34-3-50-8.8L92.9,416.4c-3.6-1.3-5.4-5.3-4.1-8.9c1.3-3.6,5.3-5.4,8.9-4.1l116.8,42.4
	c34.7,12.5,73,10.1,105.9-6.6l158.5-81c-17.4-13.9-40.8-17.8-61.8-10.2l-76,27.7c-1,0.5-2.1,0.8-3.2,0.8c-3.8,0-6.9-3-7-6.8
	c0-2,0.8-3.8,2.2-5.2c0.7-0.7,1.5-1.2,2.4-1.5l76.9-28c26.2-9.4,55.5-4.2,76.8,13.8l6.5,5.7c2.9,2.5,3.2,6.9,0.7,9.8
	c-0.6,0.7-1.3,1.2-2.1,1.6l-167.7,85.6C306,462.1,283,467.6,259.8,467.6z"/>
<path class="st0" d="M95.3,436H20.8c-3.8,0-6.9-3.1-6.9-6.9V278.4c0-3.8,3.1-6.9,6.9-6.9h74.5c3.8,0,6.9,3.1,6.9,6.9v150.7
	C102.2,432.9,99.1,436,95.3,436z M27.7,422.2h60.7V285.3H27.7V422.2z"/>
<path class="st0" d="M321.7,291.1c-68.1,0-123.4-55.2-123.4-123.4S253.6,44.4,321.7,44.4s123.4,55.2,123.4,123.4
	C445,235.9,389.8,291.1,321.7,291.1z M321.7,58.2c-60.5,0-109.5,49-109.5,109.5s49,109.5,109.5,109.5c60.5,0,109.5-49,109.5-109.5
	C431.2,107.3,382.2,58.3,321.7,58.2L321.7,58.2z"/>
<path class="st0" d="M321.7,174.7c-20.9-0.7-37.4-18.2-36.7-39.1c0.7-20.9,18.2-37.4,39.1-36.7c20.5,0.6,36.8,17.4,36.8,37.9
	c0,3.8-3.1,6.9-6.9,6.9s-6.9-3.1-6.9-6.9c0.7-14-10.1-25.9-24.1-26.5c-14-0.7-25.9,10.1-26.5,24.1c-0.7,14,10.1,25.9,24.1,26.5
	c0.4,0,0.8,0,1.2,0c3.8,0,6.9,3.1,6.9,6.9S325.6,174.7,321.7,174.7z"/>
<path class="st0" d="M321.7,236.7c-21.3,0.3-38.8-16.7-39.1-37.9c0-3.8,3.1-6.9,6.9-6.9c3.8,0,6.9,3.1,6.9,6.9
	c-0.7,14,10.1,25.9,24,26.6c14,0.7,25.9-10.1,26.6-24c0.7-14-10.1-25.9-24-26.6c-0.4,0-0.8,0-1.3,0c-3.8,0-6.9-3.1-6.9-6.9
	s3.1-6.9,6.9-6.9c20.9-0.7,38.5,15.7,39.2,36.7s-15.7,38.5-36.7,39.2C323.4,236.7,322.6,236.7,321.7,236.7L321.7,236.7z"/>
<path class="st0" d="M321.7,248.3c-3.8,0-6.9-3.1-6.9-6.9V94.1c0-3.8,3.1-6.9,6.9-6.9s6.9,3.1,6.9,6.9v147.3
	C328.6,245.2,325.6,248.3,321.7,248.3z"/>
</svg>
