<?xml version="1.0" encoding="utf-8"?>
<!-- Generator: Adobe Illustrator 23.0.4, SVG Export Plug-In . SVG Version: 6.00 Build 0)  -->
<svg version="1.1" id="Capa_1" xmlns="http://www.w3.org/2000/svg" xmlns:xlink="http://www.w3.org/1999/xlink" x="0px" y="0px"
	 viewBox="0 0 128 128" style="enable-background:new 0 0 128 128;" xml:space="preserve">
<style type="text/css">
	.st0{fill:#FFFFFF;}
</style>
<path class="st0" d="M44.9,97.3h-14V52.2h14V97.3z M46.2,37.9c0-4.5-3.7-8.2-8.2-8.2c-4.5,0-8.2,3.7-8.2,8.2c0,4.5,3.7,8.2,8.2,8.2
	C42.6,46,46.2,42.4,46.2,37.9z M97.1,72.5c0-12.1-2.6-21.1-16.7-21.1c-6.8,0-11.4,3.4-13.2,6.9h0v-6.1H53.6v45.1h13.6V74.9
	c0-5.9,1.5-11.5,8.8-11.5c7.2,0,7.4,6.7,7.4,11.9v22h13.8V72.5z M115.1,103.1V24.9c0-6.6-5.4-12-12-12H24.9c-6.6,0-12,5.4-12,12
	v78.2c0,6.6,5.4,12,12,12h78.2C109.7,115.1,115.1,109.7,115.1,103.1z M105.5,18.3c2.3,0,4.2,1.9,4.2,4.2v82.9c0,2.3-1.9,4.2-4.2,4.2
	H22.5c-2.3,0-4.2-1.9-4.2-4.2V22.5c0-2.3,1.9-4.2,4.2-4.2H105.5z"/>
</svg>
