<?xml version="1.0" encoding="utf-8"?>
<!-- Generator: Adobe Illustrator 23.0.4, SVG Export Plug-In . SVG Version: 6.00 Build 0)  -->
<svg version="1.1" id="Capa_1" xmlns="http://www.w3.org/2000/svg" xmlns:xlink="http://www.w3.org/1999/xlink" x="0px" y="0px"
	 viewBox="0 0 512 512" style="enable-background:new 0 0 512 512;" xml:space="preserve">
<style type="text/css">
	.st0{fill:#262626;}
</style>
<path class="st0" d="M459.7,82.9l-196-81.4c-4.9-2-10.4-2-15.3,0l-196,81.4C44.9,86,40,93.3,40,101.4v98.9
	c0,136.2,82.3,258.7,208.4,310.2c4.8,2,10.3,2,15.1,0C389.7,459,472,336.5,472,200.3v-98.9C472,93.3,467.1,86,459.7,82.9z
	 M450.6,194.4c0,128-75.2,245.9-194.6,298.5c-116.2-51.2-194.6-167-194.6-298.5V99.8L256,19l194.6,80.8V194.4z"/>
<path class="st0" d="M386.2,170.2c-0.3-2.7-1.9-5-4.4-6.1l-114.1-49.5c-2.1-1-4.9-0.5-7,0.5l-116.5,49c-2.5,1.1-4.1,3.5-4.4,6.1
	c0,0.1,0,0.8,0,0.8v131c0,3.2,1.9,6,4.8,7.2l115.6,46.2c0.9,0.4,1.9,0.6,2.9,0.6c1,0,1.9-0.2,2.9-0.6l115.6-46.2
	c2.9-1.2,4.8-4,4.8-7.2V171C386.3,170.9,386.2,170.2,386.2,170.2z M263,120.1l114.6,50.1l-47.6,19.6l-111.1-51.2L263,120.1z
	 M208.1,144.5L320.6,194L263.1,218l-113.4-49.5L208.1,144.5z M146.9,176.3L257.9,223v123.1l-110.9-44.4V176.3z M264.9,347.4
	l0.5-123.4l113.7-47.3v125L264.9,347.4z"/>
</svg>
