<?xml version="1.0" encoding="utf-8"?>
<!-- Generator: Adobe Illustrator 23.0.4, SVG Export Plug-In . SVG Version: 6.00 Build 0)  -->
<svg version="1.1" id="Layer_1_1_" xmlns="http://www.w3.org/2000/svg" xmlns:xlink="http://www.w3.org/1999/xlink" x="0px" y="0px"
	 viewBox="0 0 512 512" style="enable-background:new 0 0 512 512;" xml:space="preserve">
<style type="text/css">
	.st0{fill:#0AA06A;}
</style>
<g>
	<path class="st0" d="M193.1,355.2c0,6.7,0,13.5,0,20.2c-7.1,0-14.1,0-21.2,0c0-5.8,0-11.5,0-17.3c0-2-1.1-3.5-2.9-3.8
		c-1.4-0.2-2.9,0-4.4,0c0,7.1,0,14.1,0,21.1c-21.2,0-42.4,0-63.6,0c0-7,0-14.1,0-21.2c-1.1,0-2.1,0-3.1,0c-2.7,0-4.2,1.6-4.2,4.2
		c0,5.6,0,11.3,0,16.9c-7,0-14.1,0-21.2,0c0-6.7,0-13.5,0-20.2c0.2-0.8,0.3-1.5,0.5-2.3c2.1-11.1,12.6-19.8,23.8-19.8
		c1.4,0,2.7,0,4.2,0c0-4.8,0-9.4,0-14.2c4.8,0,9.4,0,14.1,0c0-5.3,0-10.4,0-15.5c0-0.7-0.2-1.6-0.5-2.2c-4.5-9.1-9-18.2-13.5-27.3
		c-3.1-6.3-6.2-12.6-9.3-19c27.3,0,54.6,0,81.9,0c-0.2,0.4-0.3,0.7-0.5,1.1c-7.4,15-14.9,30-22.3,45.1c-0.3,0.7-0.5,1.6-0.6,2.3
		c0,4.7,0,9.5,0,14.2c0,0.4,0,0.8,0,1.3c4.8,0,9.4,0,14.1,0c0,4.7,0,9.4,0,14c2.4,0.1,4.7,0.1,6.9,0.3c10.4,1.3,18.5,8.7,20.9,18.8
		C192.7,353.1,192.9,354.2,193.1,355.2z M103.3,262c0.2,0.4,0.2,0.6,0.3,0.8c5.6,11.4,11.3,22.8,16.9,34.2c0.3,0.7,0.8,0.7,1.4,0.7
		c7.3,0,14.5,0,21.8,0c0.9,0,1.2-0.3,1.6-1c5.5-11.3,11.1-22.5,16.7-33.8c0.1-0.3,0.2-0.6,0.4-1C142.6,262,123,262,103.3,262z
		 M108.2,326c0,14.2,0,28.2,0,42.3c2.4,0,4.7,0,7,0c0-7.1,0-14,0-21c11.8,0,23.5,0,35.3,0c0,7.1,0,14.1,0,21c2.4,0,4.7,0,6.9,0
		c0-14.1,0-28.2,0-42.3C141,326,124.6,326,108.2,326z M143.3,318.9c0-4.7,0-9.4,0-14c-7.1,0-14,0-21,0c0,4.7,0,9.3,0,14
		C129.3,318.9,136.3,318.9,143.3,318.9z M143.4,354.3c-7.1,0-14.1,0-21.1,0c0,4.7,0,9.4,0,14c7.1,0,14.1,0,21.1,0
		C143.4,363.6,143.4,359,143.4,354.3z M101,340c-2,0.1-3.9,0.1-5.8,0.3c-7.3,0.7-13.7,6.5-15.1,13.7c-0.4,2.1-0.4,4.2-0.5,6.3
		c-0.1,2.7,0,5.3,0,8c2.4,0,4.7,0,7.1,0c0-3.5,0-6.9,0-10.3c0-6,4.8-10.8,10.7-10.8c1.2,0,2.3,0,3.6,0C101,344.8,101,342.5,101,340z
		 M164.6,347.2c1.4,0,2.7,0,4,0c5.6,0.1,10.3,4.7,10.4,10.4c0,3.2,0,6.4,0,9.5c0,0.4,0,0.8,0,1.2c2.4,0,4.7,0,7.1,0
		c0-3.5,0-6.9,0-10.3c0-3.7-1-7.1-3.1-10.2c-4.5-6.5-11.4-8.4-18.3-7.6C164.6,342.5,164.6,344.7,164.6,347.2z"/>
	<path class="st0" d="M122.1,340.1c-2.3,0-4.6,0-6.9,0c0-2.3,0-4.6,0-7c2.3,0,4.5,0,6.9,0C122.1,335.4,122.1,337.7,122.1,340.1z"/>
	<path class="st0" d="M136.3,340.1c-2.4,0-4.6,0-6.9,0c0-2.3,0-4.6,0-7c2.3,0,4.5,0,6.9,0C136.3,335.4,136.3,337.7,136.3,340.1z"/>
	<path class="st0" d="M143.4,340c0-2.3,0-4.6,0-6.9c2.3,0,4.6,0,7,0c0,2.3,0,4.5,0,6.9C148.1,340,145.9,340,143.4,340z"/>
</g>
<g>
	<path class="st0" d="M267.5,222.3c0,6.7,0,13.5,0,20.2c-7.1,0-14.1,0-21.2,0c0-5.8,0-11.5,0-17.3c0-2-1.1-3.5-2.9-3.8
		c-1.4-0.2-2.9,0-4.4,0c0,7.1,0,14.1,0,21.1c-21.2,0-42.4,0-63.6,0c0-7,0-14.1,0-21.2c-1.1,0-2.1,0-3.1,0c-2.7,0-4.2,1.6-4.2,4.2
		c0,5.6,0,11.3,0,16.9c-7,0-14.1,0-21.2,0c0-6.7,0-13.5,0-20.2c0.2-0.8,0.3-1.5,0.5-2.3c2.1-11.1,12.6-19.8,23.8-19.8
		c1.4,0,2.7,0,4.2,0c0-4.8,0-9.4,0-14.2c4.8,0,9.4,0,14.1,0c0-5.3,0-10.4,0-15.5c0-0.7-0.2-1.6-0.5-2.2c-4.5-9.1-9-18.2-13.5-27.3
		c-3.1-6.3-6.2-12.6-9.3-19c27.3,0,54.6,0,81.9,0c-0.2,0.4-0.3,0.7-0.5,1.1c-7.4,15-14.9,30-22.3,45.1c-0.3,0.7-0.5,1.6-0.6,2.3
		c0,4.7,0,9.5,0,14.2c0,0.4,0,0.8,0,1.3c4.8,0,9.4,0,14.1,0c0,4.7,0,9.4,0,14c2.4,0.1,4.7,0.1,6.9,0.3c10.4,1.3,18.5,8.7,20.9,18.8
		C267.1,220.3,267.3,221.3,267.5,222.3z M177.7,129.1c0.2,0.4,0.2,0.6,0.3,0.8c5.6,11.4,11.3,22.8,16.9,34.2
		c0.3,0.7,0.8,0.7,1.4,0.7c7.3,0,14.5,0,21.8,0c0.9,0,1.2-0.3,1.6-1c5.5-11.3,11.1-22.5,16.7-33.8c0.1-0.3,0.2-0.6,0.4-1
		C217,129.1,197.4,129.1,177.7,129.1z M182.6,193.2c0,14.2,0,28.2,0,42.3c2.4,0,4.7,0,7,0c0-7.1,0-14,0-21c11.8,0,23.5,0,35.3,0
		c0,7.1,0,14.1,0,21c2.4,0,4.7,0,6.9,0c0-14.1,0-28.2,0-42.3C215.4,193.2,199,193.2,182.6,193.2z M217.7,186c0-4.7,0-9.4,0-14
		c-7.1,0-14,0-21,0c0,4.7,0,9.3,0,14C203.7,186,210.7,186,217.7,186z M217.8,221.5c-7.1,0-14.1,0-21.1,0c0,4.7,0,9.4,0,14
		c7.1,0,14.1,0,21.1,0C217.8,230.7,217.8,226.1,217.8,221.5z M175.4,207.2c-2,0.1-3.9,0.1-5.8,0.3c-7.3,0.7-13.7,6.5-15.1,13.7
		c-0.4,2.1-0.4,4.2-0.5,6.3c-0.1,2.7,0,5.3,0,8c2.4,0,4.7,0,7.1,0c0-3.5,0-6.9,0-10.3c0-6,4.8-10.8,10.7-10.8c1.2,0,2.3,0,3.6,0
		C175.4,211.9,175.4,209.7,175.4,207.2z M239,214.3c1.4,0,2.7,0,4,0c5.6,0.1,10.3,4.7,10.4,10.4c0,3.2,0,6.4,0,9.5
		c0,0.4,0,0.8,0,1.2c2.4,0,4.7,0,7.1,0c0-3.5,0-6.9,0-10.3c0-3.7-1-7.1-3.1-10.2c-4.5-6.5-11.4-8.4-18.3-7.6
		C239,209.7,239,211.9,239,214.3z"/>
	<path class="st0" d="M196.5,207.2c-2.3,0-4.6,0-6.9,0c0-2.3,0-4.6,0-7c2.3,0,4.5,0,6.9,0C196.5,202.5,196.5,204.8,196.5,207.2z"/>
	<path class="st0" d="M210.7,207.2c-2.4,0-4.6,0-6.9,0c0-2.3,0-4.6,0-7c2.3,0,4.5,0,6.9,0C210.7,202.6,210.7,204.8,210.7,207.2z"/>
	<path class="st0" d="M217.8,207.2c0-2.3,0-4.6,0-6.9c2.3,0,4.6,0,7,0c0,2.3,0,4.5,0,6.9C222.5,207.2,220.3,207.2,217.8,207.2z"/>
</g>
<path class="st0" d="M85,504.8c-2.4,0-4.9-0.7-7.2-2.1c-1.6-1-3.3-2-4.7-2.4c-14.3-4.6-22.5-15.3-29.8-24.8
	c-1.6-2.1-3.2-4.2-4.9-6.2c-2.5-3.1-2.7-6.8-2.9-8.6c-0.2-3.2-0.3-6.4-0.4-9.5c-0.2-5.8-0.5-11.8-1.2-17.5
	c-1.6-12-3.7-23.7-6.3-34.6c-2.2-9.4-1.1-17.5,3.4-25.5c4.6-8.1,9-16.7,13.2-24.9c2.2-4.3,4.5-8.8,6.8-13.3c0.2-0.5,0.3-0.7,0.3-0.7
	c0,0,0-0.1-0.1-0.4c-1.1-2.8-2.1-5.7-3.1-8.4c-0.8-2.2-1.5-4.4-2.4-6.5c-1.9-5-1.5-10,1.2-14.8c4.7-8.3,9.6-16.9,14.1-25.5
	c0.4-0.7,0.6-1.8,0.5-2.6c-0.5-5.3-1.3-10.9-2.6-17.8c-0.9-4.6-0.3-11.1,7.2-15.6c2.8-1.7,5.6-3.5,8.4-5.3c1.7-1.1,3.4-2.2,5.1-3.3
	c-2.4-10.2-4.5-20.3-6.5-29.8c-0.6-2.9-0.4-6,0.5-8.7c1.2-3.6,2.4-7.2,3.7-10.9c5-14.9,10.2-30.2,15.8-45.3
	c1.9-5.2,5.4-9.3,8.4-12.9l0.1-0.1c0.5-0.6,0.9-1.1,1.4-1.7c1.9-2.4,2.6-4.5,2.5-7.4C105,108,105,95,109.2,82.2
	c1.1-3.4,2.6-6.3,4.5-8.5c3.2-3.8,6.5-7.6,9.8-11.3c4-4.6,8.1-9.3,12-14c4.4-5.3,9.2-8.2,15.1-9.1c0.8-0.1,1.7-0.3,2.6-0.6
	c-0.8-3.8-1.5-7.4-2.1-10.7l0-0.1c-0.3-1.4-1.3-5.7,2-9.2c3-3.2,6.9-7.3,11.2-11.3c1.4-1.3,6.7-5.2,14.3,1.6c3,2.6,6,5.3,8.9,7.9
	l0.1,0.1c5.7,5.1,11.7,10.4,17.6,15.4c2.8,2.3,6.7,4,9.9,5.2c6.3,2.5,13,5,19.7,6.6c3.2,0.7,7.3,0.4,11.3,0l0.7-0.1
	c14.1-1.2,17.4,0.7,23.5,13.8c0.4,0.9,0.8,1.7,1.2,2.6c1.7,3.6,3.4,7.2,4.9,11.2c1.6,4.2,0.4,8.9-1.2,11.9c-1.4,2.7-3.4,5.3-6,7.7
	c0,0.1,0.1,0.2,0.1,0.3c3.1,6.8,6,14.2,9.1,22.6c0,0,0,0,0.1,0c7.8,1.2,12.8,4.2,11.5,15.4c-0.1,0.9-0.2,1.7-0.3,2.6
	c0.2-0.5,0.4-0.9,0.6-1.4l0-0.1c3-7.4,6-9.3,14.3-9.3c0.1,0,0.1,0,0.2,0c0.6,0,1.2,0,1.9,0l0.2,0c0.6,0,1.4,0,2.2,0
	c0.1-0.8,0.2-1.5,0.2-1.9c0.5-5.3,0-11.2-0.5-16.9l-0.1-0.9c-0.6-6.8,2.3-11.7,8.7-14.6c10-4.5,20-9.4,30.1-14.4
	c3.3-1.6,7.8-3.3,13.4-1.3c3.9,1.4,8.1,2.8,12.3,3.7c0.6,0.1,1.5,0,1.8-0.1c3.1-1.4,6.3-3.3,9.5-5.2l1.8-1.1
	c5.2-3.1,10.8-2.3,15.1,2.2l0.1,0.1c3.8,4,6.9,7.2,6.8,12.2c-0.1,4.9-3,7.9-7.1,12c-0.2,0.2-0.4,0.4-0.5,0.5l-0.1,0.1
	c-0.7,0.7-1.6,1.7-2.7,2.6c-4,3.1-5.4,6.1-5,10.9c0.4,5.5-2.6,10-5,13.6c-0.3,0.5-0.6,1-0.9,1.4l0,0c1.2,1.5,2.5,2.9,3.8,4.3
	c0.1,0.1,0.3,0.3,0.4,0.4c0.9-1.2,1.7-2.4,2.5-3.5c3.4-5.1,8.9-6.9,14.4-4.7c0.4,0.1,1,0.3,1.6,0.6c4.5,2.2,6.4,1.4,8.7-1.3
	c1.9-2.2,5.4-4.6,9.5-4.7c5.1-0.2,10.2-0.1,15.2-0.1l3.1,0c2,0,4,0.5,5.7,1.4l2.1,1.2c9.5,5.1,19.3,10.4,27.5,18.8
	c3.4,3.5,3.9,8.4,3.9,9.8c0.1,3.9,0.1,7.7,0.1,11.4c0,1.4,0,2.9,0,4.3c0,1.5,0,2.9,0,4.4c0,3.2,0,6.5,0.1,9.6
	c0.2,5.4-1.8,10-5.7,13.3c-5.5,7.1-13.2,10.4-21.9,9.1c0,0-0.1,0-0.1,0c3.8,3.5,6.8,6.2,9.7,8.6c4.2,3.4,6.2,7.9,5.9,13.3
	c-0.2,2.7-0.2,5.6-0.3,8.3c-0.2,5.5-0.4,11.1-1,16.7c-1.4,12.8,0.3,25.7,2,35.4c1.4,8.3,3.1,16.7,4.7,24.9l0,0.1
	c1.2,6,2.5,12.3,3.6,18.5c0.6,3.3-0.1,6.2-0.7,8.3l0,0.1c-0.1,0.4-0.2,0.8-0.3,1.2c-0.4,1.8-1.2,3.1-1.6,3.9
	c-3.8,9.6-10.9,14.8-20.8,15.2c-0.1,0-0.1,0.1-0.1,0.1c-4.8,5.7-11,9.1-18.6,10.2c-8.6,1.2-16.5,2.5-24.2,3.7
	c-5.3,0.9-8.4-1.1-10.1-2.9c-2.5-2.7-3.2-6.2-2.2-10.5c0.2-0.9,0.4-1.8,0.6-2.7c0.4-1.9,0.8-3.7,1.3-5.6c-3.4-1.9-6.6-4-9.8-6
	c-2.8-1.7-5.6-3.5-8.3-5.1c-6.1-3.5-8.3-9.6-5.8-16.2c0.6-1.6,1.1-3.2,1.7-5l0.1-0.2c0.5-1.5,1-3.1,1.6-4.7
	c-0.4-0.4-0.7-0.8-0.9-1.2l-0.2-0.2c-0.5-0.6-0.9-1.2-1.3-1.7l-0.1-0.1c-4.7-5.9-6.1-10.2-0.6-17.1c0.3-0.3,0.5-0.7,0.8-1
	c-5.1-10.7-5.7-21.5-1.7-32.3c0.2-0.6,0.2-0.8,0.2-0.8l0,0c0,0-0.2-0.6-1.7-1.9c-6.5-5.9-13-12.1-19.2-18l-0.1-0.1
	c-3.8-3.6-7.7-7.4-11.5-11c-1.5-1.4-5.8-5.4-5.5-12.2c-1.8,3.6-4.2,7.3-8.5,10.1c-0.1,0.2-0.1,0.3-0.2,0.5c-0.6,1.7-0.8,2.9-0.8,3.6
	c-0.5,10.3-5.8,17.6-15.9,21.7c-4.7,2-9.3,4.7-13.6,7.4c-0.2,0.1-0.7,0.7-1.1,1.5c-0.6,1.3-1.1,2.9-1.6,4.6s-1.1,3.6-1.9,5.5
	c-0.2,0.5-0.2,0.8-0.2,0.8c0,0,0.1,0.2,0.4,0.6c2.8,4,6,8.6,8.6,13.7c3.4,6.6,6.3,13.5,9,19.9c1.3,3,2.3,6,3.4,8.9l0.1,0.1
	c0.8,2.2,1.6,4.5,2.5,6.6c2.1,5.2,1.5,10.3-1.7,14.8c-1.3,1.7-2.5,3.6-3.7,5.5c-1.8,2.7-3.6,5.4-5.6,8c-0.9,1.1-1.4,2.3-1.4,5.2
	c0,1.2,0,2.3,0.1,3.1c0.3,9.2-2.5,11.9-10.5,14.9c-0.8,0.3-1.7,0.6-2.7,1c-0.2,0.1-0.4,0.2-0.6,0.3c-1,0.5-2.4,1.2-4.2,1.5
	c-3,0.6-5.2,2-6.6,7c-0.7,2.5-1.7,5-3,7.5c-2.8,5.3-3.5,9.6-2.1,14c1.7,5.5,0.1,11-4.4,15.2c-2.8,2.6-5.5,5.3-8.1,8.1
	c-3.6,4-8.4,5.6-13.9,4.6c-9.5-1.7-20.4-4.3-28.9-13.2c-1.3-1.3-1.6-1.6-4.4-0.2c-4.8,2.4-6.9,4-8.4,6.4c-2.9,4.6-6.4,9.3-10.6,14.5
	c-2.2,2.7-6.5,5.9-11.5,6c-15.9,0.5-33.1,2.9-52.7,7.2c-3.3,6.4-7,13.8-9.9,21.2c-2.9,7.3-8.3,11.6-15.7,12.6
	c-2.9,0.4-4.9,1.7-7.1,4.8c-2.2,3.1-4.6,5.9-6.9,8.6c-1.4,1.6-2.7,3.3-4,4.8C91.7,503.8,87.7,504.8,85,504.8z M160.8,25.1
	c0,0.2,0.1,0.4,0.1,0.5c0,0.2,0.1,0.3,0.1,0.5c0.8,4.1,1.7,8.5,2.6,13.3c0.1,0.6,0.3,1.4,0.4,2.1l0.6,4.2l-4.1,1.3
	c-0.6,0.2-1.4,0.4-1.8,0.5c-0.5,0.1-1.1,0.3-1.6,0.4c-1.6,0.5-3.3,0.9-5,1.2c-3.4,0.5-6.1,2.2-8.9,5.6c-4,4.8-8.1,9.5-12.2,14.1
	c-3.2,3.7-6.5,7.5-9.7,11.2c-1,1.2-1.9,3-2.7,5.1c-3.7,11.3-3.7,23.1-3.2,32.1c0.3,5.4-1.2,10-4.7,14.3c-0.5,0.6-1,1.2-1.4,1.7
	l-0.1,0.1c-2.8,3.3-5.4,6.4-6.7,10c-5.5,14.9-10.7,30.2-15.7,45c-1.2,3.6-2.4,7.2-3.7,10.9c-0.3,1-0.4,2.3-0.2,3.4
	c2.1,10,4.4,20.8,6.9,31.6c0.8,3.5-0.1,5.8-3.1,7.6c-2.3,1.4-4.6,2.9-6.8,4.3c-2.9,1.9-5.8,3.8-8.8,5.5c-2.1,1.3-3,2.3-2.5,5.1
	c1.4,7.2,2.2,13.1,2.8,18.7c0.3,2.7-0.3,5.8-1.6,8.2c-4.6,8.8-9.5,17.4-14.3,25.8c-1.3,2.2-1.4,4.1-0.6,6.2c0.9,2.3,1.7,4.6,2.5,6.9
	c0.9,2.6,1.9,5.4,2.9,8c1.3,3.3,1.1,6.2-0.6,9.5c-2.3,4.4-4.6,8.8-6.8,13.2c-4.3,8.4-8.7,17-13.4,25.3c-3.3,5.9-4,11.3-2.4,18.2
	c2.7,11.2,4.9,23.2,6.5,35.5c0.8,6.1,1.1,12.4,1.3,18.4c0.1,3,0.2,6.2,0.4,9.2c0,0.7,0.1,2.3,0.6,2.8c1.7,2.1,3.4,4.3,5.1,6.5
	c7,9.1,13.6,17.7,24.9,21.3c2.5,0.8,4.8,2.1,6.9,3.4c0.7,0.4,1.4,0.7,1.9,0.7c0.8,0,1.6-0.6,2.5-1.7c1.3-1.7,2.8-3.4,4.1-5
	c2.2-2.6,4.5-5.3,6.4-8.1c3.8-5.3,8.2-8.1,14-8.9c3.8-0.5,6.2-2.4,7.7-6.3c3.1-8,7-15.8,10.4-22.5c0.9-1.9,3.3-4.1,5.9-4.7
	c20.4-4.6,38.5-7.1,55.2-7.6c1.2,0,3-1.1,4-2.4c4-4.8,7.2-9.2,9.9-13.4c2.9-4.6,6.9-7.3,12.4-10c4.1-2,10.1-4,16.1,2.3
	c6.4,6.7,14.7,8.7,23.4,10.3c2.1,0.4,3.4,0,4.7-1.5c2.8-3,5.7-5.9,8.7-8.7c2.2-2,2.1-3.5,1.7-4.8c-2.2-7-1.3-14.1,2.8-21.8
	c1-1.8,1.7-3.7,2.2-5.4c2.2-8,6.8-12.6,14.2-14.1c0.5-0.1,1.1-0.4,1.8-0.7c0.5-0.2,0.9-0.5,1.3-0.6c1-0.4,1.9-0.7,2.7-1
	c2.3-0.9,3.6-1.5,3.9-1.8c0-0.1,0.3-0.8,0.2-3.5c0-1-0.1-2.1-0.1-3.4c0-4.7,1.1-8.2,3.4-11.3c1.8-2.4,3.5-5,5.2-7.4
	c1.3-2,2.6-3.9,4-5.8c1.2-1.7,1.4-3.2,0.6-5.2c-0.9-2.3-1.8-4.6-2.6-6.9l-0.1-0.2c-1-2.8-2-5.6-3.2-8.4c-2.6-6.3-5.5-12.9-8.7-19.2
	c-2.3-4.5-5.3-8.8-7.9-12.5c-2.4-3.5-2.8-6.9-1.2-10.9c0.6-1.5,1.1-3.1,1.5-4.6c0.6-1.9,1.2-3.9,2-5.8c1.1-2.4,2.9-4.6,4.9-5.9
	c4.7-2.9,9.7-5.9,15.1-8.1c6.4-2.7,9.4-6.6,9.7-12.9c0.1-2,0.6-4.2,1.5-6.6c0.6-1.7,1.3-3,2-3.8l0.6-0.7l0.9-0.5
	c3.2-1.8,4.7-4.6,6.3-7.9c0.2-0.4,0.4-0.9,0.6-1.3l0.1-0.2c1.1-2.3,2.2-4.7,3.7-6.8l0.3-0.4c1.3-1.5,3.5-2.3,5.2-2.5
	c1.2-0.2,2.4,0.1,3.8,0.5c0.5,0.1,1,0.3,1.4,0.3c0.4,0.1,0.7,0.2,1,0.3l3.4,1.1l0,3.6c0,0.3,0,0.7-0.1,1.1c-0.1,1.1-0.2,2.2-0.3,3.3
	c-0.2,2-0.3,4-0.8,6c-0.5,2.3,0,3.8,2.2,5.8c3.9,3.7,7.8,7.4,11.6,11.1l0.1,0.1c6.2,6,12.6,12.1,19,17.9c4.8,4.3,6,8.5,4.2,13.6
	c-3.1,8.6-2.5,17.3,2,25.9c1.4,2.6,1.1,5.2-0.9,7.9c-0.7,0.9-1.3,1.7-1.8,2.3c-0.9,1.1-1.2,1.7-1.3,1.9c0.2,0.4,0.7,1.2,1.9,2.7
	l0.1,0.1c0.4,0.5,0.9,1.1,1.4,1.8l0.2,0.2c0.3,0.4,0.6,0.7,0.8,1c2.6,2.5,3.1,5.5,1.7,9.2c-0.6,1.6-1.1,3.3-1.7,4.9l-4.8-1.4
	l4.7,1.6c-0.6,1.9-1.2,3.6-1.9,5.4c-0.8,2-0.5,2.9,1.4,4c2.9,1.7,5.8,3.5,8.6,5.2c3.4,2.1,6.8,4.3,10.3,6.2
	c4.2,2.3,5.5,5.5,4.1,10.1c-0.6,1.9-1,3.9-1.4,5.8l0,0.1c-0.2,1-0.4,2-0.7,2.9c-0.1,0.6-0.2,1.1-0.2,1.3c0.2,0,0.6,0,1.1-0.1
	c7.7-1.3,15.7-2.5,24.4-3.7c5.2-0.7,9.1-2.9,12.4-6.8c1.5-1.8,4.3-3.6,6.8-3.6c6.2-0.1,10.2-3,12.5-9.2l0.2-0.4l0.2-0.4
	c0.1-0.2,0.2-0.3,0.3-0.5c0.1-0.2,0.3-0.4,0.3-0.5c0.1-0.5,0.2-1.1,0.4-1.7l0-0.1c0.4-1.5,0.7-3,0.5-4.1c-1.1-6.1-2.4-12.3-3.6-18.3
	l0-0.1c-1.7-8.2-3.4-16.8-4.8-25.2c-1.7-10.4-3.6-24.1-2-38.1c0.6-5.3,0.8-10.7,0.9-15.9c0.1-2.8,0.2-5.7,0.4-8.6
	c0.1-2.1-0.5-3.6-2.2-4.9c-3.3-2.7-6.8-5.7-11.1-9.8c-0.5-0.5-2.3-2.3-2.6-4.4l0-0.2c-0.5-4,0.2-6.9,1.9-8.9c1.8-2,4.5-3,8.5-3
	l0.7,0l0.5,0.1c5.5,0.9,9.8-1,13.1-5.6l0,0c0.3-0.4,0.7-0.8,1.1-1.1c1.6-1.3,2.3-2.9,2.2-5.4c-0.1-3.4-0.1-6.8-0.1-10.1
	c0-1.5,0-2.9,0-4.3c0-1.5,0-2.9,0-4.4c0-3.6,0-7.3-0.1-11c0-1.2-0.5-2.5-1.1-3.1c-7.2-7.3-16.3-12.2-25.1-17l-2.2-1.2
	c-0.2-0.1-0.6-0.2-1-0.2l-3.1,0c-4.9,0-9.9-0.1-14.9,0.1c-0.7,0-1.8,0.7-2.2,1.2c-5.5,6.5-12.5,7.8-20.7,3.8l0,0l-0.4-0.1l-0.3-0.1
	c-0.9-0.4-1.5-0.5-2.5,0.9c-1.1,1.6-2.2,3.2-3.4,4.8c-1,1.4-2,2.7-2.9,4.1l-3.7,5.4l-4.3-5c-1.5-1.7-3-3.4-4.4-5.1
	c-1.4-1.6-2.8-3.2-4.1-4.7c-1.2-1.4-2-2.4-2.5-3.2l-1.4-2.2l1.1-2.4c0.4-0.8,1-1.8,1.9-3.2l0.3-0.5c0.3-0.5,0.7-1.1,1-1.6
	c1.6-2.5,3.5-5.3,3.3-7.4c-0.6-8.1,2.3-14.3,8.9-19.5c0.6-0.4,1.1-1,1.6-1.6l0.1-0.1c0.2-0.3,0.5-0.5,0.7-0.8
	c2.3-2.3,4.2-4.2,4.2-5.1c0-0.9-1.8-2.7-4-5.1l-0.1-0.1c-1.1-1.1-1.6-1.1-2.7-0.5l-1.8,1.1c-3.6,2.1-6.9,4.1-10.6,5.8
	c-2.3,1-5.3,1.3-7.9,0.7c-4.8-1-9.4-2.5-13.6-4c-1.8-0.6-3.2-0.4-5.6,0.8c-10.2,5.1-20.3,10-30.5,14.6c-2.7,1.2-3,2.2-2.8,4.6
	l0.1,0.9c0.5,6.2,1.1,12.5,0.5,18.7c-0.5,5.4-0.9,7.3-2.2,8.8l-0.4,0.5l-0.6,0.4c-1.8,1.2-4,1.3-9.2,1.3l-0.2,0c-0.8,0-1.4,0-2,0
	c-2.7,0-3.5,0.2-3.8,0.3c-0.1,0.1-0.5,0.6-1.4,2.9l0,0.1c-0.3,0.7-0.6,1.4-1,2.3c-0.5,1.2-0.9,2.1-1.3,3c-0.7,1.6-1.1,2.6-1.5,3.4
	l-1.2,2l-2.3,0.3c-0.9,0.1-2.1,0.1-3.9,0.1l-0.4,0c-0.9,0-2,0-3.2,0l-0.1,0l-0.3,0c-0.1,0-0.2,0-0.3,0l-5.5,0l0.5-5.5
	c0.2-1.6,0.3-3.2,0.4-4.8c0.2-2.3,0.4-4.7,0.6-7.1c0.3-2.3,0.2-3.2,0.1-3.6c-0.3-0.2-1.1-0.5-3.2-0.8c-4.1-0.6-6.6-2.6-8-6.4
	c-3-8.2-5.9-15.4-8.9-22c-2.1-4.7-1.5-8.2,1.9-11.4c1.8-1.7,3.2-3.5,4.2-5.3c0.7-1.3,0.9-3,0.6-3.8c-1.3-3.5-2.9-7-4.5-10.3
	c-0.4-0.9-0.8-1.8-1.3-2.6c-1.7-3.7-3.4-7.1-4.8-7.9c-1.2-0.7-4.1-0.6-8.8-0.2l-0.7,0.1c-4.8,0.4-9.8,0.9-14.5-0.2
	c-7.4-1.7-14.5-4.4-21.1-7c-3.8-1.5-8.7-3.6-12.6-6.8c-6.1-5-12.1-10.4-17.9-15.6l-0.1-0.1c-2.9-2.6-5.8-5.2-8.8-7.8
	c-0.7-0.6-1.2-0.9-1.6-1.1C166.8,18.7,163.4,22.2,160.8,25.1z M335.3,219.8L335.3,219.8L335.3,219.8z M479.4,189.6
	C479.4,189.6,479.4,189.6,479.4,189.6C479.4,189.6,479.4,189.6,479.4,189.6z M480.3,188.6l-0.1,0.1c0,0.1-0.1,0.1-0.1,0.2
	C480.1,188.9,480.2,188.8,480.3,188.6z M278.7,114.5C278.7,114.5,278.7,114.5,278.7,114.5L278.7,114.5z M278,113.9L278,113.9
	L278,113.9z"/>
</svg>
