<?xml version="1.0" encoding="utf-8"?>
<!-- Generator: Adobe Illustrator 23.0.4, SVG Export Plug-In . SVG Version: 6.00 Build 0)  -->
<svg version="1.1" id="Capa_1" xmlns="http://www.w3.org/2000/svg" xmlns:xlink="http://www.w3.org/1999/xlink" x="0px" y="0px"
	 viewBox="0 0 512 512" style="enable-background:new 0 0 512 512;" xml:space="preserve">
<style type="text/css">
	.st0{fill:#0AA06A;}
</style>
<g>
	<g>
		<path class="st0" d="M485.4,216c-17.1-17.1-39.9-26.6-64.2-26.6c-21.3,0-41.5,7.3-57.8,20.8c-10-8.3-21.3-14-33.2-17.4V60.1h-60.1
			V30h-60.1V0h-90.1v30h-60v99.8H0v226.7l80.1,94.8V512h220.2v-63.8l10.9-34.3l52.4,52.4l121.9-121.9c17.1-17.1,26.6-39.9,26.6-64.2
			C512,255.9,502.6,233.1,485.4,216z M270.2,90.1h30v99.6c-10.3,0.6-20.4,3-30,7V90.1z M270.2,443.5V482H110.1v-41.6L30,345.6V159.8
			h30V280h30V60h30.1v152.4h30V30h30v182.4h30V60h30v157.4c-34,35.5-33.5,92,1.4,126.9l45.6,45.6L270.2,443.5z M464.2,323.1
			L363.5,423.8L262.8,323.1c-23.7-23.7-23.7-62.2,0-85.9c11.8-11.8,27.4-17.8,42.9-17.8s31.1,5.9,42.9,17.8l14.8,14.8l14.8-14.8
			c23.7-23.7,62.2-23.7,85.9,0c11.5,11.5,17.8,26.7,17.8,42.9C482,296.4,475.7,311.6,464.2,323.1z"/>
	</g>
</g>
</svg>
