<?xml version="1.0" encoding="utf-8"?>
<!-- Generator: Adobe Illustrator 23.0.4, SVG Export Plug-In . SVG Version: 6.00 Build 0)  -->
<svg version="1.1" id="_x33_0" xmlns="http://www.w3.org/2000/svg" xmlns:xlink="http://www.w3.org/1999/xlink" x="0px" y="0px"
	 viewBox="0 0 512 512" style="enable-background:new 0 0 512 512;" xml:space="preserve">
<style type="text/css">
	.st0{fill:#0AA06A;}
</style>
<g>
	<path class="st0" d="M488,40h-53.6l-9.2-6.1C399.8,16.9,370.3,8,339.8,8H280c-8.8,0-16,7.2-16,16c0,5.9,1.7,11.3,4.4,16L224,40
		c-13.2,0-24,10.8-24,24c0,3.2,0.6,6.2,1.8,8.9c-4.5,1.2-8.4,3.6-11.4,7l-8.1-8.1l-11.7,11.6c-4.4,4.4-11,5.7-17.1,3.1
		c-5.7-2.4-9.5-7.9-9.5-14.2V56H96v16.4c0,6.2-3.7,11.8-9.8,14.3c-5.8,2.4-12.4,1.2-16.8-3.3L57.8,71.8l-34,34l11.6,11.6
		c4.4,4.4,5.7,11,3.1,17.1c-2.4,5.7-7.9,9.5-14.2,9.5H8v48h16.4c6.2,0,11.8,3.7,14.3,9.8c2.4,5.8,1.1,12.4-3.3,16.8l-11.6,11.6
		l34,34l11.7-11.6c4.4-4.4,11-5.7,17.1-3.2c5.7,2.4,9.5,7.9,9.5,14.2V280h8v16.2c0,15.3,1.7,30.6,4.9,45.5
		c-7.6,3.4-15,7.5-22.1,12.2l-9.2,6.1H24c-8.8,0-16,7.2-16,16v96c0,8.8,7.2,16,16,16h48c6.5,0,12-3.9,14.6-9.4
		c25,16.4,54.6,25.4,84.7,25.4H240c3.3,0,6.4-0.7,9.3-1.9c1.4,0.5,2.8,1,4.2,1.5l2.5,0.8l2.5-0.8c37.8-12.6,70.2-34.8,95.2-63.3
		c1.6,0.2,3.1,0.5,4.8,1.2c5.7,2.4,9.5,7.9,9.5,14.2V472h48v-16.4c0-6.2,3.7-11.8,9.8-14.3c5.8-2.4,12.4-1.1,16.8,3.3l11.6,11.6
		l34-34l-11.6-11.6c-4.4-4.4-5.7-11-3.1-17.1c2.4-5.7,7.9-9.5,14.2-9.5H504v-48h-16.4c-6.2,0-11.8-3.7-14.3-9.8
		c-2.4-5.8-1.1-12.4,3.3-16.8l11.6-11.6l-34-34l-11.7,11.6c-4.4,4.4-11,5.7-17.1,3.1c-5.7-2.4-9.4-7.9-9.4-14.1V248h-8v-79.5
		c6-2.9,11.8-6.2,17.4-9.9c2.5,5.6,8.1,9.4,14.6,9.4h48c8.8,0,16-7.2,16-16V56C504,47.2,496.8,40,488,40L488,40z M224,56l72,0v0
		h25.4c4.8,0,9.2,2.2,12.2,5.9c-3.5,3-6.5,6.4-9.2,10.1H224c-4.4,0-8-3.6-8-8S219.6,56,224,56z M273.3,129.9l-14.9-9.9H312v16h-28.5
		C280,134.1,276.6,132.1,273.3,129.9z M228.5,136H224c-4.4,0-8-3.6-8-8s3.6-8,8-8h29.6l-14.9,9.9C235.4,132.1,232,134.1,228.5,136
		L228.5,136z M208,88h107.7c-1.8,5.1-3,10.5-3.4,16H208c-4.4,0-8-3.6-8-8S203.6,88,208,88L208,88z M92.4,234.5
		c-11.8-4.9-25.3-2.3-34.3,6.7l-0.3,0.3l-11.3-11.3l0.3-0.3c9-9,11.6-22.5,6.6-34.5C48.5,183.6,37.2,176,24.4,176H24v-16h0.4
		c12.7,0,24.1-7.6,29-19.6c4.9-11.8,2.3-25.3-6.7-34.3l-0.3-0.3l11.3-11.3l0.3,0.3c9,9,22.5,11.7,34.5,6.6
		c11.8-4.9,19.4-16.2,19.4-28.9V72h16v0.4c0,12.7,7.6,24.1,19.6,29c11.8,4.9,25.3,2.3,34.3-6.7l0.3-0.3l1.8,1.8
		c0.1,11,7.6,20.1,17.7,22.9c-1.1,2.8-1.8,5.8-1.8,8.9c0,6.7,2.8,12.8,7.2,17.1c-10.9,3.6-22.2,5.8-33.7,6.5
		C166.4,128.3,145,112,120,112c-30.9,0-56,25.1-56,56c0,25.1,16.5,46.7,40,53.6v21.1C100.9,239.2,97,236.4,92.4,234.5L92.4,234.5z
		 M104,142.2v62.3c-14.3-6.2-24-20.3-24-36.5c0-22.1,17.9-40,40-40c16.1,0,30,9.5,36.3,23.5c-5.4-0.4-10.9-1-16.3-2.1L104,142.2z
		 M72,472H24v-96h48V472z M240,488h-68.8c-30,0-59.3-10-83.2-28v-87.7l7.6-5.1c22.7-15.2,49.2-23.2,76.6-23.2H216
		c0,8.8-7.2,16-16,16h0h-24v16h24h0h72c4.4,0,8,3.6,8,8s-3.6,8-8,8h-96v16h112c4.4,0,8,3.6,8,8s-3.6,8-8,8H176v16h96
		c4.4,0,8,3.6,8,8s-3.6,8-8,8h-96v16h64c4.4,0,8,3.6,8,8S244.4,488,240,488z M152,296.2v-96.7c4.6,0.4,9.2,0.5,13.8,0.5
		c30.4,0,58-6.2,82.2-18.4V360h-20.4c2.8-4.7,4.4-10.1,4.4-16c0-8.8-7.2-16-16-16h-43.8c-5.7,0-11.4,0.4-17,1
		C153.1,318.3,152,307.2,152,296.2L152,296.2z M311.9,415c-0.5-10.6-7.8-19.3-17.7-22c1.1-2.8,1.8-5.8,1.8-8.9c0-13.2-10.8-24-24-24
		h-8V181.6c24.2,12.2,51.8,18.4,82.2,18.4c4.6,0,9.2-0.2,13.8-0.5v96.7C360,341.2,342.4,383.5,311.9,415z M263.5,484.6
		c0.3-1.5,0.5-3,0.5-4.6c0-2.8-0.6-5.5-1.5-8h9.5c12.8,0,23.1-10,23.9-22.6c50.2-34.8,80.1-91.7,80.1-153.2V181.5l-9,1.2
		c-6.9,0.9-13.9,1.3-20.8,1.3c-32.6,0-61.6-7.7-86-22.8l-4.2-2.6l-4.2,2.6c-24.4,15.1-53.4,22.8-86,22.8c-6.9,0-13.9-0.4-20.8-1.3
		l-9-1.2v114.7c0,11.9,1.2,23.7,3.4,35.3c-5.2,1.1-10.4,2.6-15.4,4.3c-2.6-13-4-26.3-4-39.6V161.8l16.9,3.4
		c9.5,1.9,19.2,2.9,28.9,2.9c29.2,0,57.5-8.6,81.8-24.8l8.4-5.6l8.4,5.6c24.3,16.2,52.6,24.8,81.8,24.8c9.7,0,19.4-1,28.9-2.9
		l16.9-3.4v134.5C392,379.9,340.8,454.2,263.5,484.6L263.5,484.6z M406.2,322.7c15.1,5.8,25.8,20.6,25.8,37.3c0,22.1-17.9,40-40,40
		c-3.3,0-6.5-0.4-9.6-1.2C394.8,375.5,402.9,349.7,406.2,322.7L406.2,322.7z M419.6,293.5c11.8,4.9,25.3,2.3,34.3-6.7l0.3-0.3
		l11.3,11.3l-0.3,0.3c-9,9-11.6,22.5-6.6,34.5c4.9,11.8,16.2,19.4,28.9,19.4h0.4v16h-0.4c-12.7,0-24.1,7.6-29,19.6
		c-4.9,11.8-2.3,25.3,6.7,34.3l0.3,0.3l-11.3,11.3l-0.3-0.3c-9-9-22.5-11.7-34.6-6.6c-11.8,4.9-19.4,16.2-19.4,28.9v0.4h-16v-0.4
		c0-12.6-7.4-23.8-19.3-28.9c3.3-4.4,6.4-9,9.4-13.7c5.7,1.9,11.7,3,17.9,3c30.9,0,56-25.1,56-56c0-24.9-16.9-46.9-40.4-53.7
		c0.2-3.4,0.4-6.7,0.4-10.1v-10.9C411.1,288.8,415,291.6,419.6,293.5z M372,149.5c-14.6,2.9-29.4,3.1-44,1.1V109
		c0-13,5.5-25.2,14.8-33.8c7.7,8.1,18.5,12.8,30.1,12.8h3.1V72h-3.1c-9.8,0-18.7-5.5-23.1-14.4C344.4,46.7,333.5,40,321.4,40H296
		c-8.8,0-16-7.2-16-16h59.8c27.3,0,53.8,8,76.6,23.2l7.6,5.1V140c-5.1,3.8-10.4,7.3-16,10.4v-8.2L372,149.5z M488,152h-48V56h48V152
		z"/>
	<path class="st0" d="M382.6,106.1c-18,4.5-32.3,17.7-38.2,35.4l15.2,5.1c4.1-12.4,14.2-21.7,26.9-24.9l7.5-1.9l-3.9-15.5
		L382.6,106.1z"/>
	<path class="st0" d="M8,312h16v16H8V312z"/>
	<path class="st0" d="M40,312h16v16H40V312z"/>
	<path class="st0" d="M72,312h16v16H72V312z"/>
	<path class="st0" d="M424,200h16v16h-16V200z"/>
	<path class="st0" d="M456,200h16v16h-16V200z"/>
	<path class="st0" d="M488,200h16v16h-16V200z"/>
</g>
</svg>
