<?xml version="1.0" encoding="utf-8"?>
<!-- Generator: Adobe Illustrator 23.0.4, SVG Export Plug-In . SVG Version: 6.00 Build 0)  -->
<svg version="1.1" id="Capa_1" xmlns="http://www.w3.org/2000/svg" xmlns:xlink="http://www.w3.org/1999/xlink" x="0px" y="0px"
	 viewBox="0 0 128 128" style="enable-background:new 0 0 128 128;" xml:space="preserve">
<style type="text/css">
	.st0{fill:#A5041B;}
</style>
<g id="QU9y7H.tif">
	<g>
		<path class="st0" d="M96.5,116.9c-21.6,0-43.3,0-64.9,0c-0.2-0.1-0.4-0.2-0.6-0.2c-4.5-1.1-7.3-4.7-7.3-9.3c0-2.9,0-5.7,0-8.6
			c0-26.1,0-52.2,0-78.3c0-4,2.2-7.3,5.7-8.8c0.7-0.3,1.4-0.5,2.1-0.7c16.6,0,33.2,0,49.8,0c0.6,0.4,1.2,0.8,1.7,1.3
			c6.7,6.6,13.3,13.3,20,19.9c0.9,0.9,1.3,1.9,1.3,3.1c0,6.3,0,12.5,0,18.8c0,17.8,0,35.6,0,53.4c0,4.3-2.9,8-7,9
			C97,116.7,96.7,116.8,96.5,116.9z M77.4,17.3c-0.3,0-0.5,0-0.7,0c-14.5,0-28.9,0-43.4,0c-2.2,0-3.4,1.3-3.4,3.6
			c0,28.7,0,57.5,0,86.2c0,2.4,1.2,3.6,3.6,3.6c20.3,0,40.7,0,61,0c2.4,0,3.6-1.3,3.6-3.6c0-22.7,0-45.3,0-68c0-0.4,0-0.7,0-1.2
			c-0.5,0-0.9,0-1.3,0c-5.4,0-10.8,0-16.2,0c-1.9,0-3.2-1.3-3.2-3.2c0-1.5,0-3,0-4.5C77.4,25.9,77.4,21.7,77.4,17.3z M93.4,31.7
			c-3.3-3.3-6.5-6.5-9.7-9.8c0,3.2,0,6.5,0,9.8c0.3,0,0.6,0,0.9,0C87.5,31.7,90.5,31.7,93.4,31.7z"/>
		<path class="st0" d="M47.7,77.2c1.2,0,2.5,0.1,3.7,0c0.4,0,0.9-0.3,1.1-0.6c2.5-4.3,5-8.6,7.5-13c0.2-0.3,0.2-0.9,0-1.3
			c-1-1.9-2.2-3.8-3.2-5.6c-3.3-5.8,0.4-12.5,7-12.8c3.1-0.1,5.6,1.2,7.3,3.8c1.8,2.7,1.9,5.6,0.4,8.5c-1.1,2-2.3,4-3.4,6
			c-0.3,0.5-0.4,0.9,0,1.5c2.5,4.2,4.9,8.5,7.4,12.8c0.3,0.6,0.7,0.8,1.4,0.8c2.3,0,4.5,0,6.8,0c4.2,0.1,7.9,3.5,8.1,7.6
			c0.3,4.7-2.8,8.6-7.3,9.1c-3.6,0.5-6.5-0.9-8.4-4c-1.2-1.9-2.3-3.9-3.3-5.8c-0.3-0.5-0.6-0.8-1.3-0.8c-4.9,0-9.9,0-14.8,0
			c-0.6,0-1,0.2-1.3,0.8c-1.1,1.9-2.1,3.8-3.2,5.6c-1.9,3.3-5.2,4.8-8.9,4.2c-3.3-0.5-6-3.2-6.7-6.7c-1.1-4.8,2.8-9.8,7.8-10
			C45.4,77.2,46.5,77.2,47.7,77.2L47.7,77.2z M68.6,77.2c-1.6-2.7-3.1-5.3-4.6-8c-1.6,2.8-3.1,5.3-4.6,8
			C62.5,77.2,65.5,77.2,68.6,77.2z M64,56.7c0.8-1.4,1.5-2.5,2-3.6c0.4-0.9,0.1-1.9-0.7-2.6c-0.7-0.6-1.9-0.6-2.7,0
			s-1.2,1.7-0.7,2.6C62.5,54.3,63.2,55.4,64,56.7z M79.4,83.5c0.7,1.3,1.4,2.4,2.1,3.5c0.5,0.8,1.7,1.1,2.6,0.7
			c0.8-0.3,1.5-1.3,1.4-2.2c-0.1-1-0.9-1.9-1.9-2C82.3,83.4,80.9,83.5,79.4,83.5z M48.5,83.5c-0.3,0-0.4-0.1-0.5-0.1
			c-1.1,0-2.2,0-3.3,0c-1.2,0-2,0.8-2.2,1.9c-0.1,0.9,0.5,2,1.4,2.3c1,0.4,2.1,0.1,2.7-0.9C47.3,85.8,47.8,84.7,48.5,83.5z"/>
	</g>
</g>
</svg>
