<?xml version="1.0" encoding="utf-8"?>
<!-- Generator: Adobe Illustrator 23.0.4, SVG Export Plug-In . SVG Version: 6.00 Build 0)  -->
<svg version="1.1" id="Capa_1" xmlns="http://www.w3.org/2000/svg" xmlns:xlink="http://www.w3.org/1999/xlink" x="0px" y="0px"
	 viewBox="0 0 198.7 198.7" style="enable-background:new 0 0 198.7 198.7;" xml:space="preserve">
<style type="text/css">
	.st0{fill:#0AA06A;}
</style>
<g>
	<g>
		<ellipse class="st0" cx="99.3" cy="16.6" rx="16.8" ry="16.6"/>
		<path class="st0" d="M130.8,43.2c0-4.5-3.3-7.4-7.3-7.4H74.9c-4.1,0-7.1,3.2-7.1,7.4v14.6v44.9c0,3.3,2.4,6,5.7,6
			c2.6,0,4.2-1.1,5.3-3v84c0,5,4,9,9,9s9-4,9-9v-67.9h5v67.9c0,5,4,9,9,9s9-4,9-9v-84c1,1.8,2.9,3,5.1,3c3.3,0,5.9-2.7,5.9-6V43.2z"
			/>
	</g>
</g>
</svg>
