<?xml version="1.0" encoding="utf-8"?>
<!-- Generator: Adobe Illustrator 23.0.4, SVG Export Plug-In . SVG Version: 6.00 Build 0)  -->
<svg version="1.1" id="Capa_1" xmlns="http://www.w3.org/2000/svg" xmlns:xlink="http://www.w3.org/1999/xlink" x="0px" y="0px"
	 viewBox="0 0 128 128" style="enable-background:new 0 0 128 128;" xml:space="preserve">
<style type="text/css">
	.st0{fill:#FFFFFF;}
</style>
<g>
	<path class="st0" d="M103.1,12.9H24.9c-6.6,0-12,5.4-12,12v78.2c0,6.6,5.4,12,12,12h78.2c6.6,0,12-5.4,12-12V24.9
		C115.1,18.3,109.7,12.9,103.1,12.9z M109.7,105.5c0,2.3-1.9,4.2-4.2,4.2h-83c-2.3,0-4.2-1.9-4.2-4.2V22.5c0-2.3,1.9-4.2,4.2-4.2h83
		c2.3,0,4.2,1.9,4.2,4.2V105.5z"/>
	<path class="st0" d="M78.4,55H67.6v-7.2c0-2,1.6-3.6,3.6-3.6h3.6v-9h-7.2l0,0c-6,0-10.8,4.8-10.8,10.8v9h-7.2v9h7.2v28.8h10.8V64
		h7.2L78.4,55z"/>
</g>
</svg>
