<?xml version="1.0" encoding="utf-8"?>
<!-- Generator: Adobe Illustrator 23.0.4, SVG Export Plug-In . SVG Version: 6.00 Build 0)  -->
<svg version="1.1" id="Capa_1" xmlns="http://www.w3.org/2000/svg" xmlns:xlink="http://www.w3.org/1999/xlink" x="0px" y="0px"
	 viewBox="0 0 561.7 561.7" style="enable-background:new 0 0 561.7 561.7;" xml:space="preserve">
<style type="text/css">
	.st0{fill:#0AA06A;}
</style>
<g>
	<g>
		<path class="st0" d="M166.9,283.2c11.4,3.5,23.4-2.9,26.9-14.2c0,0,32.2-104.8,32.2-104.8c0.2-0.4,1.2-2.3,3.4-2.3
			c0.2,0,4.5,0,4.5,0h0c1.3,0,2,1.1,1.7,2.3l-64.4,210.7c-0.3,1.2,0,3.4,2.2,3.4h44.5c1.3,0,2.2,1,2.2,2.3c0,0,0,153.5,0,153.5
			c0,15.3,12.4,27.7,27.7,27.7c15.3,0,27.7-12.4,27.7-27.7l0-153.5c0-1.3,1-2.3,2.3-2.3h0h4.4h0c1.3,0,2.3,1,2.3,2.3l0,153.5
			c0,15.3,12.4,27.7,27.7,27.7s27.7-12.4,27.7-27.7c0-0.1,0-153.5,0-153.5c0-1.3,0.9-2.3,2.2-2.3h45.8c2.2,0,2.6-2.1,2.2-3.4
			l-64.4-210.6c-0.3-1.2,0.4-2.3,1.7-2.3h0c0,0,4.3,0,4.5,0c2.2,0,3.2,1.8,3.4,2.3c0,0,32.1,104.8,32.2,104.8
			c3.5,11.4,15.5,17.7,26.9,14.2c11.4-3.5,17.8-15.5,14.3-26.9c0,0-18.9-61.7-31.9-104c-0.1-0.5-0.3-1-0.4-1.3
			c-4.9-17.1-16.2-56-52.5-56h-89.4c-33.8,0-45.1,38.9-50,56c-0.1,0.4-32.2,105.2-32.2,105.3C149.1,267.6,155.5,279.7,166.9,283.2z"
			/>
		
			<ellipse transform="matrix(0.1602 -0.9871 0.9871 0.1602 195.1008 311.8955)" class="st0" cx="280.8" cy="41.3" rx="41.3" ry="41.3"/>
	</g>
</g>
</svg>
