<?xml version="1.0" encoding="utf-8"?>
<!-- Generator: Adobe Illustrator 23.0.4, SVG Export Plug-In . SVG Version: 6.00 Build 0)  -->
<svg version="1.1" id="Capa_1" xmlns="http://www.w3.org/2000/svg" xmlns:xlink="http://www.w3.org/1999/xlink" x="0px" y="0px"
	 viewBox="0 0 128 128" style="enable-background:new 0 0 128 128;" xml:space="preserve">
<style type="text/css">
	.st0{fill:#FFFFFF;}
</style>
<g>
	<path class="st0" d="M82,58.8L56.1,44.6c-1.5-0.8-3.3-0.8-4.7,0.1c-1.5,0.9-2.3,2.4-2.3,4.1v28.1c0,1.7,0.9,3.2,2.3,4.1
		c0.8,0.5,1.6,0.7,2.4,0.7c0.8,0,1.5-0.2,2.3-0.6L82,67.1c1.5-0.8,2.5-2.4,2.5-4.2C84.5,61.2,83.6,59.6,82,58.8z M56,73.3v-21
		l19.4,10.6L56,73.3z"/>
	<path class="st0" d="M121.8,40.6L121.8,40.6c-0.1-1-1.1-9.4-5.2-13.7c-4.7-5-10.1-5.6-12.6-5.9c-0.2,0-0.4,0-0.6-0.1l-0.2,0
		c-15.5-1.1-38.9-1.3-39.1-1.3l0,0l0,0c-0.2,0-23.6,0.2-39.3,1.3l-0.2,0c-0.2,0-0.3,0-0.5,0.1c-2.5,0.3-7.8,0.9-12.6,6.1
		c-3.9,4.2-5,12.4-5.1,13.4l0,0.1c0,0.4-0.9,9.7-0.9,19.1v8.8c0,9.4,0.8,18.7,0.9,19.1l0,0.1c0.1,0.9,1.1,9.2,5.1,13.4
		c4.4,4.9,10,5.5,13.1,5.8c0.5,0.1,0.9,0.1,1.2,0.2l0.3,0c9,0.9,37,1.3,38.2,1.3l0,0l0,0c0.2,0,23.6-0.2,39.1-1.3l0.2,0
		c0.2,0,0.4,0,0.7-0.1c2.5-0.3,7.8-0.8,12.5-6c3.9-4.2,5-12.4,5.1-13.4l0-0.1c0-0.4,0.9-9.7,0.9-19.1v-8.8
		C122.6,50.3,121.8,40.9,121.8,40.6z M115.8,68.5c0,8.7-0.8,17.6-0.8,18.5c-0.3,2.3-1.5,7.5-3.4,9.5c-2.9,3.2-5.9,3.5-8.1,3.8
		c-0.3,0-0.5,0.1-0.7,0.1c-15,1.1-37.5,1.3-38.6,1.3c-1.2,0-28.8-0.4-37.5-1.2c-0.4-0.1-0.9-0.1-1.4-0.2c-2.6-0.3-6.1-0.7-8.8-3.7
		l-0.1-0.1c-1.9-1.9-3-6.8-3.3-9.4c-0.1-0.6-0.8-9.7-0.8-18.5v-8.8c0-8.7,0.8-17.6,0.8-18.5c0.3-2.7,1.6-7.5,3.4-9.5
		c3-3.3,6.2-3.7,8.3-3.9c0.2,0,0.4,0,0.6-0.1c15.2-1.1,37.9-1.3,38.7-1.3c0.8,0,23.5,0.2,38.6,1.3c0.2,0,0.4,0,0.6,0.1
		c2.2,0.2,5.4,0.6,8.4,3.8l0,0c1.9,1.9,3,6.9,3.3,9.6c0.1,0.6,0.8,9.7,0.8,18.5V68.5z"/>
</g>
</svg>
