<?xml version="1.0" encoding="utf-8"?>
<!-- Generator: Adobe Illustrator 23.0.4, SVG Export Plug-In . SVG Version: 6.00 Build 0)  -->
<svg version="1.1" id="Capa_1" xmlns="http://www.w3.org/2000/svg" xmlns:xlink="http://www.w3.org/1999/xlink" x="0px" y="0px"
	 viewBox="0 0 184.6 202.8" style="enable-background:new 0 0 184.6 202.8;" xml:space="preserve">
<style type="text/css">
	.st0{fill:#6CAF84;}
	.st1{fill:#2E2E2F;}
	.st2{fill:#28412F;}
	.st3{fill:#467255;}
	.st4{fill:#616160;}
	.st5{fill:#FFFFFF;}
</style>
<g>
	<g>
		<path class="st0" d="M78.6,136.8c0,0.1,0,0.3,0,0.4c0,0.1,0.1,0.2,0.1,0.3c0.1,0.1,0.1,0.1,0.2,0.2s0.2,0.1,0.4,0.1
			c0.2,0,0.3-0.1,0.5-0.2c0.1-0.1,0.2-0.3,0.2-0.5c0-0.1,0-0.2-0.1-0.3c0-0.1-0.1-0.2-0.2-0.3c-0.1-0.1-0.2-0.1-0.3-0.2
			c-0.1-0.1-0.3-0.1-0.5-0.2c-0.3-0.1-0.5-0.2-0.7-0.3c-0.2-0.1-0.3-0.2-0.5-0.4c-0.1-0.1-0.2-0.3-0.3-0.5c-0.1-0.2-0.1-0.4-0.1-0.6
			c0-0.6,0.2-1,0.5-1.3c0.3-0.3,0.7-0.4,1.3-0.4c0.3,0,0.5,0,0.7,0.1c0.2,0.1,0.4,0.1,0.6,0.3s0.3,0.3,0.4,0.5
			c0.1,0.2,0.1,0.4,0.1,0.7v0.2h-1.1c0-0.3,0-0.5-0.1-0.6c-0.1-0.1-0.3-0.2-0.5-0.2c-0.1,0-0.2,0-0.3,0.1c-0.1,0-0.2,0.1-0.2,0.1
			c-0.1,0.1-0.1,0.1-0.1,0.2c0,0.1,0,0.2,0,0.2c0,0.2,0,0.3,0.1,0.4s0.2,0.2,0.5,0.3l0.9,0.4c0.2,0.1,0.4,0.2,0.5,0.3
			c0.1,0.1,0.2,0.2,0.3,0.3c0.1,0.1,0.1,0.3,0.2,0.4c0,0.1,0,0.3,0,0.5c0,0.6-0.2,1-0.5,1.3c-0.3,0.3-0.8,0.4-1.5,0.4
			c-0.7,0-1.1-0.1-1.4-0.4c-0.3-0.3-0.4-0.7-0.4-1.2v-0.2h1.2V136.8z"/>
		<path class="st0" d="M81.7,135.3c0.1-0.3,0.2-0.5,0.3-0.7s0.3-0.3,0.5-0.4s0.5-0.1,0.8-0.1c0.3,0,0.6,0,0.8,0.1
			c0.2,0.1,0.4,0.2,0.5,0.4c0.1,0.2,0.2,0.4,0.3,0.7c0.1,0.3,0.1,0.6,0.1,1c0,0.4,0,0.7-0.1,1c-0.1,0.3-0.2,0.5-0.3,0.7
			c-0.1,0.2-0.3,0.3-0.5,0.4c-0.2,0.1-0.5,0.1-0.8,0.1c-0.3,0-0.6,0-0.8-0.1c-0.2-0.1-0.4-0.2-0.5-0.4s-0.2-0.4-0.3-0.7
			c-0.1-0.3-0.1-0.6-0.1-1C81.6,135.9,81.7,135.5,81.7,135.3z M82.7,136.8c0,0.2,0,0.3,0.1,0.5c0,0.1,0.1,0.2,0.2,0.3
			s0.2,0.1,0.3,0.1c0.2,0,0.4-0.1,0.5-0.4c0.1-0.2,0.1-0.6,0.1-1.2c0-0.5,0-0.9-0.1-1.2c-0.1-0.2-0.2-0.4-0.5-0.4
			c-0.1,0-0.2,0-0.3,0.1c-0.1,0.1-0.1,0.2-0.2,0.3c0,0.1-0.1,0.3-0.1,0.5c0,0.2,0,0.4,0,0.6S82.7,136.7,82.7,136.8z"/>
		<path class="st0" d="M87.7,135.3c0-0.1,0-0.2-0.1-0.3s-0.1-0.1-0.1-0.2s-0.1-0.1-0.3-0.1c-0.1,0-0.2,0-0.3,0.1
			c-0.1,0.1-0.1,0.2-0.2,0.3c0,0.1-0.1,0.3-0.1,0.5c0,0.2,0,0.4,0,0.7c0,0.3,0,0.5,0,0.7s0,0.3,0.1,0.5c0,0.1,0.1,0.2,0.2,0.3
			c0.1,0.1,0.2,0.1,0.3,0.1c0.2,0,0.3-0.1,0.4-0.2s0.1-0.4,0.1-0.8h1.1c0,0.6-0.1,1-0.4,1.3c-0.3,0.3-0.7,0.4-1.3,0.4
			c-0.3,0-0.5,0-0.7-0.1c-0.2-0.1-0.4-0.2-0.5-0.4c-0.1-0.2-0.2-0.4-0.3-0.7c-0.1-0.3-0.1-0.7-0.1-1.1c0-0.4,0-0.8,0.1-1.1
			s0.2-0.5,0.4-0.7c0.2-0.2,0.3-0.3,0.6-0.4s0.4-0.1,0.7-0.1c0.5,0,0.9,0.1,1.2,0.4s0.4,0.7,0.4,1.2h-1.1
			C87.7,135.5,87.7,135.4,87.7,135.3z"/>
		<path class="st0" d="M90.5,132.6v0.9h-1.1v-0.9H90.5z M90.5,134.1v4.3h-1.1v-4.3H90.5z"/>
		<path class="st0" d="M92.2,136.7c0,0.1,0,0.3,0,0.4c0,0.1,0,0.2,0.1,0.3c0,0.1,0.1,0.2,0.2,0.2c0.1,0.1,0.2,0.1,0.3,0.1
			c0.2,0,0.3-0.1,0.4-0.2c0.1-0.1,0.1-0.3,0.2-0.6h1c0,0.5-0.2,0.9-0.4,1.1c-0.2,0.3-0.6,0.4-1.2,0.4c-0.4,0-0.7-0.1-0.9-0.2
			c-0.2-0.1-0.4-0.3-0.5-0.5c-0.1-0.2-0.2-0.5-0.2-0.7s0-0.5,0-0.8c0-0.3,0-0.6,0.1-0.8c0-0.3,0.1-0.5,0.2-0.7
			c0.1-0.2,0.3-0.4,0.5-0.5c0.2-0.1,0.5-0.2,0.9-0.2c0.3,0,0.6,0.1,0.8,0.2c0.2,0.1,0.4,0.3,0.5,0.4c0.1,0.2,0.2,0.4,0.2,0.7
			c0,0.3,0.1,0.6,0.1,0.9v0.2h-2.2V136.7z M93.3,135.3c0-0.1,0-0.2-0.1-0.3c0-0.1-0.1-0.2-0.2-0.2c-0.1,0-0.2-0.1-0.3-0.1
			c-0.1,0-0.2,0-0.3,0.1s-0.1,0.1-0.2,0.2c0,0.1-0.1,0.2-0.1,0.3c0,0.1,0,0.2,0,0.3v0.2h1.1C93.3,135.6,93.3,135.4,93.3,135.3z"/>
		<path class="st0" d="M97.1,137.9c-0.1,0.2-0.3,0.3-0.4,0.4s-0.3,0.1-0.6,0.1c-0.5,0-0.8-0.2-1-0.5s-0.3-0.9-0.3-1.7
			c0-0.8,0.1-1.4,0.3-1.7s0.5-0.5,1-0.5c0.2,0,0.4,0,0.5,0.1c0.1,0.1,0.3,0.2,0.4,0.4h0v-1.8h1.1v5.7h-1.1L97.1,137.9L97.1,137.9z
			 M96,137.3c0.1,0.2,0.2,0.4,0.5,0.4c0.2,0,0.4-0.1,0.5-0.4c0.1-0.2,0.1-0.6,0.1-1.1c0-0.5,0-0.8-0.1-1.1c-0.1-0.2-0.2-0.4-0.5-0.4
			c-0.2,0-0.4,0.1-0.5,0.4c-0.1,0.2-0.1,0.6-0.1,1.1C95.9,136.7,96,137.1,96,137.3z"/>
		<path class="st0" d="M98.9,135.3c0-0.3,0-0.5,0.1-0.6c0.1-0.2,0.2-0.3,0.3-0.4c0.1-0.1,0.3-0.2,0.5-0.2c0.2,0,0.4-0.1,0.6-0.1
			c0.3,0,0.6,0,0.8,0.1c0.2,0.1,0.4,0.2,0.5,0.3c0.1,0.1,0.2,0.3,0.2,0.4s0.1,0.3,0.1,0.5v2.3c0,0.2,0,0.4,0,0.5
			c0,0.1,0.1,0.2,0.1,0.4h-1.1c0-0.1-0.1-0.1-0.1-0.2s0-0.2-0.1-0.2h0c-0.1,0.2-0.3,0.4-0.4,0.4c-0.2,0.1-0.4,0.1-0.7,0.1
			c-0.2,0-0.4,0-0.5-0.1c-0.1-0.1-0.2-0.2-0.3-0.3s-0.1-0.2-0.2-0.4c0-0.1-0.1-0.3-0.1-0.4c0-0.2,0-0.4,0.1-0.5
			c0-0.1,0.1-0.3,0.2-0.4c0.1-0.1,0.2-0.2,0.3-0.3c0.1-0.1,0.3-0.1,0.5-0.2l0.6-0.2c0.2,0,0.3-0.1,0.3-0.2c0.1-0.1,0.1-0.2,0.1-0.3
			c0-0.2,0-0.3-0.1-0.4c-0.1-0.1-0.2-0.1-0.4-0.1c-0.2,0-0.3,0.1-0.4,0.2c-0.1,0.1-0.1,0.2-0.1,0.4v0.1h-1V135.3z M100.7,136.4
			c-0.1,0-0.2,0.1-0.2,0.1c-0.2,0-0.4,0.1-0.5,0.2c-0.1,0.1-0.1,0.3-0.1,0.5c0,0.2,0,0.3,0.1,0.4c0.1,0.1,0.2,0.2,0.3,0.2
			c0.1,0,0.2,0,0.2,0c0.1,0,0.2-0.1,0.2-0.1c0.1-0.1,0.1-0.1,0.2-0.2c0-0.1,0.1-0.2,0.1-0.3v-0.8
			C100.9,136.3,100.8,136.3,100.7,136.4z"/>
		<path class="st0" d="M105,137.9c-0.1,0.2-0.3,0.3-0.4,0.4c-0.2,0.1-0.3,0.1-0.6,0.1c-0.5,0-0.8-0.2-1-0.5s-0.3-0.9-0.3-1.7
			c0-0.8,0.1-1.4,0.3-1.7s0.5-0.5,1-0.5c0.2,0,0.4,0,0.5,0.1c0.1,0.1,0.3,0.2,0.4,0.4h0v-1.8h1.1v5.7H105L105,137.9L105,137.9z
			 M103.9,137.3c0.1,0.2,0.2,0.4,0.5,0.4c0.2,0,0.4-0.1,0.5-0.4s0.1-0.6,0.1-1.1c0-0.5,0-0.8-0.1-1.1s-0.2-0.4-0.5-0.4
			c-0.2,0-0.4,0.1-0.5,0.4c-0.1,0.2-0.1,0.6-0.1,1.1C103.8,136.7,103.8,137.1,103.9,137.3z"/>
	</g>
	<g>
		<path d="M77,143.3c0-0.1,0-0.2-0.1-0.3s-0.1-0.1-0.1-0.2s-0.1-0.1-0.3-0.1c-0.1,0-0.2,0-0.3,0.1c-0.1,0.1-0.1,0.2-0.2,0.3
			c0,0.1-0.1,0.3-0.1,0.5c0,0.2,0,0.4,0,0.7c0,0.3,0,0.5,0,0.7s0,0.3,0.1,0.5c0,0.1,0.1,0.2,0.2,0.3c0.1,0.1,0.2,0.1,0.3,0.1
			c0.2,0,0.3-0.1,0.4-0.2s0.1-0.4,0.1-0.8h1.1c0,0.6-0.1,1-0.4,1.3c-0.3,0.3-0.7,0.4-1.3,0.4c-0.3,0-0.5,0-0.7-0.1
			c-0.2-0.1-0.4-0.2-0.5-0.4c-0.1-0.2-0.2-0.4-0.3-0.7c-0.1-0.3-0.1-0.7-0.1-1.1c0-0.4,0-0.8,0.1-1.1s0.2-0.5,0.4-0.7
			c0.2-0.2,0.3-0.3,0.6-0.4s0.4-0.1,0.7-0.1c0.5,0,0.9,0.1,1.2,0.4s0.4,0.7,0.4,1.2H77C77,143.5,77,143.4,77,143.3z"/>
		<path d="M78.6,143.3c0.1-0.3,0.2-0.5,0.3-0.7s0.3-0.3,0.5-0.4s0.5-0.1,0.8-0.1c0.3,0,0.6,0,0.8,0.1c0.2,0.1,0.4,0.2,0.5,0.4
			c0.1,0.2,0.2,0.4,0.3,0.7c0.1,0.3,0.1,0.6,0.1,1c0,0.4,0,0.7-0.1,1c-0.1,0.3-0.2,0.5-0.3,0.7c-0.1,0.2-0.3,0.3-0.5,0.4
			c-0.2,0.1-0.5,0.1-0.8,0.1c-0.3,0-0.6,0-0.8-0.1c-0.2-0.1-0.4-0.2-0.5-0.4s-0.2-0.4-0.3-0.7c-0.1-0.3-0.1-0.6-0.1-1
			C78.5,143.9,78.5,143.5,78.6,143.3z M79.6,144.8c0,0.2,0,0.3,0.1,0.5c0,0.1,0.1,0.2,0.2,0.3s0.2,0.1,0.3,0.1
			c0.2,0,0.4-0.1,0.5-0.4c0.1-0.2,0.1-0.6,0.1-1.2c0-0.5,0-0.9-0.1-1.2c-0.1-0.2-0.2-0.4-0.5-0.4c-0.1,0-0.2,0-0.3,0.1
			c-0.1,0.1-0.1,0.2-0.2,0.3c0,0.1-0.1,0.3-0.1,0.5c0,0.2,0,0.4,0,0.6S79.6,144.7,79.6,144.8z"/>
		<path d="M83.6,142.1v0.5h0c0.1-0.2,0.3-0.4,0.5-0.5s0.4-0.1,0.6-0.1c0.4,0,0.6,0.1,0.8,0.3c0.2,0.2,0.3,0.5,0.3,0.9v3.2h-1.1v-3
			c0-0.2,0-0.4-0.1-0.5c-0.1-0.1-0.2-0.1-0.4-0.1c-0.4,0-0.6,0.2-0.6,0.7v2.9h-1.1v-4.3H83.6z"/>
		<path d="M87.3,145.1c0,0.2,0,0.3,0.1,0.5c0.1,0.1,0.2,0.2,0.4,0.2c0.2,0,0.3,0,0.4-0.1c0.1-0.1,0.2-0.2,0.2-0.4
			c0-0.1,0-0.2-0.1-0.3c-0.1-0.1-0.2-0.1-0.3-0.2l-0.8-0.3c-0.3-0.1-0.5-0.3-0.7-0.5c-0.2-0.2-0.2-0.4-0.2-0.7c0-0.2,0-0.3,0.1-0.5
			c0.1-0.2,0.2-0.3,0.3-0.4s0.3-0.2,0.5-0.3c0.2-0.1,0.4-0.1,0.7-0.1c0.5,0,0.9,0.1,1.1,0.3c0.2,0.2,0.4,0.5,0.4,0.9v0.2h-1
			c0-0.2,0-0.4-0.1-0.5c-0.1-0.1-0.2-0.2-0.4-0.2c-0.1,0-0.3,0-0.4,0.1s-0.2,0.2-0.2,0.3c0,0.1,0,0.2,0.1,0.3
			c0.1,0.1,0.2,0.2,0.4,0.2l0.7,0.2c0.3,0.1,0.6,0.3,0.7,0.5s0.2,0.4,0.2,0.8c0,0.2,0,0.4-0.1,0.6s-0.2,0.3-0.3,0.4
			c-0.1,0.1-0.3,0.2-0.5,0.2c-0.2,0-0.4,0.1-0.6,0.1c-0.3,0-0.6,0-0.8-0.1c-0.2-0.1-0.4-0.1-0.5-0.3c-0.1-0.1-0.2-0.3-0.3-0.4
			c0-0.2-0.1-0.4-0.1-0.6V145h1V145.1z"/>
		<path d="M92.1,143.3c0-0.1,0-0.2-0.1-0.3s-0.1-0.1-0.1-0.2s-0.1-0.1-0.3-0.1c-0.1,0-0.2,0-0.3,0.1c-0.1,0.1-0.1,0.2-0.2,0.3
			c0,0.1-0.1,0.3-0.1,0.5c0,0.2,0,0.4,0,0.7c0,0.3,0,0.5,0,0.7s0,0.3,0.1,0.5c0,0.1,0.1,0.2,0.2,0.3c0.1,0.1,0.2,0.1,0.3,0.1
			c0.2,0,0.3-0.1,0.4-0.2s0.1-0.4,0.1-0.8h1.1c0,0.6-0.1,1-0.4,1.3c-0.3,0.3-0.7,0.4-1.3,0.4c-0.3,0-0.5,0-0.7-0.1
			c-0.2-0.1-0.4-0.2-0.5-0.4c-0.1-0.2-0.2-0.4-0.3-0.7c-0.1-0.3-0.1-0.7-0.1-1.1c0-0.4,0-0.8,0.1-1.1s0.2-0.5,0.4-0.7
			c0.2-0.2,0.3-0.3,0.6-0.4s0.4-0.1,0.7-0.1c0.5,0,0.9,0.1,1.2,0.4s0.4,0.7,0.4,1.2h-1.1C92.1,143.5,92.1,143.4,92.1,143.3z"/>
		<path d="M94.9,140.6v0.9h-1.1v-0.9H94.9z M94.9,142.1v4.3h-1.1v-4.3H94.9z"/>
		<path d="M96.6,144.7c0,0.1,0,0.3,0,0.4c0,0.1,0,0.2,0.1,0.3c0,0.1,0.1,0.2,0.2,0.2c0.1,0.1,0.2,0.1,0.3,0.1c0.2,0,0.3-0.1,0.4-0.2
			c0.1-0.1,0.1-0.3,0.2-0.6h1c0,0.5-0.2,0.9-0.4,1.1c-0.2,0.3-0.6,0.4-1.2,0.4c-0.4,0-0.7-0.1-0.9-0.2c-0.2-0.1-0.4-0.3-0.5-0.5
			c-0.1-0.2-0.2-0.5-0.2-0.7s0-0.5,0-0.8c0-0.3,0-0.6,0.1-0.8c0-0.3,0.1-0.5,0.2-0.7c0.1-0.2,0.3-0.4,0.5-0.5
			c0.2-0.1,0.5-0.2,0.9-0.2c0.3,0,0.6,0.1,0.8,0.2c0.2,0.1,0.4,0.3,0.5,0.4c0.1,0.2,0.2,0.4,0.2,0.7s0.1,0.6,0.1,0.9v0.2h-2.2V144.7
			z M97.7,143.3c0-0.1,0-0.2-0.1-0.3c0-0.1-0.1-0.2-0.2-0.2c-0.1,0-0.2-0.1-0.3-0.1c-0.1,0-0.2,0-0.3,0.1s-0.1,0.1-0.2,0.2
			c0,0.1-0.1,0.2-0.1,0.3c0,0.1,0,0.2,0,0.3v0.2h1.1C97.7,143.6,97.7,143.4,97.7,143.3z"/>
		<path d="M100.4,142.1v0.5h0c0.1-0.2,0.3-0.4,0.5-0.5c0.2-0.1,0.4-0.1,0.6-0.1c0.4,0,0.6,0.1,0.8,0.3s0.3,0.5,0.3,0.9v3.2h-1.1v-3
			c0-0.2,0-0.4-0.1-0.5c-0.1-0.1-0.2-0.1-0.4-0.1c-0.4,0-0.6,0.2-0.6,0.7v2.9h-1.1v-4.3H100.4z"/>
		<path d="M104.7,140.9v1.2h0.6v0.8h-0.6v2.3c0,0.2,0,0.3,0.1,0.4c0.1,0.1,0.2,0.1,0.3,0.1c0,0,0.1,0,0.1,0c0,0,0.1,0,0.1,0v0.8
			c-0.1,0-0.2,0-0.4,0c-0.1,0-0.2,0-0.4,0c-0.2,0-0.4,0-0.5,0c-0.1,0-0.2-0.1-0.3-0.2s-0.1-0.2-0.1-0.3c0-0.1,0-0.3,0-0.5v-2.5h-0.6
			v-0.8h0.6v-1.2H104.7z"/>
		<path d="M106.7,144.7c0,0.1,0,0.3,0,0.4c0,0.1,0,0.2,0.1,0.3c0,0.1,0.1,0.2,0.2,0.2c0.1,0.1,0.2,0.1,0.3,0.1
			c0.2,0,0.3-0.1,0.4-0.2c0.1-0.1,0.1-0.3,0.2-0.6h1c0,0.5-0.2,0.9-0.4,1.1c-0.2,0.3-0.6,0.4-1.2,0.4c-0.4,0-0.7-0.1-0.9-0.2
			c-0.2-0.1-0.4-0.3-0.5-0.5c-0.1-0.2-0.2-0.5-0.2-0.7c0-0.3,0-0.5,0-0.8c0-0.3,0-0.6,0.1-0.8c0-0.3,0.1-0.5,0.2-0.7
			s0.3-0.4,0.5-0.5c0.2-0.1,0.5-0.2,0.9-0.2c0.3,0,0.6,0.1,0.8,0.2c0.2,0.1,0.4,0.3,0.5,0.4c0.1,0.2,0.2,0.4,0.2,0.7
			c0,0.3,0.1,0.6,0.1,0.9v0.2h-2.2V144.7z M107.8,143.3c0-0.1,0-0.2-0.1-0.3c0-0.1-0.1-0.2-0.2-0.2c-0.1,0-0.2-0.1-0.3-0.1
			s-0.2,0-0.3,0.1c-0.1,0.1-0.1,0.1-0.2,0.2c0,0.1-0.1,0.2-0.1,0.3c0,0.1,0,0.2,0,0.3v0.2h1.1C107.8,143.6,107.8,143.4,107.8,143.3z
			"/>
	</g>
	<g>
		<path class="st0" d="M79.9,88.1L79.9,88.1l0-4.4h1.2v6.4h-1.5l-1.6-4.5h0v4.5h-1.2v-6.4h1.5L79.9,88.1z"/>
		<path class="st0" d="M83.1,88.3c0,0.1,0,0.3,0,0.4c0,0.1,0.1,0.3,0.1,0.4c0,0.1,0.1,0.2,0.2,0.3c0.1,0.1,0.2,0.1,0.3,0.1
			c0.2,0,0.4-0.1,0.5-0.2c0.1-0.1,0.2-0.4,0.2-0.7h1.1c0,0.6-0.2,1-0.4,1.3c-0.3,0.3-0.7,0.4-1.3,0.4c-0.5,0-0.8-0.1-1.1-0.2
			c-0.3-0.1-0.4-0.3-0.6-0.6c-0.1-0.2-0.2-0.5-0.2-0.8c0-0.3,0-0.6,0-0.9c0-0.3,0-0.6,0.1-0.9c0-0.3,0.1-0.6,0.3-0.8
			c0.1-0.2,0.3-0.4,0.6-0.6c0.3-0.1,0.6-0.2,1-0.2c0.4,0,0.7,0.1,0.9,0.2s0.4,0.3,0.5,0.5c0.1,0.2,0.2,0.5,0.3,0.8
			c0,0.3,0.1,0.6,0.1,1v0.3h-2.5V88.3z M84.3,86.7c0-0.1,0-0.3-0.1-0.4c0-0.1-0.1-0.2-0.2-0.2c-0.1-0.1-0.2-0.1-0.3-0.1
			c-0.1,0-0.2,0-0.3,0.1c-0.1,0.1-0.1,0.1-0.2,0.2c0,0.1-0.1,0.2-0.1,0.3c0,0.1,0,0.2,0,0.3v0.2h1.3C84.3,87,84.3,86.8,84.3,86.7z"
			/>
		<path class="st0" d="M89.8,89.9c0,0.6-0.2,1.1-0.5,1.4c-0.3,0.3-0.8,0.5-1.6,0.5c-0.5,0-0.9-0.1-1.2-0.3c-0.3-0.2-0.4-0.5-0.4-1
			h1.2c0,0.2,0.1,0.3,0.2,0.4c0.1,0,0.1,0.1,0.2,0.1c0.1,0,0.1,0,0.2,0c0.3,0,0.4-0.1,0.5-0.2c0.1-0.2,0.2-0.4,0.2-0.6v-0.6h0
			c-0.1,0.2-0.3,0.3-0.5,0.4c-0.2,0.1-0.4,0.2-0.6,0.2c-0.5,0-0.9-0.2-1.1-0.6c-0.2-0.4-0.4-1-0.4-1.9c0-0.3,0-0.6,0-0.9
			c0-0.3,0.1-0.6,0.2-0.8c0.1-0.2,0.3-0.4,0.5-0.6c0.2-0.1,0.5-0.2,0.8-0.2c0.2,0,0.4,0,0.5,0.1c0.2,0.1,0.3,0.3,0.5,0.5h0v-0.5h1.2
			V89.9z M87.3,88.4c0,0.1,0,0.3,0.1,0.4c0,0.1,0.1,0.2,0.2,0.3s0.2,0.1,0.3,0.1c0.1,0,0.2,0,0.3-0.1s0.2-0.2,0.2-0.3
			c0.1-0.1,0.1-0.3,0.1-0.4s0-0.4,0-0.6c0-0.6,0-1-0.1-1.3c-0.1-0.2-0.3-0.4-0.5-0.4c-0.1,0-0.2,0-0.3,0.1s-0.1,0.2-0.2,0.3
			c0,0.1-0.1,0.3-0.1,0.5c0,0.2,0,0.5,0,0.8C87.3,88.1,87.3,88.2,87.3,88.4z"/>
		<path class="st0" d="M90.6,86.6c0.1-0.3,0.2-0.6,0.3-0.8s0.3-0.4,0.6-0.5c0.2-0.1,0.5-0.2,0.9-0.2c0.4,0,0.7,0,0.9,0.1
			s0.4,0.3,0.6,0.5c0.1,0.2,0.2,0.5,0.3,0.8c0.1,0.3,0.1,0.7,0.1,1.1c0,0.4,0,0.8-0.1,1.1c-0.1,0.3-0.2,0.6-0.3,0.8
			s-0.3,0.4-0.6,0.5c-0.2,0.1-0.5,0.2-0.9,0.2c-0.4,0-0.7,0-0.9-0.1s-0.4-0.3-0.6-0.5s-0.2-0.5-0.3-0.8c-0.1-0.3-0.1-0.7-0.1-1.1
			C90.5,87.3,90.6,87,90.6,86.6z M91.8,88.4c0,0.2,0,0.4,0.1,0.5s0.1,0.3,0.2,0.4c0.1,0.1,0.2,0.1,0.4,0.1c0.3,0,0.4-0.1,0.5-0.4
			c0.1-0.3,0.1-0.7,0.1-1.3s0-1-0.1-1.3c-0.1-0.3-0.3-0.4-0.5-0.4c-0.2,0-0.3,0-0.4,0.1c-0.1,0.1-0.2,0.2-0.2,0.4s-0.1,0.3-0.1,0.5
			c0,0.2,0,0.4,0,0.7S91.8,88.2,91.8,88.4z"/>
		<path class="st0" d="M97.3,86.7c0-0.1,0-0.2-0.1-0.3c0-0.1-0.1-0.2-0.2-0.2s-0.2-0.1-0.3-0.1c-0.1,0-0.3,0-0.4,0.1
			c-0.1,0.1-0.2,0.2-0.2,0.3c0,0.1-0.1,0.3-0.1,0.5s0,0.5,0,0.7c0,0.3,0,0.6,0,0.8s0.1,0.4,0.1,0.5c0,0.1,0.1,0.2,0.2,0.3
			c0.1,0.1,0.2,0.1,0.3,0.1c0.2,0,0.4-0.1,0.5-0.3c0.1-0.2,0.1-0.5,0.1-0.9h1.2c0,0.6-0.1,1.1-0.4,1.5c-0.3,0.3-0.8,0.5-1.4,0.5
			c-0.3,0-0.6,0-0.8-0.1c-0.2-0.1-0.4-0.2-0.6-0.4c-0.2-0.2-0.3-0.5-0.3-0.8c-0.1-0.3-0.1-0.7-0.1-1.2c0-0.5,0-0.9,0.1-1.2
			c0.1-0.3,0.2-0.6,0.4-0.8c0.2-0.2,0.4-0.3,0.6-0.4c0.2-0.1,0.5-0.1,0.8-0.1c0.6,0,1,0.2,1.3,0.5s0.4,0.8,0.4,1.4h-1.2
			C97.3,86.9,97.3,86.8,97.3,86.7z"/>
		<path class="st0" d="M100.5,83.7v1.1h-1.2v-1.1H100.5z M100.5,85.3v4.8h-1.2v-4.8H100.5z"/>
		<path class="st0" d="M101.3,86.6c0.1-0.3,0.2-0.6,0.3-0.8c0.2-0.2,0.3-0.4,0.6-0.5c0.2-0.1,0.5-0.2,0.9-0.2c0.4,0,0.7,0,0.9,0.1
			s0.4,0.3,0.6,0.5c0.1,0.2,0.2,0.5,0.3,0.8c0.1,0.3,0.1,0.7,0.1,1.1c0,0.4,0,0.8-0.1,1.1c-0.1,0.3-0.2,0.6-0.3,0.8
			c-0.1,0.2-0.3,0.4-0.6,0.5c-0.2,0.1-0.5,0.2-0.9,0.2c-0.4,0-0.7,0-0.9-0.1c-0.2-0.1-0.4-0.3-0.6-0.5c-0.1-0.2-0.2-0.5-0.3-0.8
			c-0.1-0.3-0.1-0.7-0.1-1.1C101.2,87.3,101.2,87,101.3,86.6z M102.4,88.4c0,0.2,0,0.4,0.1,0.5s0.1,0.3,0.2,0.4
			c0.1,0.1,0.2,0.1,0.4,0.1c0.3,0,0.4-0.1,0.5-0.4c0.1-0.3,0.1-0.7,0.1-1.3s0-1-0.1-1.3c-0.1-0.3-0.3-0.4-0.5-0.4
			c-0.2,0-0.3,0-0.4,0.1s-0.2,0.2-0.2,0.4s-0.1,0.3-0.1,0.5c0,0.2,0,0.4,0,0.7S102.4,88.2,102.4,88.4z"/>
	</g>
	<g>
		<path d="M79.8,95.7c0-0.1,0-0.2-0.1-0.3c0-0.1-0.1-0.2-0.2-0.2c-0.1-0.1-0.2-0.1-0.3-0.1c-0.1,0-0.3,0-0.4,0.1
			c-0.1,0.1-0.2,0.2-0.2,0.3c0,0.1-0.1,0.3-0.1,0.5s0,0.5,0,0.7c0,0.3,0,0.6,0,0.8s0.1,0.4,0.1,0.5c0,0.1,0.1,0.2,0.2,0.3
			c0.1,0.1,0.2,0.1,0.3,0.1c0.2,0,0.4-0.1,0.5-0.3c0.1-0.2,0.1-0.5,0.1-0.9H81c0,0.6-0.1,1.1-0.4,1.5s-0.8,0.5-1.4,0.5
			c-0.3,0-0.6,0-0.8-0.1c-0.2-0.1-0.4-0.2-0.6-0.4c-0.2-0.2-0.3-0.5-0.3-0.8c-0.1-0.3-0.1-0.7-0.1-1.2c0-0.5,0-0.9,0.1-1.2
			c0.1-0.3,0.2-0.6,0.4-0.8c0.2-0.2,0.4-0.3,0.6-0.4c0.2-0.1,0.5-0.1,0.8-0.1c0.6,0,1,0.2,1.3,0.5s0.4,0.8,0.4,1.4h-1.2
			C79.8,95.9,79.8,95.8,79.8,95.7z"/>
		<path d="M83,92.7v1.1h-1.2v-1.1H83z M83,94.3v4.8h-1.2v-4.8H83z"/>
		<path d="M85,94.3V95h0c0.1-0.2,0.3-0.4,0.5-0.6c0.2-0.1,0.4-0.2,0.7-0.2c0,0,0.1,0,0.1,0s0.1,0,0.1,0v1.2c-0.1,0-0.1,0-0.2,0
			s-0.1,0-0.2,0c-0.1,0-0.2,0-0.3,0c-0.1,0-0.2,0.1-0.3,0.1c-0.1,0.1-0.2,0.2-0.2,0.3c-0.1,0.1-0.1,0.2-0.1,0.4v2.9h-1.2v-4.8H85z"
			/>
		<path d="M89.1,95.7c0-0.1,0-0.2-0.1-0.3c0-0.1-0.1-0.2-0.2-0.2c-0.1-0.1-0.2-0.1-0.3-0.1c-0.1,0-0.3,0-0.4,0.1
			c-0.1,0.1-0.2,0.2-0.2,0.3c0,0.1-0.1,0.3-0.1,0.5s0,0.5,0,0.7c0,0.3,0,0.6,0,0.8S88,97.9,88,98c0,0.1,0.1,0.2,0.2,0.3
			c0.1,0.1,0.2,0.1,0.3,0.1c0.2,0,0.4-0.1,0.5-0.3c0.1-0.2,0.1-0.5,0.1-0.9h1.2c0,0.6-0.1,1.1-0.4,1.5s-0.8,0.5-1.4,0.5
			c-0.3,0-0.6,0-0.8-0.1c-0.2-0.1-0.4-0.2-0.6-0.4c-0.2-0.2-0.3-0.5-0.3-0.8c-0.1-0.3-0.1-0.7-0.1-1.2c0-0.5,0-0.9,0.1-1.2
			c0.1-0.3,0.2-0.6,0.4-0.8c0.2-0.2,0.4-0.3,0.6-0.4c0.2-0.1,0.5-0.1,0.8-0.1c0.6,0,1,0.2,1.3,0.5s0.4,0.8,0.4,1.4h-1.2
			C89.2,95.9,89.2,95.8,89.1,95.7z"/>
		<path d="M93.5,98.6c-0.1,0.2-0.3,0.4-0.5,0.5c-0.2,0.1-0.5,0.2-0.7,0.2c-0.4,0-0.7-0.1-0.9-0.3s-0.3-0.6-0.3-1v-3.6h1.2v3.3
			c0,0.3,0,0.4,0.1,0.5c0.1,0.1,0.2,0.1,0.4,0.1c0.4,0,0.7-0.3,0.7-0.8v-3.2h1.2v4.8h-1.2L93.5,98.6L93.5,98.6z"/>
		<path d="M96.8,92.7v6.4h-1.2v-6.4H96.8z"/>
		<path d="M97.7,95.7c0-0.3,0-0.5,0.1-0.7s0.2-0.3,0.4-0.5c0.2-0.1,0.3-0.2,0.5-0.3c0.2-0.1,0.4-0.1,0.7-0.1c0.4,0,0.7,0,0.9,0.1
			c0.2,0.1,0.4,0.2,0.5,0.3c0.1,0.1,0.2,0.3,0.3,0.5c0,0.2,0.1,0.4,0.1,0.6v2.5c0,0.2,0,0.4,0,0.5c0,0.1,0.1,0.3,0.1,0.4h-1.2
			c0-0.1-0.1-0.2-0.1-0.2s0-0.2-0.1-0.3h0c-0.1,0.3-0.3,0.4-0.5,0.5c-0.2,0.1-0.4,0.1-0.7,0.1c-0.2,0-0.4,0-0.5-0.1
			c-0.2-0.1-0.3-0.2-0.4-0.3c-0.1-0.1-0.2-0.3-0.2-0.4c0-0.2-0.1-0.3-0.1-0.5c0-0.2,0-0.4,0.1-0.6s0.1-0.3,0.2-0.4
			c0.1-0.1,0.2-0.2,0.4-0.3c0.2-0.1,0.3-0.1,0.6-0.2l0.7-0.2c0.2,0,0.3-0.1,0.4-0.2c0.1-0.1,0.1-0.2,0.1-0.4c0-0.2,0-0.3-0.1-0.4
			c-0.1-0.1-0.2-0.2-0.4-0.2c-0.2,0-0.3,0.1-0.4,0.2c-0.1,0.1-0.1,0.3-0.1,0.5v0.1h-1.1V95.7z M99.7,96.9c-0.1,0-0.2,0.1-0.3,0.1
			c-0.3,0.1-0.4,0.1-0.5,0.3c-0.1,0.1-0.2,0.3-0.2,0.5c0,0.2,0,0.3,0.1,0.5s0.2,0.2,0.4,0.2c0.1,0,0.2,0,0.3,0
			c0.1,0,0.2-0.1,0.2-0.1c0.1-0.1,0.1-0.1,0.2-0.2c0-0.1,0.1-0.2,0.1-0.3v-1C99.8,96.8,99.7,96.9,99.7,96.9z"/>
		<path d="M103.2,94.3V95h0c0.1-0.2,0.3-0.4,0.5-0.6s0.4-0.2,0.7-0.2c0,0,0.1,0,0.1,0s0.1,0,0.1,0v1.2c-0.1,0-0.1,0-0.2,0
			c-0.1,0-0.1,0-0.2,0c-0.1,0-0.2,0-0.3,0c-0.1,0-0.2,0.1-0.3,0.1s-0.2,0.2-0.2,0.3c-0.1,0.1-0.1,0.2-0.1,0.4v2.9H102v-4.8H103.2z"
			/>
	</g>
	<g>
		<path class="st0" d="M81.1,42.1h-2.3v1.5h2.2v1.1h-2.2v1.7h2.4v1.1h-3.7V41h3.6V42.1z"/>
		<path class="st0" d="M82.9,42.6v0.6h0c0.1-0.2,0.3-0.4,0.5-0.5c0.2-0.1,0.5-0.2,0.7-0.2c0.4,0,0.7,0.1,0.9,0.3
			c0.2,0.2,0.3,0.6,0.3,1.1v3.6h-1.2v-3.3c0-0.3,0-0.4-0.1-0.5c-0.1-0.1-0.2-0.1-0.4-0.1c-0.4,0-0.7,0.3-0.7,0.8v3.2h-1.2v-4.8H82.9
			z"/>
		<path class="st0" d="M87.8,41.2v1.4h0.7v0.8h-0.7V46c0,0.2,0,0.3,0.1,0.4c0.1,0.1,0.2,0.1,0.4,0.1c0,0,0.1,0,0.1,0
			c0,0,0.1,0,0.1,0v0.9c-0.1,0-0.3,0-0.4,0c-0.1,0-0.3,0-0.4,0c-0.2,0-0.4,0-0.6,0c-0.2,0-0.3-0.1-0.4-0.2c-0.1-0.1-0.1-0.2-0.2-0.4
			c0-0.2,0-0.4,0-0.6v-2.8h-0.6v-0.8h0.6v-1.4H87.8z"/>
		<path class="st0" d="M88.9,43.9c0.1-0.3,0.2-0.6,0.3-0.8s0.3-0.4,0.6-0.5c0.2-0.1,0.5-0.2,0.9-0.2c0.4,0,0.7,0,0.9,0.1
			s0.4,0.3,0.6,0.5c0.1,0.2,0.2,0.5,0.3,0.8c0.1,0.3,0.1,0.7,0.1,1.1c0,0.4,0,0.8-0.1,1.1c-0.1,0.3-0.2,0.6-0.3,0.8
			s-0.3,0.4-0.6,0.5c-0.2,0.1-0.5,0.2-0.9,0.2c-0.4,0-0.7,0-0.9-0.1s-0.4-0.3-0.6-0.5s-0.2-0.5-0.3-0.8c-0.1-0.3-0.1-0.7-0.1-1.1
			C88.8,44.6,88.8,44.2,88.9,43.9z M90,45.7c0,0.2,0,0.4,0.1,0.5s0.1,0.3,0.2,0.4c0.1,0.1,0.2,0.1,0.4,0.1c0.3,0,0.4-0.1,0.5-0.4
			c0.1-0.3,0.1-0.7,0.1-1.3s0-1-0.1-1.3c-0.1-0.3-0.3-0.4-0.5-0.4c-0.2,0-0.3,0-0.4,0.1c-0.1,0.1-0.2,0.2-0.2,0.4S90,44.1,90,44.3
			c0,0.2,0,0.4,0,0.7S90,45.5,90,45.7z"/>
		<path class="st0" d="M94.4,42.6v0.6h0c0.1-0.2,0.3-0.4,0.5-0.6c0.2-0.1,0.4-0.2,0.7-0.2c0,0,0.1,0,0.1,0s0.1,0,0.1,0v1.2
			c-0.1,0-0.1,0-0.2,0s-0.1,0-0.2,0c-0.1,0-0.2,0-0.3,0c-0.1,0-0.2,0.1-0.3,0.1c-0.1,0.1-0.2,0.2-0.2,0.3c-0.1,0.1-0.1,0.2-0.1,0.4
			v2.9h-1.2v-4.8H94.4z"/>
		<path class="st0" d="M97.4,42.6v0.6h0c0.1-0.2,0.3-0.4,0.5-0.5c0.2-0.1,0.5-0.2,0.7-0.2c0.4,0,0.7,0.1,0.9,0.3s0.3,0.6,0.3,1.1
			v3.6h-1.2v-3.3c0-0.3,0-0.4-0.1-0.5c-0.1-0.1-0.2-0.1-0.4-0.1c-0.4,0-0.7,0.3-0.7,0.8v3.2h-1.2v-4.8H97.4z"/>
		<path class="st0" d="M100.7,43.9c0.1-0.3,0.2-0.6,0.3-0.8c0.2-0.2,0.3-0.4,0.6-0.5c0.2-0.1,0.5-0.2,0.9-0.2c0.4,0,0.7,0,0.9,0.1
			s0.4,0.3,0.6,0.5c0.1,0.2,0.2,0.5,0.3,0.8c0.1,0.3,0.1,0.7,0.1,1.1c0,0.4,0,0.8-0.1,1.1c-0.1,0.3-0.2,0.6-0.3,0.8
			c-0.1,0.2-0.3,0.4-0.6,0.5c-0.2,0.1-0.5,0.2-0.9,0.2c-0.4,0-0.7,0-0.9-0.1c-0.2-0.1-0.4-0.3-0.6-0.5c-0.1-0.2-0.2-0.5-0.3-0.8
			c-0.1-0.3-0.1-0.7-0.1-1.1C100.6,44.6,100.6,44.2,100.7,43.9z M101.8,45.7c0,0.2,0,0.4,0.1,0.5s0.1,0.3,0.2,0.4
			c0.1,0.1,0.2,0.1,0.4,0.1c0.3,0,0.4-0.1,0.5-0.4c0.1-0.3,0.1-0.7,0.1-1.3s0-1-0.1-1.3c-0.1-0.3-0.3-0.4-0.5-0.4
			c-0.2,0-0.3,0-0.4,0.1s-0.2,0.2-0.2,0.4s-0.1,0.3-0.1,0.5c0,0.2,0,0.4,0,0.7S101.8,45.5,101.8,45.7z"/>
	</g>
	<g>
		<path d="M82.2,51.6v0.5h0c0.2-0.2,0.3-0.4,0.5-0.5c0.2-0.1,0.4-0.1,0.7-0.1c0.3,0,0.5,0.1,0.7,0.2s0.3,0.3,0.4,0.6h0
			c0.1-0.3,0.3-0.5,0.5-0.6s0.5-0.2,0.8-0.2c0.4,0,0.7,0.1,0.9,0.4c0.2,0.2,0.3,0.6,0.3,1.1v3.5h-1.2V53c0-0.2,0-0.4-0.1-0.5
			c-0.1-0.1-0.2-0.2-0.4-0.2c-0.2,0-0.4,0.1-0.5,0.2s-0.2,0.3-0.2,0.6v3.2h-1.2V53c0-0.2,0-0.4-0.1-0.5c-0.1-0.1-0.2-0.2-0.4-0.2
			c-0.2,0-0.4,0.1-0.5,0.2s-0.2,0.3-0.2,0.6v3.2H81v-4.8H82.2z"/>
		<path d="M88.9,54.6c0,0.1,0,0.3,0,0.4c0,0.1,0.1,0.3,0.1,0.4c0,0.1,0.1,0.2,0.2,0.3c0.1,0.1,0.2,0.1,0.3,0.1
			c0.2,0,0.4-0.1,0.5-0.2c0.1-0.1,0.2-0.4,0.2-0.7h1.1c0,0.6-0.2,1-0.4,1.3c-0.3,0.3-0.7,0.4-1.3,0.4c-0.5,0-0.8-0.1-1.1-0.2
			c-0.3-0.1-0.4-0.3-0.6-0.6c-0.1-0.2-0.2-0.5-0.2-0.8c0-0.3,0-0.6,0-0.9c0-0.3,0-0.6,0.1-0.9c0-0.3,0.1-0.6,0.3-0.8
			c0.1-0.2,0.3-0.4,0.6-0.6c0.3-0.1,0.6-0.2,1-0.2c0.4,0,0.7,0.1,0.9,0.2s0.4,0.3,0.5,0.5c0.1,0.2,0.2,0.5,0.3,0.8
			c0,0.3,0.1,0.6,0.1,1v0.3h-2.5V54.6z M90.1,53c0-0.1,0-0.3-0.1-0.4c0-0.1-0.1-0.2-0.2-0.2c-0.1-0.1-0.2-0.1-0.3-0.1
			c-0.1,0-0.2,0-0.3,0.1c-0.1,0.1-0.1,0.1-0.2,0.2c0,0.1-0.1,0.2-0.1,0.3c0,0.1,0,0.2,0,0.3v0.2h1.3C90.2,53.3,90.1,53.1,90.1,53z"
			/>
		<path d="M93.3,51.6v5.1c0,0.2,0,0.4-0.1,0.5c0,0.2-0.1,0.3-0.2,0.4c-0.1,0.1-0.3,0.2-0.4,0.2c-0.2,0.1-0.4,0.1-0.7,0.1
			c-0.1,0-0.1,0-0.2,0c-0.1,0-0.2,0-0.3,0v-0.9c0,0,0.1,0,0.1,0h0.1c0.2,0,0.3-0.1,0.4-0.2c0.1-0.1,0.1-0.3,0.1-0.6v-4.8H93.3z
			 M93.3,49.9V51H92v-1.1H93.3z"/>
		<path d="M94.1,52.9c0.1-0.3,0.2-0.6,0.3-0.8s0.3-0.4,0.6-0.5c0.2-0.1,0.5-0.2,0.9-0.2c0.4,0,0.7,0,0.9,0.1
			c0.2,0.1,0.4,0.3,0.6,0.5c0.1,0.2,0.2,0.5,0.3,0.8c0.1,0.3,0.1,0.7,0.1,1.1c0,0.4,0,0.8-0.1,1.1c-0.1,0.3-0.2,0.6-0.3,0.8
			s-0.3,0.4-0.6,0.5c-0.2,0.1-0.5,0.2-0.9,0.2c-0.4,0-0.7,0-0.9-0.1s-0.4-0.3-0.6-0.5s-0.2-0.5-0.3-0.8C94,54.8,94,54.4,94,54
			C94,53.6,94,53.2,94.1,52.9z M95.3,54.7c0,0.2,0,0.4,0.1,0.5s0.1,0.3,0.2,0.4c0.1,0.1,0.2,0.1,0.4,0.1c0.3,0,0.4-0.1,0.5-0.4
			c0.1-0.3,0.1-0.7,0.1-1.3s0-1-0.1-1.3c-0.1-0.3-0.3-0.4-0.5-0.4c-0.2,0-0.3,0-0.4,0.1c-0.1,0.1-0.2,0.2-0.2,0.4s-0.1,0.3-0.1,0.5
			c0,0.2,0,0.4,0,0.7S95.2,54.5,95.3,54.7z"/>
		<path d="M99.7,51.6v0.6h0c0.1-0.2,0.3-0.4,0.5-0.6s0.4-0.2,0.7-0.2c0,0,0.1,0,0.1,0s0.1,0,0.1,0v1.2c-0.1,0-0.1,0-0.2,0
			c-0.1,0-0.1,0-0.2,0c-0.1,0-0.2,0-0.3,0c-0.1,0-0.2,0.1-0.3,0.1s-0.2,0.2-0.2,0.3c-0.1,0.1-0.1,0.2-0.1,0.4v2.9h-1.2v-4.8H99.7z"
			/>
	</g>
	<path class="st0" d="M117.2,23.2l-2.5,7.4c31.5,10,54.4,40.5,54.4,76.6c0,18.8-6.2,36.2-16.7,49.8c4.2-8.7,6.6-18.5,6.6-28.9
		c0-27.4-16.5-50.9-40.1-61.1l-4.5,7.4c20,8.9,34,29.6,34,53.7c0,17.4-7.3,33-18.8,43.7c2.8-5.6,4.4-11.9,4.4-18.6
		c0-13.2-6.2-25-15.9-32.6l-5.4,4.9c8,6.4,13.2,16.4,13.2,27.7c0,13.3-7.1,24.8-17.6,30.7v-3.9l-10.8,6.2l-4.7,2.7l9.1,5.2l6.5,3.7
		v-4.7c40.8-7.5,71.7-43.2,71.7-86.2C179.9,67.4,153.4,33.9,117.2,23.2"/>
	<path class="st0" d="M58.9,153.2c0-5.9,1.4-11.5,3.9-16.4l4.4,4l2.4-13.1l0.9-5.2l-9.1,3l-8.1,2.7l3.7,3.3
		c-3.9,6.3-6.1,13.8-6.1,21.7c0,6.7,1.6,13,4.4,18.6c-11.5-10.7-18.8-26.3-18.8-43.7c0-18.7,8.4-35.4,21.5-46l2.8,4.6l5.2-10.1
		l3.3-6.4l-10.3,0.3l-7.9,0.2l2.2,3.5C36.5,86.4,25.7,106,25.7,128.2c0,10.3,2.4,20.1,6.6,28.9c-10.4-13.7-16.7-31-16.7-49.8
		c0-30.7,16.5-57.3,40.8-70.8l1.3,3.7l6.4-7.4l5.7-6.5l-9.1-0.7l-8.1-0.6l1.2,3.6c-29,14.3-49,44.1-49,78.6
		c0,47.8,38.3,86.7,85.9,87.6v-8.2c-4.6-0.1-9-0.9-13.3-2.1C66.4,178.7,58.9,166.9,58.9,153.2"/>
	<path d="M92.3,127c-1.6,0-3.2-0.2-4.7-0.7c-0.5-0.2-0.9-0.4-1.3-0.7c-0.5-0.3-0.7-0.8-0.7-1.4c0.2-2,1.7-3.8,3.7-4.2
		c0.1,0,0.3,0,0.5,0.1c1,0.7,2.1,0.8,3.2,0.7c0.7-0.1,1.3-0.3,1.9-0.7c0.1-0.1,0.3-0.1,0.4-0.1c2,0.4,3.5,2.1,3.7,4.1
		c0.1,0.8-0.2,1.4-0.9,1.8c-0.8,0.5-1.7,0.7-2.6,0.9c-0.5,0.1-1.1,0.2-1.6,0.2C93.4,126.9,92.8,127,92.3,127"/>
	<path d="M95.9,115.7c0.1,1.9-1.5,3.9-3.3,4.1c-0.8,0.1-1.6-0.2-2.2-0.7c-1.4-1.1-2-3.1-1.4-4.7c0.6-1.6,2.2-2.5,4-2.3
		c1.6,0.2,2.9,1.6,3,3.3C95.8,115.6,95.9,115.6,95.9,115.7"/>
	<path class="st1" d="M86.1,120.7c-1.1,1.3-1.6,2.7-1.5,4.4c-0.2,0-0.5,0.1-0.8,0.1c-1.9,0.2-3.7,0.1-5.5-0.5
		c-0.2-0.1-0.5-0.2-0.7-0.3c-0.6-0.4-0.8-0.7-0.7-1.5c0.2-1.5,1.3-2.7,2.8-3.1c0.2,0,0.3,0,0.5,0.1c1.3,0.7,2.5,0.7,3.8,0
		c0.1-0.1,0.3-0.1,0.4-0.1C85.1,120,85.6,120.3,86.1,120.7"/>
	<path class="st2" d="M99.9,125.1c0.1-1.7-0.4-3.1-1.5-4.4c0.5-0.5,1.1-0.7,1.8-0.9c0.1,0,0.2,0.1,0.2,0.1c1.3,0.8,2.6,0.8,3.9,0
		c0.1-0.1,0.2-0.1,0.4-0.1c1.7,0.3,3,1.9,2.9,3.6c0,0.2-0.1,0.4-0.3,0.6c-0.4,0.4-0.9,0.6-1.5,0.8C103.9,125.4,102,125.4,99.9,125.1
		C100,125.1,100,125.1,99.9,125.1"/>
	<path class="st1" d="M84.9,116.9c-0.1,1-0.6,1.9-1.6,2.6c-0.7,0.4-1.4,0.5-2.1,0.1c-1.5-0.7-2.3-2.7-1.6-4.1
		c0.6-1.2,1.9-1.9,3.2-1.6C84,114.2,84.9,115.3,84.9,116.9"/>
	<path class="st2" d="M99.6,116.6c0.1-1.2,0.6-2,1.7-2.5c1.1-0.5,2.1-0.3,3,0.4c0.9,0.8,1.2,1.8,0.8,3c-0.2,0.7-0.6,1.3-1.2,1.8
		c-0.9,0.7-2,0.7-2.9,0C100.1,118.6,99.7,117.7,99.6,116.6"/>
	<path class="st3" d="M100.1,25.5h-2.6v-2.6h2.6v-2.6h-2.6v-2.6h2.6v-2.6h-2.6v-2.2c-2.6,0.8-5.2,1.6-7.8,2.3V9.9h2.6V4.7h2.6v5.1
		h2.6V7.3h2.6v2.6h2.6v5.2h5.2v20.8H97.6v-2.6h2.6v-2.6h-2.6v-2.6h2.6V25.5z M102.8,28.1h2.6v-2.6h-2.6V28.1z M102.8,22.9h2.6v-2.6
		h-2.6V22.9z M105.3,30.8h-2.5v2.5h2.5V30.8z"/>
	<path class="st1" d="M94.9,26.6c-0.2,3.1-0.4,6.2-0.6,9.3c0,0.5,0,0.5-0.5,0.4c-1.5-0.1-2.9-0.2-4.4-0.3c-0.3,0-0.4-0.1-0.4-0.5
		c0.1-1,0.1-2.1,0.2-3.1c0-0.3-0.1-0.4-0.3-0.4c-0.6,0-1.3-0.1-1.9-0.1c-0.3,0-0.3,0.1-0.3,0.3c-0.1,1.1-0.1,2.1-0.2,3.2
		c0,0.3-0.1,0.3-0.4,0.3c-1.5-0.1-3-0.2-4.6-0.3c-0.3,0-0.3-0.1-0.3-0.3c0.3-5,0.6-10,0.9-15c0-0.2,0.1-0.3,0.3-0.3
		c3-0.7,6.1-1.4,9.1-2.1c1.1-0.3,2.3-0.5,3.4-0.8c0.4-0.1,0.4-0.1,0.4,0.3C95.3,20.4,95.1,23.5,94.9,26.6 M92.6,21.9
		c-0.8-0.1-1.6-0.1-2.4-0.1c-0.1,0-0.2,0.1-0.2,0.2c-0.1,0.7-0.1,1.4-0.1,2.1c0,0.2,0.1,0.3,0.3,0.3c0.5,0,1,0.1,1.5,0.1
		c0.3,0,0.5,0,0.8,0.1C92.5,23.6,92.5,22.8,92.6,21.9 M92.3,27.1c-0.8-0.1-1.6-0.1-2.4-0.1c-0.1,0-0.2,0.1-0.2,0.2
		c-0.1,0.7-0.1,1.4-0.1,2.1c0,0.2,0,0.3,0.2,0.3c0.7,0,1.4,0.1,2.1,0.1c0.2,0,0.2,0,0.2-0.2C92.2,28.7,92.2,27.9,92.3,27.1
		 M85.8,26.7c-0.3,0-0.7,0-1-0.1c-0.2,0-0.3,0-0.3,0.2c0,0.7-0.1,1.4-0.1,2c0,0.2,0,0.3,0.2,0.3c0.7,0,1.4,0.1,2.1,0.1
		c0.1,0,0.2-0.1,0.2-0.2c0.1-0.7,0.1-1.4,0.1-2.1c0-0.2-0.1-0.3-0.2-0.3C86.5,26.7,86.1,26.7,85.8,26.7"/>
	<path class="st4" d="M76.7,35.9v-0.4c0-6.3,0-12.5,0-18.8c0-0.3,0.1-0.4,0.3-0.6c2.1-1.6,4.1-3.3,6.2-5c0.3,0.2,0.5,0.4,0.8,0.6
		c1,0.8,2,1.6,2.9,2.4c0.1,0.1,0.2,0.3,0.2,0.4c0,0.4,0,0.8,0,1.1c0,0.2-0.1,0.3-0.3,0.4c-2.5,0.7-5,1.5-7.5,2.3v17.5H76.7z"/>
	<rect x="102.8" y="25.6" class="st5" width="2.6" height="2.6"/>
	<rect x="102.8" y="20.4" class="st5" width="2.6" height="2.6"/>
	<rect x="102.8" y="30.8" class="st5" width="2.5" height="2.5"/>
	<path class="st5" d="M92.3,21.6v2.6h-0.8c-0.5,0-1,0-1.5,0c-0.2,0-0.3-0.1-0.3-0.3c0-0.7,0-1.4,0-2.1c0-0.1,0.1-0.2,0.2-0.2
		C90.7,21.6,91.5,21.6,92.3,21.6"/>
	<path class="st5" d="M92.3,26.8c0,0.8,0,1.6,0,2.4c0,0.2-0.1,0.2-0.2,0.2c-0.7,0-1.4,0-2.1,0c-0.2,0-0.2-0.1-0.2-0.3
		c0-0.7,0-1.4,0-2.1c0-0.1,0.1-0.2,0.2-0.2C90.7,26.8,91.5,26.8,92.3,26.8"/>
	<path class="st5" d="M85.8,26.8c0.3,0,0.7,0,1,0c0.2,0,0.3,0.1,0.3,0.2c0,0.7,0,1.4,0,2.1c0,0.1-0.1,0.2-0.2,0.2
		c-0.7,0-1.4,0-2.1,0c-0.2,0-0.3-0.1-0.3-0.3c0-0.7,0-1.4,0-2c0-0.2,0.1-0.3,0.3-0.3C85.1,26.9,85.5,26.8,85.8,26.8"/>
	<path d="M86.6,75.6c0.2-0.3-0.2-0.8-0.9-1.3c-3.5-2.5-7.3-3.9-12-4.3l0,0c-0.3-0.1-0.5-0.3-0.6-0.5c-0.1-0.2-0.1-0.4,0-0.6
		c-0.7-0.1-1.3-0.1-1.9-0.1l1.3,1.5c3,0.1,9.7,0.9,13.5,5.3c0,0.4-1.2,0.2-2.2,0C85.5,76,86.4,75.9,86.6,75.6"/>
	<path d="M91.3,76.2c-0.6-4.2-11.7-6.8-18-7.3c-0.1,0.2-0.1,0.4,0,0.5c0.1,0.2,0.2,0.3,0.5,0.4c4.7,0.5,8.5,1.9,12,4.4
		c1,0.8,1.1,1.3,0.9,1.5c-0.1,0.2-0.5,0.3-0.9,0.3c-0.7,0-1.6-0.2-2.8-0.6l0-0.1c-0.3-0.1-0.4-0.2-0.2-0.2l0.9-0.2l-2.6-1.6
		l-4.9,0.2l9,5.2H87l-6.6-3.5h0.9l0,0c3.7,1.6,5.8,1.6,8.2,1.6c0.5,0,1.1,0,1.7,0C91.3,76.7,91.4,76.4,91.3,76.2"/>
	<path d="M81.2,75.3h-0.4l6.6,3.5h-2.3l0,0L76,73.5l-1.6,0.1l10.8,6.1l3.7-0.7l-4.4-2.2c2.9,1,5.9,1.2,6.7,0.2c-0.6,0-1.1,0-1.6,0
		C87,77,84.9,77,81.2,75.3"/>
	<path d="M97.5,78.8h-2.3l6.6-3.5h-0.4C97.7,77,95.6,77,93,77c-0.5,0-1,0-1.5,0c0.8,1.1,3.8,0.9,6.7-0.2L93.8,79l3.6,0.7l10.8-6.1
		l-1.6-0.1L97.5,78.8z"/>
	<path d="M109.5,68.9c0.1,0.2,0.1,0.4,0.1,0.6c-0.1,0.2-0.3,0.4-0.6,0.5l0,0c-4.7,0.5-8.5,1.9-12,4.3c-0.8,0.6-1.2,1.1-1,1.4
		c0.2,0.3,1.4,0.4,3.4-0.3l0.1,0.1c-1.1,0.4-2,0.6-2.7,0.6c-0.5,0-0.8-0.1-0.9-0.3c-0.2-0.3,0.1-0.9,1-1.6c3.5-2.5,7.3-3.9,12.1-4.4
		c0.3-0.1,0.5-0.2,0.5-0.4c0.1-0.1,0-0.3-0.1-0.5c-6.3,0.6-17.4,3.2-18,7.3c0,0.2,0,0.5,0.1,0.6c0.6,0,1.1,0,1.6,0
		c2.5,0,4.7,0,8.3-1.6l0,0h0.9l-6.6,3.5h1.7l9-5.2l-4.8-0.2l-2.6,1.6l0.9,0.2c0.7,0.2-3.3,1.1-3.2,0.4c3.8-4.4,10.5-5.1,13.5-5.3
		l1.4-1.5C110.8,68.8,110.2,68.8,109.5,68.9"/>
</g>
</svg>
