<?xml version="1.0" encoding="utf-8"?>
<!-- Generator: Adobe Illustrator 23.0.4, SVG Export Plug-In . SVG Version: 6.00 Build 0)  -->
<svg version="1.1" id="Capa_1" xmlns="http://www.w3.org/2000/svg" xmlns:xlink="http://www.w3.org/1999/xlink" x="0px" y="0px"
	 viewBox="0 0 403.6 398.3" style="enable-background:new 0 0 403.6 398.3;" xml:space="preserve">
<style type="text/css">
	.st0{fill:#616160;}
	.st1{fill:#3A3A3A;}
	.st2{fill:#2E2E2F;}
	.st3{fill:#28412F;}
	.st4{fill:#467255;}
	.st5{fill:#6CAF84;}
	.st6{fill:#616160;stroke:#616160;stroke-width:5.000000e-02;stroke-miterlimit:10;}
	.st7{fill:#FFFFFF;}
</style>
<path class="st0" d="M113.5,203.1h-95c0.5,63.8,35.6,119.4,87.4,149l47.5-82.2C130,256.7,114,231.8,113.5,203.1z"/>
<path class="st1" d="M230.8,269.3c-11.5,6.7-24.9,10.5-39.2,10.5c-13.9,0-26.9-3.6-38.2-10l-46.6,25.2l-0.9,57
	c25.3,14.4,54.5,22.7,85.7,22.7c31.6,0,61.3-8.5,86.8-23.3L230.8,269.3z"/>
<path class="st2" d="M269.7,203.1c-0.5,28.3-16,52.9-38.9,66.2l6.2,49.2l41.4,33c51.2-29.7,85.8-85,86.3-148.4H269.7z"/>
<path class="st3" d="M279.2,52.3l-47.5,82.2c22.8,13.6,38.1,38.6,38.1,67.1c0,0.5,0,1,0,1.4l49.9,19l45.1-19c0-0.5,0-1,0-1.4
	C364.7,138,330.4,82.4,279.2,52.3z"/>
<path class="st4" d="M191.6,28.6c-31.6,0-61.2,8.5-86.7,23.3l47.6,82.2c11.5-6.7,24.9-10.5,39.1-10.5c14.6,0,28.3,4,40,11l46.7-25.4
	l0.9-56.8C253.5,37.2,223.6,28.6,191.6,28.6z"/>
<path class="st5" d="M152.5,134.1l-6.4-55.9l-41.2-26.3c-51.6,30-86.4,85.8-86.4,149.8c0,0.5,0,1,0,1.4h95c0-0.5,0-1,0-1.4
	C113.5,172.8,129.1,147.6,152.5,134.1z"/>
<polygon class="st6" points="18.5,203.1 67.6,182.2 113.5,203.1 "/>
<g>
	<g>
		<path d="M175.6,206.3c0.6-0.9-0.6-2.5-3.1-4.5c-11.8-8.4-24.7-13.1-40.7-14.7l0,0c-1-0.3-1.7-0.9-2-1.7c-0.2-0.6-0.2-1.2,0.1-1.9
			c-2.3-0.2-4.4-0.3-6.3-0.3l4.6,5c10.3,0.4,32.8,2.9,45.8,17.8c0.1,1.3-4.1,0.8-7.4,0.1C171.7,207.5,174.9,207.4,175.6,206.3z"/>
		<path d="M191.6,208.4c-2.1-14.1-39.7-23-61.2-24.8c-0.3,0.6-0.3,1.2-0.1,1.7c0.2,0.6,0.8,1.1,1.7,1.4c16,1.6,29,6.3,40.9,14.8
			c3.5,2.8,3.7,4.3,3.2,5.1c-0.4,0.7-1.5,1-3.1,1c-2.3,0-5.6-0.7-9.3-2.1l0.1-0.3c-0.9-0.3-1.3-0.6-0.7-0.8l2.9-0.7l-8.9-5.4
			l-16.5,0.8l30.4,17.7h5.9L154.3,205h3l0,0c12.4,5.5,19.6,5.5,28,5.5c1.9,0,3.8,0,5.9,0.1C191.5,209.9,191.7,209.2,191.6,208.4z"/>
		<path d="M157.3,205.4h-1.2l22.4,11.8h-7.7l-0.1,0l-31-18l-5.4,0.3l36.6,20.7l12.4-2.4l-15-7.4c9.7,3.5,20.1,4.2,22.7,0.5
			c-2,0-3.8,0-5.6,0C177,210.9,169.7,210.9,157.3,205.4z"/>
	</g>
	<g>
		<path d="M212.3,217.3h-7.7l22.4-11.8h-1.2c-12.5,5.5-19.9,5.5-28.5,5.5c-1.6,0-3.3,0-5.1,0c2.6,3.7,13,3,22.6-0.5l-14.9,7.4
			l12.3,2.4l36.6-20.7l-5.4-0.3L212.3,217.3z"/>
		<path d="M253.2,183.5c0.3,0.7,0.4,1.3,0.2,1.9c-0.3,0.8-1,1.3-2.1,1.7l0,0c-15.9,1.6-28.8,6.3-40.7,14.7c-2.7,2.1-3.9,3.9-3.3,4.8
			c0.8,1.2,4.7,1.3,11.6-1.2l0.2,0.4c-3.7,1.3-6.9,2-9.1,2c-1.6,0-2.6-0.3-3.1-1c-0.7-1.2,0.4-3,3.4-5.4
			c11.9-8.5,24.9-13.2,40.9-14.8c1-0.3,1.6-0.8,1.8-1.4c0.2-0.5,0.1-1.1-0.2-1.7c-21.5,1.9-59.1,10.7-61.1,24.8
			c-0.1,0.8,0,1.6,0.3,2.2c1.9,0,3.7,0,5.4,0c8.5,0,15.9,0,28.3-5.5l0,0h3l-22.4,11.8h5.9l30.4-17.7l-16.4-0.8l-8.9,5.4l2.9,0.7
			c2.3,0.5-11.2,3.8-11,1.5c12.9-14.9,35.5-17.4,45.7-17.8l4.7-5C257.7,183.2,255.6,183.3,253.2,183.5z"/>
	</g>
</g>
<g>
	<path d="M21.9,108c-0.4-0.4-0.6-0.9-0.8-1.4c-0.2-0.5-0.2-1-0.1-1.6c0.1-0.6,0.3-1.1,0.7-1.7c0.4-0.6,0.8-1,1.3-1.3
		c0.5-0.3,1-0.5,1.5-0.5c0.5-0.1,1.1,0,1.6,0.2c0.5,0.2,1.1,0.4,1.5,0.7c0.5,0.3,0.9,0.7,1.2,1.1c0.4,0.4,0.6,0.9,0.8,1.4
		c0.2,0.5,0.2,1,0.1,1.6c-0.1,0.6-0.3,1.1-0.7,1.7c-0.4,0.6-0.8,1-1.3,1.3c-0.5,0.3-1,0.5-1.5,0.5c-0.5,0.1-1.1,0-1.6-0.2
		c-0.5-0.2-1-0.4-1.5-0.7C22.7,108.9,22.3,108.5,21.9,108z M25,108.8c0.4,0.1,0.8,0.2,1.2,0.2c0.4,0,0.8-0.1,1.2-0.3
		c0.4-0.2,0.7-0.5,1-0.9c0.3-0.4,0.4-0.9,0.5-1.3c0-0.4,0-0.8-0.2-1.2c-0.1-0.4-0.4-0.7-0.6-1.1c-0.3-0.3-0.6-0.6-1-0.8
		c-0.4-0.2-0.7-0.4-1.1-0.6c-0.4-0.1-0.8-0.2-1.2-0.2c-0.4,0-0.8,0.1-1.2,0.3c-0.4,0.2-0.7,0.5-1,0.9c-0.3,0.4-0.4,0.9-0.5,1.3
		c0,0.4,0,0.8,0.2,1.2c0.1,0.4,0.4,0.7,0.6,1.1c0.3,0.3,0.6,0.6,1,0.8C24.2,108.5,24.6,108.7,25,108.8z"/>
	<path d="M28.7,97.7l0.7,0.5l0,0c-0.2-0.3-0.2-0.7-0.1-1.1c0.1-0.4,0.3-0.7,0.5-1.1c0.3-0.4,0.6-0.7,0.9-0.8
		c0.3-0.2,0.7-0.3,1.1-0.3c0.4,0,0.8,0,1.1,0.2c0.4,0.1,0.8,0.3,1.1,0.6s0.7,0.5,0.9,0.9c0.2,0.3,0.4,0.7,0.5,1
		c0.1,0.4,0.1,0.7,0,1.1c-0.1,0.4-0.2,0.8-0.5,1.1c-0.1,0.1-0.2,0.2-0.3,0.4c-0.1,0.1-0.3,0.2-0.4,0.4c-0.2,0.1-0.3,0.2-0.5,0.2
		c-0.2,0.1-0.4,0.1-0.6,0.1l0,0l2.6,1.9l-0.6,0.8l-6.9-5L28.7,97.7z M32.6,96.1c-0.3-0.1-0.5-0.2-0.8-0.2c-0.3,0-0.5,0.1-0.8,0.2
		c-0.2,0.1-0.5,0.3-0.7,0.6c-0.2,0.3-0.3,0.5-0.3,0.8c0,0.3,0,0.5,0.1,0.8c0.1,0.2,0.2,0.5,0.4,0.7c0.2,0.2,0.4,0.4,0.6,0.6
		c0.2,0.2,0.5,0.3,0.8,0.4c0.3,0.1,0.5,0.2,0.8,0.2c0.3,0,0.5-0.1,0.8-0.2c0.2-0.1,0.5-0.3,0.7-0.6c0.2-0.3,0.3-0.6,0.3-0.8
		c0-0.3,0-0.5-0.1-0.8c-0.1-0.2-0.2-0.5-0.4-0.7c-0.2-0.2-0.4-0.4-0.7-0.6C33.1,96.3,32.9,96.2,32.6,96.1z"/>
	<path d="M35.2,89.1l0.7,0.5l-0.7,1l3,2.3c0.1,0.1,0.2,0.1,0.2,0.2c0.1,0,0.1,0,0.2,0s0.1-0.1,0.2-0.1c0.1-0.1,0.2-0.2,0.2-0.3
		l0.3-0.4l0.7,0.5l-0.5,0.6c-0.2,0.2-0.3,0.4-0.5,0.5c-0.1,0.1-0.3,0.2-0.4,0.2c-0.1,0-0.3,0-0.5,0c-0.2-0.1-0.4-0.2-0.6-0.4
		l-3.1-2.4l-0.6,0.8l-0.7-0.5l0.6-0.8l-1.5-1.1l0.6-0.8l1.5,1.1L35.2,89.1z"/>
	<path d="M36.4,85.7l-1-0.8l0.6-0.8l1,0.8L36.4,85.7z M37.9,85.7l4.8,3.8l-0.6,0.8l-4.8-3.8L37.9,85.7z"/>
	<path d="M40.9,82l0.7,0.6l0,0c-0.2-0.8-0.1-1.5,0.5-2.2c0.2-0.3,0.5-0.5,0.9-0.6c0.3-0.1,0.7-0.1,1,0c-0.1-0.4-0.1-0.7-0.1-1.1
		c0.1-0.4,0.2-0.7,0.5-1c0.2-0.2,0.4-0.4,0.6-0.6c0.2-0.1,0.4-0.2,0.7-0.3c0.2,0,0.5,0,0.7,0c0.2,0.1,0.5,0.2,0.7,0.4l3.4,2.9
		l-0.7,0.8l-3.1-2.6c-0.1-0.1-0.3-0.2-0.4-0.3c-0.1-0.1-0.3-0.1-0.4-0.1c-0.2,0-0.3,0-0.5,0.1c-0.2,0.1-0.3,0.2-0.5,0.4
		c-0.3,0.4-0.5,0.8-0.4,1.2c0,0.4,0.2,0.8,0.6,1.1L48,83l-0.7,0.8l-3.1-2.6c-0.2-0.1-0.3-0.2-0.5-0.3c-0.2-0.1-0.3-0.1-0.5-0.1
		c-0.1,0-0.3,0-0.4,0.1c-0.1,0.1-0.3,0.2-0.4,0.4c-0.2,0.2-0.3,0.5-0.4,0.7c0,0.2,0,0.5,0,0.7c0,0.2,0.1,0.4,0.2,0.6
		c0.1,0.2,0.2,0.3,0.3,0.4l2.9,2.5l-0.7,0.8l-4.7-4L40.9,82z"/>
	<path d="M47.6,72.6l-0.9-0.8l0.7-0.7l0.9,0.8L47.6,72.6z M49.1,72.6l4.5,4.1l-0.7,0.7l-4.5-4.1L49.1,72.6z"/>
	<path d="M54.4,68.2l-2.4,2.5l-0.6-0.6l3.3-3.4l0.5,0.5l0.7,5.9l2.7-2.8l0.6,0.6l-3.6,3.7l-0.6-0.5L54.4,68.2z"/>
	<path d="M65.3,64.8c-0.1,0.2-0.2,0.4-0.4,0.6c-0.2,0.2-0.4,0.3-0.6,0.3c-0.2,0-0.4-0.1-0.7-0.4c0,0.4,0,0.8-0.2,1.2
		c-0.2,0.4-0.4,0.7-0.7,1c-0.2,0.2-0.4,0.4-0.6,0.5c-0.2,0.1-0.4,0.2-0.7,0.2c-0.2,0-0.5,0-0.7-0.1c-0.2-0.1-0.5-0.2-0.7-0.5
		c-0.2-0.2-0.4-0.5-0.5-0.7c-0.1-0.2-0.1-0.5,0-0.7c0-0.2,0.1-0.5,0.3-0.7c0.1-0.2,0.3-0.4,0.4-0.7c0.2-0.2,0.3-0.4,0.5-0.6
		c0.2-0.2,0.3-0.4,0.4-0.5c0.1-0.2,0.2-0.3,0.2-0.5c0-0.1-0.1-0.3-0.2-0.4c-0.2-0.2-0.3-0.3-0.5-0.3c-0.2,0-0.3,0-0.4,0
		c-0.1,0-0.3,0.1-0.4,0.2c-0.1,0.1-0.3,0.2-0.4,0.3c-0.3,0.3-0.5,0.6-0.6,0.9c-0.1,0.3,0,0.6,0.3,1l-0.7,0.7
		c-0.3-0.3-0.4-0.6-0.5-0.9c-0.1-0.3-0.1-0.6,0-0.9c0.1-0.3,0.2-0.6,0.3-0.8c0.2-0.3,0.4-0.5,0.6-0.8c0.2-0.2,0.4-0.4,0.6-0.5
		c0.2-0.2,0.5-0.3,0.7-0.3c0.2-0.1,0.5-0.1,0.7,0c0.3,0.1,0.5,0.2,0.8,0.5l2.2,2.3c0.2,0.2,0.3,0.3,0.4,0.3c0.1,0.1,0.2,0,0.3-0.1
		c0.1-0.1,0.1-0.1,0.2-0.2L65.3,64.8z M61.9,63.7c0,0.2-0.1,0.3-0.2,0.5c-0.1,0.2-0.2,0.4-0.4,0.5c-0.1,0.2-0.3,0.4-0.4,0.5
		c-0.1,0.2-0.2,0.4-0.3,0.6c-0.1,0.2-0.1,0.4-0.1,0.6c0,0.2,0.1,0.4,0.3,0.5c0.1,0.1,0.2,0.2,0.4,0.2c0.1,0,0.3,0,0.4,0
		c0.1,0,0.3-0.1,0.4-0.2c0.1-0.1,0.2-0.2,0.4-0.3c0.2-0.2,0.4-0.5,0.5-0.7c0.1-0.2,0.2-0.4,0.2-0.7c0-0.2,0-0.4-0.1-0.6
		c-0.1-0.2-0.1-0.3-0.2-0.4L61.9,63.7z"/>
	<path d="M64,57.6l0.9,1l0,0c-0.2-0.5-0.2-1-0.1-1.4s0.4-0.8,0.8-1.2l0.7,0.8c-0.3,0.3-0.5,0.5-0.6,0.8c-0.1,0.3-0.2,0.5-0.2,0.8
		c0,0.3,0.1,0.6,0.3,0.8c0.1,0.3,0.4,0.6,0.6,0.9l1.9,2l-0.7,0.7l-4.2-4.5L64,57.6z"/>
	<path d="M72.7,49.9l0.6,0.7l0,0c-0.1-0.8,0.2-1.5,0.9-2.1c0.3-0.2,0.6-0.4,0.9-0.5c0.3-0.1,0.7,0,1,0.2c-0.1-0.4,0-0.8,0.1-1.1
		c0.1-0.4,0.4-0.7,0.7-0.9c0.2-0.2,0.5-0.3,0.7-0.4c0.2-0.1,0.5-0.2,0.7-0.2c0.2,0,0.5,0.1,0.7,0.2c0.2,0.1,0.4,0.3,0.6,0.5l2.8,3.5
		l-0.8,0.6l-2.5-3.1c-0.1-0.1-0.2-0.3-0.4-0.4c-0.1-0.1-0.3-0.2-0.4-0.2c-0.1,0-0.3,0-0.5,0c-0.2,0-0.3,0.1-0.5,0.3
		c-0.4,0.3-0.6,0.7-0.6,1.1c0,0.4,0.1,0.8,0.4,1.2l2.4,3l-0.8,0.6l-2.5-3.1c-0.1-0.2-0.3-0.3-0.4-0.4c-0.1-0.1-0.3-0.2-0.4-0.2
		c-0.1,0-0.3,0-0.5,0c-0.2,0-0.3,0.1-0.5,0.3c-0.2,0.2-0.4,0.4-0.5,0.6c-0.1,0.2-0.1,0.4-0.1,0.7c0,0.2,0,0.4,0.1,0.6
		c0.1,0.2,0.1,0.3,0.2,0.4l2.4,3l-0.8,0.6L72,50.5L72.7,49.9z"/>
	<path d="M89.7,44.5c-0.1,0.2-0.2,0.4-0.5,0.6c-0.2,0.2-0.4,0.2-0.6,0.2c-0.2,0-0.4-0.2-0.6-0.4c0,0.4-0.1,0.8-0.4,1.2
		c-0.2,0.3-0.5,0.6-0.8,0.9c-0.2,0.2-0.5,0.3-0.7,0.4c-0.2,0.1-0.5,0.1-0.7,0.1c-0.2,0-0.4-0.1-0.7-0.2c-0.2-0.1-0.4-0.3-0.6-0.5
		c-0.2-0.3-0.3-0.5-0.4-0.8c0-0.2,0-0.5,0.1-0.7c0.1-0.2,0.2-0.4,0.3-0.6c0.2-0.2,0.3-0.4,0.5-0.6c0.2-0.2,0.4-0.4,0.6-0.6
		c0.2-0.2,0.3-0.3,0.5-0.5c0.1-0.2,0.2-0.3,0.2-0.4c0-0.1,0-0.3-0.1-0.4c-0.1-0.2-0.3-0.3-0.4-0.4c-0.1-0.1-0.3-0.1-0.4-0.1
		c-0.1,0-0.3,0.1-0.4,0.1c-0.1,0.1-0.3,0.2-0.4,0.3c-0.3,0.3-0.6,0.5-0.7,0.8c-0.1,0.3-0.1,0.6,0.2,1l-0.8,0.6
		c-0.2-0.3-0.3-0.6-0.4-0.9c0-0.3,0-0.6,0.1-0.8c0.1-0.3,0.2-0.5,0.4-0.8c0.2-0.2,0.4-0.5,0.7-0.7c0.2-0.2,0.5-0.3,0.7-0.4
		c0.2-0.1,0.5-0.2,0.7-0.2c0.3,0,0.5,0,0.7,0.1c0.2,0.1,0.5,0.3,0.7,0.6l1.9,2.5c0.1,0.2,0.3,0.3,0.3,0.4c0.1,0.1,0.2,0.1,0.3,0
		c0.1-0.1,0.1-0.1,0.2-0.2L89.7,44.5z M86.5,42.9c0,0.2-0.1,0.3-0.3,0.5c-0.1,0.2-0.3,0.3-0.5,0.5c-0.2,0.2-0.3,0.3-0.5,0.5
		c-0.2,0.2-0.3,0.3-0.4,0.5c-0.1,0.2-0.2,0.3-0.2,0.5c0,0.2,0.1,0.4,0.2,0.6c0.1,0.1,0.2,0.2,0.3,0.3c0.1,0.1,0.2,0.1,0.4,0.1
		c0.1,0,0.3,0,0.4-0.1c0.1-0.1,0.3-0.1,0.4-0.2c0.3-0.2,0.5-0.4,0.6-0.6c0.1-0.2,0.2-0.4,0.3-0.6c0-0.2,0-0.4,0-0.6
		c0-0.2-0.1-0.3-0.2-0.4L86.5,42.9z"/>
	<path d="M90.9,36.2l0.5,0.7l-1,0.7l2.2,3.2c0.1,0.1,0.1,0.2,0.2,0.2c0.1,0,0.1,0.1,0.2,0.1c0.1,0,0.1,0,0.2-0.1s0.2-0.1,0.3-0.2
		l0.4-0.3l0.5,0.7l-0.6,0.4c-0.2,0.1-0.4,0.3-0.6,0.3s-0.3,0.1-0.5,0.1c-0.1,0-0.3-0.1-0.4-0.2c-0.1-0.1-0.3-0.3-0.5-0.5l-2.2-3.2
		l-0.9,0.6l-0.5-0.7l0.9-0.6L88,36l0.8-0.6l1,1.5L90.9,36.2z"/>
	<path d="M100.4,36.9c-0.2,0.5-0.6,1-1.2,1.4c-0.4,0.3-0.8,0.4-1.2,0.5c-0.4,0.1-0.8,0-1.1-0.1c-0.4-0.1-0.7-0.3-1-0.6
		c-0.3-0.3-0.6-0.6-0.9-1c-0.2-0.4-0.4-0.8-0.5-1.2c-0.1-0.4-0.1-0.8,0-1.2c0.1-0.4,0.2-0.7,0.4-1.1c0.2-0.3,0.5-0.6,0.8-0.8
		c0.5-0.3,0.9-0.4,1.3-0.4c0.4,0,0.8,0.1,1.2,0.3c0.4,0.2,0.7,0.4,1,0.7c0.3,0.3,0.5,0.6,0.7,0.9l-3.9,2.4c0.1,0.2,0.3,0.4,0.5,0.6
		c0.2,0.2,0.4,0.3,0.6,0.4s0.5,0.1,0.7,0.1c0.3,0,0.5-0.1,0.8-0.3c0.4-0.2,0.6-0.5,0.7-0.8c0.1-0.3,0.1-0.7,0-1.1l0.8-0.5
		C100.6,35.8,100.6,36.4,100.4,36.9z M98.1,33.7c-0.2-0.1-0.4-0.2-0.6-0.3c-0.2,0-0.4-0.1-0.7,0c-0.2,0-0.4,0.1-0.7,0.3
		c-0.2,0.1-0.4,0.3-0.5,0.5c-0.1,0.2-0.2,0.4-0.3,0.6c0,0.2,0,0.4,0,0.7c0,0.2,0.1,0.4,0.2,0.7l3-1.9C98.4,34,98.3,33.9,98.1,33.7z"
		/>
	<path d="M101.8,29.4l0.7,1.1l0,0c0-0.6,0-1,0.2-1.4s0.5-0.7,1-1l0.5,0.9c-0.3,0.2-0.6,0.4-0.8,0.7c-0.2,0.2-0.3,0.5-0.3,0.8
		c0,0.3,0,0.6,0.1,0.9c0.1,0.3,0.2,0.6,0.4,1l1.4,2.4l-0.9,0.5l-3.1-5.3L101.8,29.4z"/>
	<path d="M105.9,25.8l-0.6-1.1l0.9-0.5l0.6,1.1L105.9,25.8z M107.3,26.3l2.9,5.4l-0.9,0.5l-2.9-5.4L107.3,26.3z"/>
	<path d="M118.2,27.6c-0.1,0.2-0.3,0.3-0.6,0.5c-0.2,0.1-0.5,0.1-0.7,0.1c-0.2-0.1-0.4-0.2-0.5-0.5c-0.1,0.4-0.3,0.8-0.5,1.1
		c-0.3,0.3-0.6,0.5-1,0.7c-0.2,0.1-0.5,0.2-0.7,0.3c-0.3,0.1-0.5,0.1-0.7,0c-0.2,0-0.4-0.1-0.6-0.3c-0.2-0.1-0.4-0.4-0.5-0.6
		c-0.2-0.3-0.2-0.6-0.2-0.8c0-0.3,0.1-0.5,0.2-0.7c0.1-0.2,0.3-0.4,0.5-0.6c0.2-0.2,0.4-0.3,0.6-0.5c0.2-0.2,0.4-0.3,0.6-0.5
		c0.2-0.1,0.4-0.3,0.5-0.4c0.1-0.1,0.2-0.3,0.3-0.4c0.1-0.1,0-0.3,0-0.5c-0.1-0.2-0.2-0.3-0.3-0.4c-0.1-0.1-0.3-0.1-0.4-0.1
		c-0.1,0-0.3,0-0.5,0.1c-0.2,0.1-0.3,0.1-0.4,0.2c-0.4,0.2-0.7,0.4-0.8,0.7c-0.2,0.3-0.2,0.6,0,1l-0.9,0.4c-0.2-0.3-0.2-0.7-0.2-1
		c0-0.3,0.1-0.6,0.2-0.8c0.1-0.3,0.3-0.5,0.6-0.7c0.2-0.2,0.5-0.4,0.8-0.5c0.2-0.1,0.5-0.2,0.8-0.3c0.3-0.1,0.5-0.1,0.8-0.1
		c0.3,0,0.5,0.1,0.7,0.2c0.2,0.1,0.4,0.4,0.6,0.7l1.4,2.8c0.1,0.2,0.2,0.4,0.3,0.4c0.1,0.1,0.2,0.1,0.3,0c0.1,0,0.2-0.1,0.3-0.2
		L118.2,27.6z M115.3,25.5c-0.1,0.1-0.2,0.3-0.4,0.4c-0.2,0.1-0.3,0.3-0.5,0.4c-0.2,0.1-0.4,0.3-0.6,0.4c-0.2,0.1-0.3,0.3-0.5,0.4
		c-0.1,0.2-0.2,0.3-0.2,0.5c0,0.2,0,0.4,0.1,0.6c0.1,0.1,0.2,0.3,0.3,0.3c0.1,0.1,0.2,0.1,0.4,0.1c0.1,0,0.3,0,0.4,0
		c0.1,0,0.3-0.1,0.4-0.2c0.3-0.1,0.5-0.3,0.7-0.5c0.2-0.2,0.3-0.4,0.4-0.6c0.1-0.2,0.1-0.4,0.1-0.6c0-0.2,0-0.3-0.1-0.5L115.3,25.5z
		"/>
	<path d="M118.4,18.2l3.5,7.7l-0.9,0.4l-3.5-7.7L118.4,18.2z"/>
	<path d="M129,22.5c-0.3,0.5-0.8,0.9-1.4,1.1c-0.5,0.2-0.9,0.3-1.3,0.3c-0.4,0-0.8-0.1-1.1-0.3c-0.3-0.2-0.6-0.4-0.9-0.7
		c-0.3-0.3-0.5-0.7-0.7-1.1c-0.2-0.4-0.3-0.9-0.3-1.3c0-0.4,0-0.8,0.2-1.2c0.1-0.4,0.3-0.7,0.6-1c0.3-0.3,0.6-0.5,1-0.7
		c0.5-0.2,1-0.3,1.4-0.2c0.4,0.1,0.8,0.2,1.1,0.5c0.3,0.2,0.6,0.5,0.8,0.9c0.2,0.4,0.4,0.7,0.5,1.1l-4.2,1.7
		c0.1,0.3,0.2,0.5,0.4,0.7c0.2,0.2,0.3,0.4,0.6,0.5c0.2,0.1,0.5,0.2,0.7,0.2c0.3,0,0.6,0,0.9-0.2c0.4-0.2,0.7-0.4,0.9-0.7
		c0.2-0.3,0.2-0.6,0.2-1l0.9-0.4C129.4,21.4,129.3,22,129,22.5z M127.3,19c-0.2-0.2-0.3-0.3-0.5-0.4c-0.2-0.1-0.4-0.1-0.6-0.1
		c-0.2,0-0.5,0-0.7,0.1c-0.2,0.1-0.4,0.2-0.6,0.4c-0.2,0.2-0.3,0.3-0.4,0.5c-0.1,0.2-0.1,0.4-0.1,0.6c0,0.2,0,0.5,0.1,0.7l3.3-1.3
		C127.6,19.3,127.5,19.1,127.3,19z"/>
	<path d="M133.2,19.9c0.1,0.1,0.3,0.2,0.5,0.2c0.2,0,0.4,0,0.6,0c0.2,0,0.4-0.1,0.6-0.1c0.1-0.1,0.3-0.1,0.5-0.2
		c0.2-0.1,0.3-0.2,0.4-0.3c0.1-0.1,0.2-0.2,0.2-0.4c0-0.1,0-0.3,0-0.5c-0.1-0.2-0.2-0.4-0.5-0.5c-0.2-0.1-0.5-0.1-0.8-0.1
		c-0.3,0-0.6,0.1-1,0.1c-0.4,0.1-0.7,0.1-1,0c-0.3,0-0.6-0.1-0.9-0.2c-0.3-0.1-0.5-0.4-0.6-0.8c-0.1-0.3-0.1-0.6-0.1-0.8
		c0.1-0.3,0.2-0.5,0.3-0.7c0.2-0.2,0.4-0.4,0.6-0.5c0.2-0.2,0.5-0.3,0.7-0.4c0.3-0.1,0.6-0.2,0.9-0.2c0.3,0,0.6,0,0.8,0
		c0.3,0.1,0.5,0.2,0.7,0.4c0.2,0.2,0.4,0.5,0.5,0.8l-1,0.3c-0.1-0.2-0.2-0.3-0.3-0.4c-0.1-0.1-0.3-0.2-0.4-0.2c-0.2,0-0.3,0-0.5,0
		c-0.2,0-0.3,0.1-0.5,0.1c-0.1,0-0.3,0.1-0.4,0.2s-0.3,0.2-0.4,0.3c-0.1,0.1-0.2,0.2-0.2,0.3c0,0.1,0,0.3,0,0.4
		c0.1,0.2,0.2,0.3,0.3,0.3c0.2,0.1,0.3,0.1,0.5,0.1c0.2,0,0.4,0,0.7,0c0.2,0,0.5-0.1,0.7-0.1c0.3,0,0.5,0,0.8-0.1
		c0.3,0,0.5,0,0.7,0.1c0.2,0.1,0.4,0.2,0.6,0.3c0.2,0.1,0.3,0.4,0.4,0.6c0.1,0.4,0.2,0.7,0.1,1c-0.1,0.3-0.2,0.5-0.4,0.8
		s-0.4,0.4-0.7,0.6c-0.3,0.2-0.6,0.3-0.8,0.4c-0.3,0.1-0.6,0.2-1,0.2c-0.3,0-0.6,0-0.9-0.1c-0.3-0.1-0.5-0.2-0.7-0.4
		c-0.2-0.2-0.4-0.5-0.5-0.8l0.9-0.3C133,19.6,133.1,19.8,133.2,19.9z"/>
	<path d="M239,10.8l0.5,7.6l4.6-6.1l1.5,0.4l-2.5,8.1l-1-0.3l2-6.8l0,0l-4.6,6l-0.9-0.3l-0.5-7.5l0,0l-2,6.8l-1-0.3l2.5-8.1
		L239,10.8z"/>
	<path d="M250.9,23.3c-0.5,0.2-1.1,0.1-1.8-0.1c-0.5-0.2-0.8-0.4-1.1-0.7c-0.3-0.3-0.5-0.6-0.6-0.9c-0.1-0.4-0.2-0.7-0.2-1.1
		c0-0.4,0.1-0.8,0.2-1.3c0.2-0.4,0.4-0.8,0.6-1.1c0.3-0.3,0.6-0.6,0.9-0.8c0.3-0.2,0.7-0.3,1.1-0.3c0.4,0,0.8,0,1.2,0.2
		c0.5,0.2,0.9,0.4,1.2,0.8c0.3,0.3,0.4,0.7,0.5,1.1c0.1,0.4,0.1,0.8,0,1.2c-0.1,0.4-0.2,0.8-0.3,1.1l-4.3-1.5
		c-0.1,0.3-0.2,0.5-0.2,0.8c0,0.3,0,0.5,0.1,0.7c0.1,0.2,0.2,0.4,0.4,0.6c0.2,0.2,0.4,0.3,0.8,0.4c0.4,0.1,0.8,0.2,1.1,0.1
		c0.3-0.1,0.6-0.3,0.8-0.7l0.9,0.3C251.9,22.7,251.4,23.1,250.9,23.3z M251.9,19.4c0-0.2-0.1-0.4-0.2-0.6c-0.1-0.2-0.2-0.4-0.4-0.5
		c-0.2-0.2-0.4-0.3-0.6-0.4c-0.2-0.1-0.5-0.1-0.7-0.1c-0.2,0-0.4,0.1-0.6,0.2c-0.2,0.1-0.4,0.2-0.5,0.4c-0.2,0.2-0.3,0.4-0.4,0.6
		l3.3,1.2C251.9,19.9,252,19.7,251.9,19.4z"/>
	<path d="M254.4,27.1c-0.3,0.1-0.7,0.1-1.1,0c-0.2-0.1-0.3-0.1-0.5-0.2l0.3-0.8c0,0,0.1,0,0.1,0.1c0,0,0.1,0,0.1,0l0.2,0.1
		c0.2,0.1,0.4,0.1,0.5,0c0.1-0.1,0.2-0.3,0.3-0.6l2.4-6.3l0.9,0.4l-2.5,6.5C255,26.7,254.7,27,254.4,27.1z M257.2,18.3l0.4-1.2
		l0.9,0.4l-0.4,1.2L257.2,18.3z"/>
	<path d="M260.4,22.7c0.3-0.3,0.6-0.6,0.9-0.7c0.3-0.2,0.7-0.3,1.1-0.3c0.4,0,0.8,0.1,1.3,0.3c0.5,0.2,0.8,0.4,1.1,0.7
		c0.3,0.3,0.5,0.6,0.6,1s0.2,0.8,0.1,1.2c0,0.4-0.1,0.8-0.3,1.2c-0.2,0.4-0.4,0.8-0.7,1.1c-0.3,0.3-0.6,0.6-0.9,0.7
		c-0.3,0.2-0.7,0.3-1.1,0.3c-0.4,0-0.8-0.1-1.3-0.3c-0.4-0.2-0.8-0.4-1.1-0.7s-0.5-0.6-0.6-1c-0.1-0.4-0.2-0.8-0.1-1.2
		c0-0.4,0.1-0.8,0.3-1.2C259.9,23.4,260.1,23,260.4,22.7z M260.5,25.2c0,0.3,0,0.6,0.1,0.8c0.1,0.2,0.2,0.5,0.4,0.6
		c0.2,0.2,0.4,0.3,0.6,0.4s0.5,0.1,0.7,0.1c0.3,0,0.5-0.1,0.7-0.2c0.2-0.1,0.5-0.3,0.7-0.5c0.2-0.2,0.4-0.5,0.5-0.9
		c0.1-0.3,0.2-0.7,0.2-1s0-0.6-0.1-0.8c-0.1-0.2-0.2-0.5-0.4-0.6c-0.2-0.2-0.4-0.3-0.6-0.4c-0.2-0.1-0.5-0.1-0.7-0.1
		c-0.3,0-0.5,0.1-0.7,0.2c-0.2,0.1-0.5,0.3-0.7,0.5c-0.2,0.2-0.4,0.5-0.5,0.9C260.6,24.6,260.5,24.9,260.5,25.2z"/>
	<path d="M270.3,25l-0.5,1.2l0,0c0.4-0.4,0.9-0.6,1.3-0.6c0.4-0.1,0.9,0,1.4,0.3l-0.4,1c-0.4-0.2-0.7-0.3-1-0.3
		c-0.3,0-0.6,0-0.8,0.2c-0.2,0.1-0.5,0.3-0.7,0.6c-0.2,0.2-0.4,0.5-0.5,0.9l-1.1,2.5l-0.9-0.4l2.5-5.6L270.3,25z"/>
	<path d="M277.3,35.1c-0.2,0-0.4,0-0.7-0.2c-0.2-0.1-0.4-0.3-0.5-0.5c-0.1-0.2,0-0.4,0.1-0.7c-0.4,0.2-0.8,0.3-1.2,0.2
		c-0.4,0-0.8-0.1-1.2-0.3c-0.2-0.1-0.5-0.3-0.7-0.4c-0.2-0.2-0.3-0.3-0.5-0.5c-0.1-0.2-0.2-0.4-0.2-0.7c0-0.2,0.1-0.5,0.2-0.8
		c0.2-0.3,0.3-0.5,0.5-0.7c0.2-0.1,0.4-0.2,0.7-0.3c0.2,0,0.5,0,0.7,0c0.3,0,0.5,0.1,0.8,0.2c0.3,0.1,0.5,0.1,0.8,0.2
		c0.2,0.1,0.5,0.1,0.6,0.2c0.2,0,0.4,0,0.5,0c0.1,0,0.3-0.1,0.3-0.3c0.1-0.2,0.1-0.4,0.1-0.5c0-0.2-0.1-0.3-0.2-0.4
		c-0.1-0.1-0.2-0.2-0.3-0.3c-0.1-0.1-0.3-0.2-0.4-0.2c-0.4-0.2-0.7-0.3-1.1-0.2c-0.3,0-0.6,0.2-0.8,0.6l-0.9-0.4
		c0.2-0.3,0.4-0.6,0.6-0.8c0.2-0.2,0.5-0.3,0.8-0.3c0.3,0,0.6,0,0.9,0c0.3,0.1,0.6,0.2,0.9,0.3c0.2,0.1,0.5,0.3,0.7,0.4
		c0.2,0.2,0.4,0.3,0.6,0.5c0.1,0.2,0.2,0.4,0.3,0.7s0,0.5-0.2,0.9l-1.4,2.8c-0.1,0.2-0.2,0.4-0.2,0.5c0,0.1,0,0.2,0.2,0.3
		c0.1,0,0.2,0.1,0.3,0.1L277.3,35.1z M277.2,31.5c-0.2,0-0.3,0-0.5,0c-0.2,0-0.4-0.1-0.6-0.2s-0.4-0.1-0.7-0.2
		c-0.2-0.1-0.4-0.1-0.6-0.1c-0.2,0-0.4,0-0.5,0.1c-0.2,0.1-0.3,0.2-0.4,0.5c-0.1,0.1-0.1,0.3-0.1,0.4c0,0.1,0.1,0.3,0.1,0.4
		s0.2,0.2,0.3,0.3c0.1,0.1,0.2,0.2,0.4,0.2c0.3,0.1,0.6,0.2,0.8,0.2c0.3,0,0.5,0,0.7-0.1c0.2-0.1,0.4-0.1,0.5-0.3
		c0.1-0.1,0.2-0.2,0.3-0.4L277.2,31.5z"/>
	<path d="M283.6,31.4l-0.6,1.2l0,0c0.4-0.3,0.9-0.5,1.3-0.6c0.4,0,0.9,0.1,1.4,0.3l-0.5,1c-0.4-0.2-0.7-0.3-1-0.3
		c-0.3,0-0.6,0-0.8,0.1c-0.3,0.1-0.5,0.3-0.7,0.5c-0.2,0.2-0.4,0.5-0.6,0.9l-1.2,2.4l-0.9-0.5l2.8-5.5L283.6,31.4z"/>
	<path d="M293.9,36.9l-0.4,0.7l0,0c0.3-0.2,0.7-0.3,1-0.3c0.4,0,0.8,0.2,1.1,0.4c0.4,0.2,0.7,0.5,0.9,0.8c0.2,0.3,0.4,0.7,0.4,1
		c0.1,0.4,0,0.8-0.1,1.2c-0.1,0.4-0.2,0.8-0.5,1.2c-0.2,0.4-0.5,0.7-0.8,1c-0.3,0.3-0.6,0.5-1,0.6c-0.3,0.1-0.7,0.2-1.1,0.2
		c-0.4,0-0.8-0.2-1.2-0.4c-0.1-0.1-0.3-0.2-0.4-0.3c-0.1-0.1-0.3-0.3-0.4-0.4c-0.1-0.2-0.2-0.3-0.3-0.5c-0.1-0.2-0.1-0.4-0.1-0.6
		l0,0l-1.6,2.7l-0.9-0.5l4.2-7.4L293.9,36.9z M296,40.6c0.1-0.3,0.1-0.5,0.1-0.8s-0.1-0.5-0.3-0.7c-0.1-0.2-0.4-0.4-0.6-0.6
		c-0.3-0.2-0.6-0.3-0.9-0.3c-0.3,0-0.5,0.1-0.8,0.2c-0.2,0.1-0.5,0.3-0.7,0.5c-0.2,0.2-0.4,0.4-0.5,0.7c-0.1,0.3-0.3,0.5-0.3,0.8
		s-0.1,0.6-0.1,0.8c0,0.3,0.1,0.5,0.3,0.7c0.1,0.2,0.4,0.4,0.7,0.6c0.3,0.2,0.6,0.3,0.9,0.3c0.3,0,0.5-0.1,0.8-0.2
		c0.2-0.1,0.4-0.3,0.6-0.5c0.2-0.2,0.4-0.5,0.5-0.7C295.8,41.2,295.9,40.9,296,40.6z"/>
	<path d="M301.8,41.5l-0.7,1.1l0,0c0.5-0.3,0.9-0.5,1.3-0.5s0.9,0.1,1.3,0.4l-0.6,0.9c-0.3-0.2-0.7-0.3-1-0.4
		c-0.3-0.1-0.6,0-0.8,0.1c-0.3,0.1-0.5,0.2-0.7,0.5c-0.2,0.2-0.4,0.5-0.7,0.8l-1.4,2.3l-0.9-0.5l3.2-5.2L301.8,41.5z"/>
	<path d="M305,45.6c0.3-0.3,0.7-0.4,1-0.5c0.4-0.1,0.8-0.1,1.2-0.1c0.4,0.1,0.8,0.2,1.2,0.5c0.4,0.3,0.7,0.6,0.9,0.9
		c0.2,0.3,0.4,0.7,0.4,1.1c0.1,0.4,0,0.8-0.1,1.2c-0.1,0.4-0.3,0.8-0.5,1.2c-0.2,0.4-0.5,0.7-0.8,1c-0.3,0.3-0.7,0.4-1,0.5
		c-0.4,0.1-0.8,0.1-1.1,0.1c-0.4-0.1-0.8-0.2-1.2-0.5c-0.4-0.3-0.7-0.6-0.9-0.9c-0.2-0.3-0.4-0.7-0.4-1.1c-0.1-0.4,0-0.8,0.1-1.2
		c0.1-0.4,0.3-0.8,0.5-1.2C304.4,46.2,304.6,45.9,305,45.6z M304.6,48.1c-0.1,0.3-0.1,0.6-0.1,0.8c0,0.3,0.1,0.5,0.3,0.7
		c0.1,0.2,0.3,0.4,0.5,0.5c0.2,0.1,0.5,0.2,0.7,0.3c0.3,0,0.5,0,0.8,0c0.3-0.1,0.5-0.2,0.7-0.4c0.2-0.2,0.5-0.4,0.7-0.8
		c0.2-0.3,0.3-0.6,0.4-0.9c0.1-0.3,0.1-0.6,0.1-0.8c0-0.3-0.1-0.5-0.3-0.7c-0.1-0.2-0.3-0.4-0.5-0.5s-0.5-0.2-0.7-0.3s-0.5,0-0.8,0
		c-0.3,0.1-0.5,0.2-0.7,0.4c-0.2,0.2-0.5,0.4-0.7,0.8C304.8,47.5,304.7,47.8,304.6,48.1z"/>
	<path d="M316,52.2c-0.1-0.3-0.3-0.6-0.6-0.8c-0.3-0.2-0.6-0.3-0.9-0.4c-0.3,0-0.5,0-0.8,0.1c-0.2,0.1-0.5,0.2-0.7,0.4
		c-0.2,0.2-0.4,0.4-0.6,0.7c-0.2,0.2-0.3,0.5-0.4,0.7c-0.1,0.3-0.2,0.5-0.2,0.8c0,0.3,0,0.5,0.2,0.7c0.1,0.2,0.3,0.4,0.6,0.6
		c0.4,0.3,0.8,0.4,1.2,0.4c0.4-0.1,0.7-0.3,1.1-0.6l0.8,0.6c-0.5,0.6-1.1,0.9-1.7,0.9c-0.6,0.1-1.2-0.1-1.9-0.6
		c-0.4-0.3-0.7-0.6-0.9-0.9c-0.2-0.3-0.3-0.7-0.4-1c0-0.4,0-0.7,0.1-1.1c0.1-0.4,0.3-0.8,0.6-1.1c0.3-0.4,0.6-0.7,0.9-1
		c0.3-0.3,0.7-0.4,1-0.5c0.4-0.1,0.8-0.1,1.1,0c0.4,0.1,0.8,0.2,1.2,0.5c0.3,0.2,0.5,0.4,0.7,0.7s0.3,0.5,0.4,0.8
		c0.1,0.3,0.1,0.6,0.1,0.9c0,0.3-0.1,0.6-0.3,0.9l-0.8-0.6C316,52.8,316.1,52.5,316,52.2z"/>
	<path d="M320.5,61.4c-0.6,0-1.1-0.2-1.7-0.6c-0.4-0.3-0.7-0.6-0.9-1c-0.2-0.3-0.3-0.7-0.3-1.1c0-0.4,0-0.8,0.2-1.1
		c0.1-0.4,0.4-0.8,0.6-1.2c0.3-0.4,0.6-0.7,1-0.9c0.3-0.2,0.7-0.4,1.1-0.4c0.4-0.1,0.8-0.1,1.1,0c0.4,0.1,0.7,0.3,1.1,0.5
		c0.4,0.3,0.7,0.7,0.9,1.1c0.1,0.4,0.2,0.8,0.2,1.2c0,0.4-0.2,0.8-0.3,1.2s-0.4,0.7-0.6,1l-3.6-2.8c-0.2,0.2-0.3,0.4-0.4,0.7
		c-0.1,0.2-0.1,0.5-0.1,0.7c0,0.2,0.1,0.5,0.2,0.7c0.1,0.2,0.3,0.5,0.6,0.7c0.3,0.3,0.7,0.4,1,0.4c0.3,0,0.7-0.1,1-0.4l0.8,0.6
		C321.7,61.2,321.1,61.4,320.5,61.4z M322.7,58.2c0.1-0.2,0.1-0.4,0-0.7c0-0.2-0.1-0.4-0.2-0.6c-0.1-0.2-0.3-0.4-0.5-0.5
		c-0.2-0.2-0.4-0.3-0.6-0.3c-0.2-0.1-0.4-0.1-0.7,0c-0.2,0-0.4,0.1-0.6,0.2c-0.2,0.1-0.4,0.3-0.5,0.4l2.8,2.1
		C322.6,58.6,322.7,58.4,322.7,58.2z"/>
	<path d="M324.9,63.7c0,0.2,0,0.4,0.1,0.5c0.1,0.2,0.2,0.3,0.3,0.5c0.1,0.2,0.3,0.3,0.4,0.4c0.1,0.1,0.3,0.2,0.4,0.3
		c0.1,0.1,0.3,0.2,0.5,0.2c0.2,0,0.3,0,0.5,0c0.2,0,0.3-0.1,0.4-0.3c0.2-0.2,0.2-0.4,0.2-0.6c-0.1-0.2-0.2-0.5-0.4-0.7
		c-0.2-0.3-0.4-0.5-0.6-0.8c-0.2-0.3-0.4-0.6-0.6-0.8c-0.1-0.3-0.2-0.6-0.2-0.9c0-0.3,0.1-0.6,0.4-0.9c0.2-0.2,0.4-0.4,0.7-0.5
		s0.5-0.1,0.8-0.1s0.5,0.1,0.8,0.2c0.3,0.1,0.5,0.3,0.7,0.4c0.3,0.2,0.5,0.4,0.7,0.7c0.2,0.2,0.3,0.5,0.4,0.7c0.1,0.3,0.1,0.5,0,0.8
		s-0.2,0.6-0.4,0.9l-0.8-0.6c0.1-0.2,0.2-0.3,0.2-0.5c0-0.2,0-0.3-0.1-0.5c-0.1-0.1-0.1-0.3-0.2-0.4c-0.1-0.1-0.2-0.2-0.3-0.4
		c-0.1-0.1-0.2-0.2-0.4-0.3s-0.3-0.1-0.4-0.2c-0.1,0-0.3,0-0.4,0c-0.1,0-0.2,0.1-0.3,0.2c-0.1,0.1-0.2,0.3-0.1,0.5
		c0,0.2,0.1,0.3,0.2,0.5c0.1,0.2,0.2,0.4,0.4,0.6c0.1,0.2,0.3,0.4,0.4,0.6c0.2,0.2,0.3,0.4,0.4,0.6c0.1,0.2,0.2,0.4,0.3,0.7
		c0.1,0.2,0.1,0.4,0,0.7c0,0.2-0.2,0.5-0.3,0.7c-0.2,0.3-0.5,0.5-0.8,0.6c-0.3,0.1-0.6,0.1-0.8,0.1c-0.3,0-0.6-0.1-0.8-0.3
		c-0.3-0.2-0.5-0.3-0.8-0.5c-0.3-0.2-0.5-0.5-0.7-0.7c-0.2-0.3-0.3-0.5-0.4-0.8c-0.1-0.3-0.1-0.6,0-0.9c0.1-0.3,0.2-0.6,0.4-0.9
		l0.8,0.6C325,63.3,324.9,63.5,324.9,63.7z"/>
	<path d="M332.3,66.1c0.4-0.2,0.7-0.3,1.1-0.4c0.4,0,0.8,0,1.2,0.1c0.4,0.1,0.8,0.3,1.1,0.7c0.4,0.3,0.6,0.7,0.8,1
		c0.2,0.4,0.2,0.7,0.2,1.1c0,0.4-0.1,0.8-0.3,1.1c-0.2,0.4-0.4,0.7-0.7,1.1c-0.3,0.3-0.6,0.6-1,0.8c-0.4,0.2-0.7,0.3-1.1,0.4
		c-0.4,0-0.8,0-1.1-0.1c-0.4-0.1-0.8-0.4-1.1-0.7c-0.4-0.3-0.6-0.7-0.8-1c-0.2-0.4-0.2-0.7-0.2-1.1c0-0.4,0.1-0.8,0.3-1.1
		c0.2-0.4,0.4-0.7,0.7-1.1C331.6,66.5,331.9,66.3,332.3,66.1z M331.5,68.4c-0.1,0.3-0.2,0.6-0.2,0.8c0,0.3,0,0.5,0.2,0.7
		c0.1,0.2,0.3,0.4,0.4,0.6c0.2,0.2,0.4,0.3,0.7,0.4c0.2,0.1,0.5,0.1,0.8,0.1c0.3,0,0.5-0.1,0.8-0.3c0.3-0.1,0.5-0.4,0.8-0.6
		c0.2-0.3,0.4-0.6,0.6-0.8c0.1-0.3,0.2-0.6,0.2-0.8c0-0.3,0-0.5-0.1-0.7c-0.1-0.2-0.3-0.4-0.4-0.6c-0.2-0.2-0.4-0.3-0.7-0.4
		s-0.5-0.1-0.8-0.1c-0.3,0-0.5,0.1-0.8,0.3c-0.3,0.1-0.5,0.4-0.8,0.6C331.9,67.9,331.7,68.1,331.5,68.4z"/>
	<path d="M337.5,74.9c0,0.2,0,0.4,0,0.5c0,0.2,0.1,0.3,0.2,0.5c0.1,0.2,0.2,0.3,0.4,0.5c0.1,0.1,0.2,0.2,0.4,0.3
		c0.1,0.1,0.3,0.2,0.4,0.2c0.1,0.1,0.3,0.1,0.5,0.1c0.2,0,0.3-0.1,0.4-0.2c0.2-0.2,0.3-0.4,0.2-0.6c0-0.2-0.1-0.5-0.3-0.8
		s-0.3-0.5-0.5-0.8s-0.4-0.6-0.5-0.9c-0.1-0.3-0.2-0.6-0.2-0.9c0-0.3,0.2-0.6,0.4-0.9c0.2-0.2,0.5-0.4,0.7-0.4
		c0.3-0.1,0.5-0.1,0.8,0c0.3,0.1,0.5,0.2,0.7,0.3c0.2,0.1,0.5,0.3,0.6,0.5c0.2,0.2,0.5,0.5,0.6,0.7c0.2,0.2,0.3,0.5,0.3,0.8
		c0.1,0.3,0,0.5,0,0.8c-0.1,0.3-0.2,0.5-0.5,0.8l-0.7-0.7c0.1-0.2,0.2-0.3,0.2-0.5c0-0.2,0-0.3,0-0.5c0-0.2-0.1-0.3-0.2-0.4
		c-0.1-0.1-0.2-0.3-0.3-0.4c-0.1-0.1-0.2-0.2-0.3-0.3c-0.1-0.1-0.3-0.2-0.4-0.2c-0.1,0-0.3-0.1-0.4,0c-0.1,0-0.2,0.1-0.4,0.2
		c-0.1,0.1-0.2,0.3-0.2,0.4c0,0.2,0,0.3,0.1,0.5c0.1,0.2,0.2,0.4,0.3,0.6c0.1,0.2,0.3,0.4,0.4,0.6c0.1,0.2,0.3,0.4,0.4,0.7
		s0.2,0.5,0.2,0.7c0,0.2,0,0.4,0,0.7c-0.1,0.2-0.2,0.4-0.4,0.6c-0.3,0.3-0.5,0.4-0.8,0.5c-0.3,0.1-0.6,0.1-0.8,0
		c-0.3-0.1-0.6-0.2-0.8-0.4c-0.3-0.2-0.5-0.4-0.7-0.6c-0.2-0.2-0.4-0.5-0.6-0.8c-0.2-0.3-0.3-0.5-0.3-0.8c-0.1-0.3,0-0.6,0-0.9
		c0.1-0.3,0.3-0.6,0.5-0.9l0.7,0.7C337.6,74.6,337.5,74.7,337.5,74.9z"/>
	<path d="M392.7,171.6l-6.8,3.3l7.4,2l0.2,1.5l-8.5,0.8l-0.1-1.1l7-0.7l0,0l-7.3-1.9l-0.1-1l6.8-3.3l0,0l-7,0.7l-0.1-1.1l8.5-0.8
		L392.7,171.6z"/>
	<path d="M385.3,188.4c-0.1-0.2-0.2-0.4-0.2-0.7c0-0.3,0.1-0.5,0.2-0.6c0.1-0.2,0.4-0.2,0.7-0.3c-0.3-0.3-0.6-0.6-0.8-0.9
		s-0.3-0.8-0.3-1.2c0-0.3,0-0.5,0.1-0.8c0.1-0.3,0.1-0.5,0.3-0.7c0.1-0.2,0.3-0.3,0.5-0.5c0.2-0.1,0.5-0.2,0.8-0.2
		c0.3,0,0.6,0,0.9,0.1c0.2,0.1,0.4,0.3,0.6,0.4c0.1,0.2,0.3,0.4,0.3,0.6c0.1,0.2,0.2,0.5,0.2,0.8c0.1,0.3,0.1,0.5,0.2,0.8
		c0,0.2,0.1,0.5,0.1,0.7c0.1,0.2,0.1,0.3,0.2,0.4c0.1,0.1,0.3,0.2,0.4,0.1c0.2,0,0.4-0.1,0.5-0.1c0.1-0.1,0.2-0.2,0.3-0.3
		c0.1-0.1,0.1-0.3,0.1-0.4c0-0.2,0-0.3,0-0.5c0-0.4-0.1-0.8-0.3-1.1c-0.2-0.3-0.5-0.4-0.9-0.4l0-1c0.4,0,0.7,0.1,1,0.2
		c0.3,0.1,0.5,0.3,0.7,0.5c0.2,0.2,0.3,0.5,0.4,0.8c0.1,0.3,0.1,0.6,0.1,1c0,0.3,0,0.6,0,0.8c0,0.3-0.1,0.5-0.2,0.7
		c-0.1,0.2-0.3,0.4-0.5,0.6c-0.2,0.1-0.5,0.2-0.9,0.2l-3.2,0.1c-0.2,0-0.4,0-0.5,0.1c-0.1,0-0.2,0.1-0.2,0.3c0,0.1,0,0.2,0.1,0.3
		L385.3,188.4z M388.4,186.6c-0.1-0.1-0.2-0.3-0.2-0.5c-0.1-0.2-0.1-0.4-0.1-0.6c0-0.2-0.1-0.4-0.1-0.7c0-0.2-0.1-0.4-0.2-0.6
		c-0.1-0.2-0.2-0.3-0.4-0.4c-0.1-0.1-0.4-0.2-0.6-0.1c-0.2,0-0.3,0-0.4,0.1c-0.1,0.1-0.2,0.2-0.3,0.3c-0.1,0.1-0.1,0.2-0.1,0.4
		c0,0.1,0,0.3,0,0.5c0,0.3,0.1,0.6,0.2,0.8s0.2,0.4,0.4,0.6c0.1,0.1,0.3,0.2,0.5,0.3c0.2,0.1,0.3,0.1,0.5,0.1L388.4,186.6z"/>
	<path d="M391.5,190.9l0,1.3l-2.2,1.5l2.1,1.5l0,1.2l-2.8-2.1l-3.3,2.4l0-1.3l2.6-1.7l-2.5-1.7l0-1.2l3.2,2.3L391.5,190.9z"/>
	<path d="M391.3,200.8l-6.1-0.2l0-1l6.1,0.2L391.3,200.8z M392.4,199.8l1.2,0l0,1l-1.2,0L392.4,199.8z"/>
	<path d="M391.1,205.6l-0.9-0.1l0,0c0.7,0.5,1,1.2,0.9,2.1c0,0.4-0.1,0.7-0.3,1c-0.2,0.3-0.5,0.5-0.9,0.6c0.3,0.2,0.6,0.5,0.7,0.9
		c0.2,0.3,0.2,0.7,0.2,1.1c0,0.3-0.1,0.6-0.2,0.8c-0.1,0.2-0.2,0.4-0.4,0.6c-0.2,0.2-0.4,0.3-0.6,0.4c-0.2,0.1-0.5,0.1-0.8,0.1
		l-4.5-0.4l0.1-1l4,0.3c0.2,0,0.4,0,0.5,0c0.2,0,0.3-0.1,0.4-0.1c0.1-0.1,0.2-0.2,0.3-0.3s0.1-0.3,0.2-0.6c0-0.5-0.1-0.9-0.3-1.2
		c-0.3-0.3-0.6-0.5-1.1-0.5l-3.8-0.3l0.1-1l4,0.3c0.2,0,0.4,0,0.5,0c0.2,0,0.3-0.1,0.4-0.1c0.1-0.1,0.2-0.2,0.3-0.3
		c0.1-0.1,0.1-0.3,0.1-0.6c0-0.3,0-0.5-0.1-0.8c-0.1-0.2-0.2-0.4-0.4-0.5c-0.2-0.1-0.3-0.3-0.5-0.3c-0.2-0.1-0.3-0.1-0.4-0.1
		l-3.8-0.3l0.1-1l6.1,0.5L391.1,205.6z"/>
	<path d="M389.9,218l-6.1-0.7l0.1-1l6.1,0.7L389.9,218z M391.1,217.1l1.2,0.1l-0.1,1l-1.2-0.1L391.1,217.1z"/>
	<path d="M388.1,224.8l0.5-3.4l0.9,0.1l-0.7,4.7l-0.7-0.1l-4-4.4l-0.6,3.9l-0.9-0.1l0.8-5.1l0.8,0.1L388.1,224.8z"/>
	<path d="M381.2,233.8c-0.1-0.2-0.1-0.4,0-0.7c0-0.3,0.2-0.4,0.3-0.6c0.2-0.1,0.4-0.2,0.8-0.1c-0.3-0.3-0.5-0.7-0.5-1.1
		c-0.1-0.4-0.1-0.8,0-1.2c0-0.3,0.1-0.5,0.2-0.8c0.1-0.2,0.2-0.4,0.4-0.6c0.2-0.2,0.4-0.3,0.6-0.3c0.2-0.1,0.5-0.1,0.8,0
		c0.3,0.1,0.6,0.2,0.8,0.3c0.2,0.2,0.3,0.3,0.4,0.6c0.1,0.2,0.2,0.5,0.2,0.7c0,0.3,0,0.5,0,0.8c0,0.3,0,0.5,0,0.8c0,0.2,0,0.5,0,0.7
		s0.1,0.4,0.1,0.5c0.1,0.1,0.2,0.2,0.4,0.2c0.2,0,0.4,0,0.5,0s0.3-0.1,0.4-0.3c0.1-0.1,0.2-0.3,0.2-0.4s0.1-0.3,0.1-0.5
		c0.1-0.4,0.1-0.8,0-1.1c-0.1-0.3-0.4-0.5-0.8-0.6l0.2-1c0.4,0.1,0.7,0.2,0.9,0.4c0.2,0.2,0.4,0.4,0.5,0.7s0.2,0.5,0.2,0.9
		s0,0.6-0.1,1c-0.1,0.3-0.1,0.5-0.2,0.8c-0.1,0.3-0.2,0.5-0.4,0.7c-0.2,0.2-0.4,0.3-0.6,0.4c-0.2,0.1-0.5,0.1-0.9,0l-3.1-0.6
		c-0.2,0-0.4-0.1-0.5-0.1c-0.1,0-0.2,0.1-0.2,0.2c0,0.1,0,0.2,0,0.3L381.2,233.8z M384.6,232.8c-0.1-0.1-0.1-0.3-0.1-0.5
		c0-0.2,0-0.4,0-0.7c0-0.2,0-0.5,0-0.7s0-0.4-0.1-0.6c0-0.2-0.1-0.4-0.3-0.5c-0.1-0.1-0.3-0.2-0.6-0.3c-0.2,0-0.3,0-0.4,0
		s-0.2,0.1-0.3,0.2c-0.1,0.1-0.2,0.2-0.2,0.3c-0.1,0.1-0.1,0.3-0.1,0.4c-0.1,0.3-0.1,0.6,0,0.9s0.1,0.5,0.2,0.6
		c0.1,0.2,0.2,0.3,0.4,0.4c0.1,0.1,0.3,0.2,0.4,0.2L384.6,232.8z"/>
	<path d="M386.3,238.9l-1.3-0.3l0,0c0.4,0.3,0.7,0.7,0.9,1.1c0.2,0.4,0.2,0.9,0,1.4l-1-0.2c0.1-0.4,0.1-0.7,0.1-1
		c0-0.3-0.2-0.6-0.3-0.8c-0.2-0.2-0.4-0.4-0.7-0.5c-0.3-0.1-0.6-0.3-1-0.3l-2.7-0.6l0.2-1l6,1.3L386.3,238.9z"/>
	<path d="M385.8,250.9l-3.1-0.8l0,0c0.3,0.3,0.5,0.6,0.5,1c0.1,0.4,0,0.8-0.1,1.2c-0.1,0.5-0.3,0.8-0.6,1.1
		c-0.3,0.3-0.6,0.5-0.9,0.7c-0.3,0.1-0.7,0.2-1.1,0.2s-0.8,0-1.2-0.2c-0.4-0.1-0.8-0.3-1.1-0.5s-0.6-0.5-0.8-0.8s-0.4-0.6-0.4-1
		c-0.1-0.4,0-0.8,0.1-1.2c0-0.1,0.1-0.3,0.2-0.5s0.2-0.3,0.3-0.5s0.3-0.3,0.4-0.4c0.2-0.1,0.3-0.2,0.6-0.3l0,0l-0.8-0.2l0.3-1
		l8.2,2.3L385.8,250.9z M380.5,253.2c0.3,0,0.5,0,0.8-0.1c0.2-0.1,0.5-0.2,0.7-0.4c0.2-0.2,0.3-0.5,0.4-0.8c0.1-0.3,0.1-0.6,0-0.9
		c-0.1-0.3-0.2-0.5-0.4-0.7c-0.2-0.2-0.4-0.4-0.6-0.5c-0.2-0.1-0.5-0.2-0.8-0.3c-0.3-0.1-0.6-0.1-0.9-0.1c-0.3,0-0.6,0-0.8,0.1
		c-0.2,0.1-0.5,0.2-0.7,0.4s-0.3,0.5-0.4,0.8c-0.1,0.3-0.1,0.6,0,0.9c0.1,0.3,0.2,0.5,0.4,0.7c0.2,0.2,0.4,0.4,0.7,0.5
		c0.3,0.1,0.5,0.2,0.8,0.3C379.9,253.2,380.2,253.2,380.5,253.2z"/>
	<path d="M374.5,260.6c-0.2-0.5-0.2-1.1,0-1.8c0.1-0.5,0.3-0.8,0.6-1.1c0.3-0.3,0.6-0.5,0.9-0.7s0.7-0.2,1.1-0.2
		c0.4,0,0.8,0.1,1.3,0.2c0.4,0.1,0.8,0.3,1.2,0.6c0.3,0.3,0.6,0.5,0.8,0.9c0.2,0.3,0.3,0.7,0.4,1.1c0,0.4,0,0.8-0.1,1.2
		c-0.2,0.5-0.4,0.9-0.7,1.2c-0.3,0.3-0.7,0.5-1.1,0.6c-0.4,0.1-0.8,0.1-1.2,0.1c-0.4,0-0.8-0.1-1.2-0.3l1.4-4.4
		c-0.3-0.1-0.5-0.1-0.8-0.1c-0.3,0-0.5,0-0.7,0.1s-0.4,0.2-0.6,0.4c-0.2,0.2-0.3,0.5-0.4,0.8c-0.1,0.4-0.1,0.8,0,1.1
		c0.1,0.3,0.3,0.6,0.7,0.8l-0.3,0.9C375.1,261.6,374.7,261.2,374.5,260.6z M378.4,261.6c0.2,0,0.4-0.1,0.6-0.2s0.4-0.2,0.5-0.4
		c0.1-0.2,0.3-0.4,0.3-0.6c0.1-0.2,0.1-0.5,0.1-0.7c0-0.2-0.1-0.4-0.2-0.6c-0.1-0.2-0.2-0.4-0.4-0.5c-0.2-0.1-0.4-0.3-0.6-0.3
		l-1.1,3.4C377.9,261.6,378.1,261.6,378.4,261.6z"/>
	<path d="M378.3,267.3l-0.9-0.3l0,0c0.6,0.6,0.7,1.4,0.4,2.2c-0.1,0.4-0.3,0.7-0.5,0.9c-0.2,0.2-0.4,0.4-0.7,0.5
		c-0.2,0.1-0.5,0.1-0.8,0.1c-0.3,0-0.6-0.1-0.9-0.2l-3.8-1.3l0.3-0.9l3.9,1.4c0.4,0.1,0.7,0.1,1,0c0.3-0.1,0.5-0.4,0.6-0.7
		c0.1-0.3,0.1-0.6,0.1-0.8c0-0.2-0.1-0.5-0.2-0.7c-0.1-0.2-0.3-0.4-0.5-0.5c-0.2-0.1-0.4-0.3-0.7-0.4l-3.3-1.2l0.3-0.9l5.8,2
		L378.3,267.3z"/>
	<path d="M368.7,276.6c-0.2-0.6-0.1-1.2,0.1-1.8c0.2-0.5,0.4-0.8,0.7-1.1c0.3-0.3,0.6-0.5,1-0.6s0.7-0.2,1.2-0.1
		c0.4,0,0.8,0.1,1.3,0.3c0.4,0.2,0.8,0.4,1.1,0.7c0.3,0.3,0.6,0.6,0.7,0.9c0.2,0.3,0.3,0.7,0.3,1.1c0,0.4,0,0.8-0.2,1.2
		c-0.2,0.5-0.5,0.9-0.8,1.1c-0.3,0.3-0.7,0.4-1.1,0.5c-0.4,0.1-0.8,0.1-1.2,0c-0.4-0.1-0.8-0.2-1.1-0.3l1.7-4.3
		c-0.2-0.1-0.5-0.2-0.7-0.2c-0.3,0-0.5,0-0.7,0.1c-0.2,0.1-0.4,0.2-0.6,0.4c-0.2,0.2-0.4,0.4-0.5,0.7c-0.2,0.4-0.2,0.8-0.1,1.1
		c0.1,0.3,0.3,0.6,0.6,0.8l-0.4,0.9C369.3,277.7,368.9,277.2,368.7,276.6z M372.5,277.9c0.2,0,0.4-0.1,0.6-0.1
		c0.2-0.1,0.4-0.2,0.5-0.4c0.2-0.2,0.3-0.4,0.4-0.6c0.1-0.2,0.1-0.5,0.1-0.7c0-0.2-0.1-0.4-0.2-0.6c-0.1-0.2-0.2-0.4-0.4-0.5
		c-0.2-0.2-0.4-0.3-0.6-0.4l-1.3,3.3C372,277.8,372.3,277.9,372.5,277.9z"/>
	<path d="M371.9,281.7l0.8,0.3l-0.4,0.9l0.8,0.4c0.5,0.2,0.8,0.5,0.9,0.8c0.1,0.4,0.1,0.8-0.1,1.3c0,0.1-0.1,0.2-0.1,0.3
		c-0.1,0.1-0.1,0.2-0.2,0.3l-0.8-0.3c0.1-0.1,0.1-0.1,0.2-0.2c0.1-0.1,0.1-0.2,0.1-0.3c0.1-0.2,0.1-0.4,0.1-0.6s-0.2-0.3-0.4-0.4
		l-0.8-0.3l-0.5,1.1l-0.8-0.3l0.5-1.1l-4.8-2.1l0.4-0.9l4.8,2.1L371.9,281.7z"/>
	<path d="M369.6,288.9l-5.5-2.8l0.4-0.9l5.5,2.8L369.6,288.9z M371,288.5l1.1,0.6l-0.4,0.9l-1.1-0.6L371,288.5z"/>
	<path d="M365,295c0.3-0.1,0.6-0.3,0.8-0.7c0.2-0.3,0.3-0.6,0.3-0.9s0-0.5-0.2-0.8c-0.1-0.2-0.3-0.5-0.5-0.7
		c-0.2-0.2-0.5-0.4-0.7-0.5c-0.2-0.1-0.5-0.3-0.8-0.3c-0.3-0.1-0.5-0.1-0.8-0.1c-0.3,0-0.5,0.1-0.7,0.2c-0.2,0.1-0.4,0.3-0.6,0.6
		c-0.3,0.4-0.3,0.8-0.3,1.2c0.1,0.4,0.3,0.7,0.7,1l-0.5,0.9c-0.6-0.5-1-1-1.1-1.6c-0.1-0.6,0-1.2,0.4-1.9c0.2-0.4,0.5-0.7,0.8-1
		c0.3-0.2,0.6-0.4,1-0.4c0.4-0.1,0.7-0.1,1.1,0c0.4,0.1,0.8,0.2,1.2,0.5c0.4,0.2,0.7,0.5,1,0.8c0.3,0.3,0.5,0.6,0.6,1
		c0.1,0.4,0.2,0.7,0.1,1.1c0,0.4-0.2,0.8-0.4,1.2c-0.2,0.3-0.4,0.6-0.6,0.8c-0.2,0.2-0.5,0.4-0.7,0.5s-0.6,0.2-0.9,0.2
		c-0.3,0-0.6-0.1-1-0.2l0.5-0.9C364.3,295.1,364.6,295.1,365,295z"/>
	<path d="M362.6,300.7l-5.1-3.4l0.6-0.8l5.1,3.4L362.6,300.7z M364.1,300.5l1,0.7l-0.6,0.8l-1-0.7L364.1,300.5z"/>
	<path d="M359.1,302.7c0.2,0.3,0.4,0.7,0.5,1.1c0.1,0.4,0.1,0.8,0,1.2c-0.1,0.4-0.3,0.8-0.6,1.2c-0.3,0.4-0.6,0.7-1,0.9
		c-0.4,0.2-0.7,0.3-1.1,0.3c-0.4,0-0.8,0-1.2-0.1c-0.4-0.1-0.8-0.3-1.1-0.6c-0.4-0.3-0.7-0.6-0.9-0.9c-0.2-0.3-0.4-0.7-0.5-1.1
		c-0.1-0.4-0.1-0.8,0-1.2c0.1-0.4,0.3-0.8,0.6-1.2c0.3-0.4,0.6-0.7,1-0.9c0.4-0.2,0.7-0.3,1.1-0.4c0.4,0,0.8,0,1.2,0.1
		c0.4,0.1,0.8,0.3,1.1,0.6C358.5,302.1,358.8,302.4,359.1,302.7z M356.6,302.2c-0.3-0.1-0.6-0.1-0.8-0.1c-0.3,0-0.5,0.1-0.7,0.2
		c-0.2,0.1-0.4,0.3-0.6,0.5s-0.3,0.4-0.3,0.7s-0.1,0.5,0,0.8s0.2,0.5,0.3,0.8c0.2,0.2,0.4,0.5,0.7,0.7c0.3,0.2,0.6,0.4,0.9,0.5
		c0.3,0.1,0.6,0.1,0.8,0.1c0.3,0,0.5-0.1,0.7-0.2c0.2-0.1,0.4-0.3,0.6-0.5s0.3-0.4,0.3-0.7c0.1-0.2,0.1-0.5,0-0.8
		c-0.1-0.3-0.2-0.5-0.3-0.8c-0.2-0.3-0.4-0.5-0.7-0.7C357.2,302.4,356.9,302.3,356.6,302.2z"/>
	<path d="M350.8,308.8c-0.2,0-0.4,0-0.5,0.1c-0.2,0.1-0.3,0.2-0.5,0.3c-0.2,0.1-0.3,0.3-0.4,0.4c-0.1,0.1-0.2,0.3-0.3,0.4
		s-0.2,0.3-0.2,0.5s0,0.3,0,0.5s0.1,0.3,0.3,0.4c0.2,0.2,0.4,0.2,0.6,0.1c0.2-0.1,0.5-0.2,0.7-0.4c0.3-0.2,0.5-0.4,0.8-0.6
		s0.5-0.4,0.8-0.6c0.3-0.2,0.6-0.2,0.9-0.2c0.3,0,0.6,0.1,0.9,0.4c0.2,0.2,0.4,0.4,0.5,0.7c0.1,0.2,0.1,0.5,0.1,0.8
		c0,0.3-0.1,0.5-0.2,0.8c-0.1,0.3-0.3,0.5-0.4,0.7c-0.2,0.3-0.4,0.5-0.7,0.7c-0.2,0.2-0.5,0.3-0.7,0.4c-0.3,0.1-0.5,0.1-0.8,0
		c-0.3-0.1-0.6-0.2-0.9-0.4l0.6-0.8c0.2,0.1,0.3,0.2,0.5,0.2c0.2,0,0.3,0,0.5-0.1c0.1-0.1,0.3-0.1,0.4-0.2c0.1-0.1,0.2-0.2,0.4-0.3
		c0.1-0.1,0.2-0.2,0.3-0.4c0.1-0.1,0.1-0.3,0.2-0.4c0-0.1,0-0.3,0-0.4c0-0.1-0.1-0.2-0.2-0.3c-0.1-0.1-0.3-0.2-0.5-0.1
		c-0.2,0-0.3,0.1-0.5,0.2c-0.2,0.1-0.4,0.2-0.6,0.4c-0.2,0.2-0.4,0.3-0.6,0.5c-0.2,0.2-0.4,0.3-0.6,0.4s-0.4,0.2-0.6,0.3
		c-0.2,0.1-0.4,0.1-0.7,0c-0.2,0-0.5-0.1-0.7-0.3c-0.3-0.2-0.5-0.5-0.6-0.8c-0.1-0.3-0.1-0.6-0.1-0.8c0-0.3,0.1-0.6,0.3-0.9
		c0.2-0.3,0.3-0.5,0.5-0.8c0.2-0.3,0.4-0.5,0.7-0.7c0.2-0.2,0.5-0.3,0.8-0.4s0.6-0.1,0.9,0c0.3,0.1,0.6,0.2,0.9,0.4l-0.6,0.8
		C351.1,308.9,351,308.8,350.8,308.8z"/>
	<path d="M337.9,321.3c0-0.2,0.2-0.4,0.4-0.6c0.2-0.2,0.4-0.3,0.6-0.3c0.2,0,0.4,0.1,0.7,0.3c-0.1-0.4,0-0.8,0.1-1.2
		c0.1-0.4,0.4-0.7,0.7-1c0.2-0.2,0.4-0.4,0.6-0.5c0.2-0.1,0.4-0.2,0.7-0.3c0.2,0,0.5,0,0.7,0c0.2,0.1,0.5,0.2,0.7,0.4
		c0.3,0.2,0.4,0.5,0.5,0.7s0.1,0.5,0.1,0.7c0,0.2-0.1,0.5-0.2,0.7c-0.1,0.2-0.2,0.5-0.4,0.7c-0.1,0.2-0.3,0.5-0.4,0.7
		s-0.3,0.4-0.4,0.6s-0.1,0.3-0.1,0.5c0,0.1,0.1,0.3,0.2,0.4c0.2,0.2,0.3,0.2,0.5,0.3c0.2,0,0.3,0,0.4,0c0.1,0,0.3-0.1,0.4-0.2
		c0.1-0.1,0.2-0.2,0.4-0.3c0.3-0.3,0.5-0.6,0.5-0.9c0.1-0.3,0-0.6-0.4-1l0.7-0.7c0.3,0.3,0.4,0.5,0.5,0.8c0.1,0.3,0.1,0.6,0.1,0.8
		c0,0.3-0.1,0.6-0.3,0.8c-0.2,0.3-0.4,0.5-0.6,0.8c-0.2,0.2-0.4,0.4-0.6,0.6c-0.2,0.2-0.4,0.3-0.7,0.4c-0.2,0.1-0.5,0.1-0.7,0
		c-0.3-0.1-0.5-0.2-0.8-0.4l-2.3-2.2c-0.2-0.2-0.3-0.3-0.4-0.3s-0.2,0-0.3,0.1c-0.1,0.1-0.1,0.1-0.2,0.3L337.9,321.3z M341.3,322.3
		c0-0.2,0.1-0.3,0.2-0.5s0.2-0.4,0.4-0.5s0.3-0.4,0.4-0.6c0.1-0.2,0.2-0.4,0.3-0.6c0.1-0.2,0.1-0.4,0.1-0.6c0-0.2-0.1-0.4-0.3-0.5
		c-0.1-0.1-0.2-0.2-0.4-0.2c-0.1,0-0.3,0-0.4,0s-0.2,0.1-0.4,0.2c-0.1,0.1-0.2,0.2-0.3,0.3c-0.2,0.2-0.4,0.5-0.5,0.7
		c-0.1,0.2-0.1,0.5-0.1,0.7c0,0.2,0,0.4,0.1,0.5s0.2,0.3,0.3,0.4L341.3,322.3z"/>
	<path d="M335.6,332.3l-0.7-0.7l0,0c0.2,0.8,0,1.6-0.7,2.2c-0.3,0.3-0.6,0.5-0.8,0.6c-0.3,0.1-0.5,0.1-0.8,0.1
		c-0.3,0-0.5-0.1-0.7-0.3c-0.2-0.2-0.5-0.3-0.7-0.6l-2.8-2.9l0.7-0.7l2.9,3c0.3,0.3,0.6,0.4,0.9,0.4c0.3,0,0.6-0.1,0.9-0.4
		c0.2-0.2,0.4-0.4,0.5-0.7c0.1-0.2,0.1-0.5,0.1-0.7c0-0.2-0.1-0.5-0.2-0.7c-0.1-0.2-0.3-0.4-0.4-0.6l-2.4-2.5l0.7-0.7l4.2,4.5
		L335.6,332.3z"/>
	<path d="M322.7,335.8l0.6,0.7l0,0c-0.1-0.4-0.1-0.8,0.1-1.2s0.4-0.7,0.7-1c0.3-0.3,0.6-0.4,0.9-0.5c0.3-0.1,0.5-0.1,0.8-0.1
		c0.3,0,0.5,0.1,0.7,0.3c0.2,0.2,0.5,0.4,0.7,0.6l2.7,3l-0.8,0.7l-2.8-3.1c-0.3-0.3-0.5-0.4-0.8-0.5c-0.3,0-0.6,0.1-0.9,0.4
		c-0.2,0.2-0.4,0.4-0.5,0.6c-0.1,0.2-0.2,0.4-0.2,0.7c0,0.2,0.1,0.5,0.2,0.7c0.1,0.2,0.2,0.4,0.4,0.6l2.3,2.6l-0.8,0.7l-4.1-4.6
		L322.7,335.8z"/>
	<path d="M316.2,341.8c0.1-0.6,0.5-1.1,1-1.5c0.4-0.3,0.8-0.5,1.1-0.6c0.4-0.1,0.8-0.1,1.1-0.1c0.4,0.1,0.7,0.2,1.1,0.4
		c0.3,0.2,0.7,0.5,1,0.9c0.3,0.4,0.5,0.7,0.7,1.1c0.1,0.4,0.2,0.8,0.2,1.2c0,0.4-0.1,0.7-0.3,1.1c-0.2,0.3-0.4,0.7-0.7,0.9
		c-0.4,0.3-0.8,0.5-1.3,0.6c-0.4,0.1-0.8,0-1.2-0.1c-0.4-0.1-0.7-0.3-1.1-0.6c-0.3-0.3-0.6-0.5-0.8-0.8l3.5-2.9
		c-0.2-0.2-0.4-0.4-0.6-0.5c-0.2-0.1-0.4-0.2-0.7-0.3c-0.2,0-0.5,0-0.8,0c-0.3,0.1-0.5,0.2-0.8,0.4c-0.3,0.3-0.5,0.6-0.6,0.9
		c-0.1,0.3,0,0.7,0.2,1l-0.8,0.6C316.2,343,316.1,342.4,316.2,341.8z M318.9,344.7c0.2,0.1,0.4,0.2,0.6,0.2c0.2,0,0.4,0,0.7-0.1
		c0.2-0.1,0.4-0.2,0.6-0.3c0.2-0.2,0.4-0.4,0.5-0.6c0.1-0.2,0.2-0.4,0.2-0.6c0-0.2,0-0.4-0.1-0.7c-0.1-0.2-0.2-0.4-0.3-0.6l-2.7,2.2
		C318.5,344.5,318.7,344.6,318.9,344.7z"/>
	<path d="M313,345.6c-0.2-0.1-0.3-0.1-0.5-0.1c-0.2,0-0.4,0.1-0.5,0.2c-0.2,0.1-0.3,0.2-0.5,0.3c-0.1,0.1-0.2,0.2-0.4,0.3
		c-0.1,0.1-0.2,0.3-0.3,0.4c-0.1,0.1-0.1,0.3-0.1,0.4c0,0.2,0.1,0.3,0.2,0.5c0.2,0.2,0.4,0.3,0.6,0.3c0.2,0,0.5-0.1,0.8-0.2
		c0.3-0.1,0.6-0.3,0.9-0.4c0.3-0.2,0.6-0.3,0.9-0.4c0.3-0.1,0.6-0.1,0.9,0c0.3,0.1,0.6,0.2,0.8,0.6c0.2,0.2,0.3,0.5,0.3,0.8
		c0,0.3,0,0.5-0.1,0.8c-0.1,0.2-0.2,0.5-0.4,0.7c-0.2,0.2-0.4,0.4-0.6,0.6c-0.3,0.2-0.5,0.4-0.8,0.5c-0.3,0.1-0.5,0.2-0.8,0.2
		c-0.3,0-0.5,0-0.8-0.1c-0.3-0.1-0.5-0.3-0.8-0.6l0.8-0.6c0.1,0.1,0.3,0.2,0.4,0.3c0.1,0.1,0.3,0.1,0.5,0c0.2,0,0.3-0.1,0.5-0.1
		c0.2-0.1,0.3-0.2,0.4-0.3c0.1-0.1,0.2-0.2,0.3-0.3c0.1-0.1,0.2-0.2,0.3-0.4c0.1-0.1,0.1-0.3,0.1-0.4c0-0.1,0-0.3-0.1-0.4
		c-0.1-0.1-0.2-0.2-0.4-0.2s-0.3,0-0.5,0.1c-0.2,0.1-0.4,0.1-0.6,0.2c-0.2,0.1-0.4,0.2-0.7,0.3c-0.2,0.1-0.5,0.2-0.7,0.3
		c-0.2,0.1-0.5,0.1-0.7,0.1c-0.2,0-0.4,0-0.7-0.1c-0.2-0.1-0.4-0.2-0.6-0.5c-0.2-0.3-0.4-0.6-0.4-0.9c0-0.3,0-0.6,0.1-0.8
		s0.3-0.5,0.5-0.8c0.2-0.2,0.4-0.5,0.7-0.6c0.3-0.2,0.5-0.4,0.8-0.5c0.3-0.1,0.6-0.2,0.9-0.2c0.3,0,0.6,0,0.8,0.2
		c0.3,0.1,0.5,0.3,0.8,0.6l-0.8,0.6C313.3,345.8,313.2,345.7,313,345.6z"/>
	<path d="M308,355.4l-0.5-0.7l1-0.7l-2.3-3.1c-0.1-0.1-0.1-0.2-0.2-0.2c-0.1,0-0.1-0.1-0.2-0.1c-0.1,0-0.1,0-0.2,0.1
		c-0.1,0-0.2,0.1-0.3,0.2l-0.4,0.3l-0.5-0.7l0.6-0.5c0.2-0.2,0.4-0.3,0.6-0.4c0.2-0.1,0.3-0.1,0.5-0.1s0.3,0.1,0.4,0.2
		c0.1,0.1,0.3,0.3,0.5,0.5l2.3,3.2l0.8-0.6l0.5,0.7l-0.8,0.6l1.1,1.5l-0.8,0.6l-1.1-1.5L308,355.4z"/>
	<path d="M304.6,357.9l-0.7-1.1l0,0c0.1,0.5,0.1,1-0.1,1.4c-0.2,0.4-0.5,0.7-0.9,1l-0.6-0.9c0.3-0.2,0.6-0.5,0.7-0.7
		s0.3-0.5,0.3-0.8c0-0.3,0-0.6-0.1-0.9c-0.1-0.3-0.3-0.6-0.5-0.9l-1.6-2.2l0.8-0.6l3.5,5L304.6,357.9z"/>
	<path d="M299.6,359.1c0.1,0.4,0.1,0.8,0.1,1.2c0,0.4-0.2,0.7-0.4,1.1c-0.2,0.3-0.5,0.6-0.9,0.9c-0.4,0.3-0.8,0.4-1.2,0.5
		c-0.4,0.1-0.8,0-1.2-0.1c-0.4-0.1-0.7-0.3-1-0.5c-0.3-0.3-0.6-0.6-0.9-1c-0.3-0.4-0.4-0.8-0.5-1.2c-0.1-0.4-0.1-0.8-0.1-1.2
		c0.1-0.4,0.2-0.7,0.4-1.1c0.2-0.3,0.5-0.6,0.9-0.9c0.4-0.3,0.8-0.4,1.2-0.5c0.4-0.1,0.8-0.1,1.2,0c0.4,0.1,0.7,0.3,1,0.5
		c0.3,0.3,0.6,0.6,0.9,0.9C299.3,358.4,299.5,358.7,299.6,359.1z M297.5,357.8c-0.2-0.2-0.5-0.3-0.7-0.4c-0.3-0.1-0.5-0.1-0.8,0
		c-0.3,0-0.5,0.1-0.7,0.3c-0.2,0.1-0.4,0.3-0.5,0.5c-0.1,0.2-0.2,0.5-0.3,0.7c0,0.3,0,0.5,0.1,0.8c0.1,0.3,0.2,0.6,0.4,0.9
		c0.2,0.3,0.4,0.6,0.7,0.7c0.2,0.2,0.5,0.3,0.7,0.4c0.3,0.1,0.5,0.1,0.8,0c0.3,0,0.5-0.1,0.7-0.3c0.2-0.1,0.4-0.3,0.5-0.5
		c0.1-0.2,0.2-0.5,0.3-0.7c0-0.3,0-0.5-0.1-0.8c-0.1-0.3-0.2-0.6-0.4-0.9C297.9,358.3,297.7,358,297.5,357.8z"/>
	<path d="M289.7,362c-0.2-0.1-0.3-0.1-0.5-0.1s-0.4,0-0.5,0.1s-0.4,0.2-0.5,0.3c-0.1,0.1-0.3,0.2-0.4,0.3c-0.1,0.1-0.2,0.2-0.3,0.4
		s-0.1,0.3-0.2,0.4c0,0.2,0,0.3,0.1,0.5c0.1,0.2,0.3,0.3,0.6,0.3c0.2,0,0.5,0,0.8-0.1c0.3-0.1,0.6-0.2,0.9-0.3
		c0.3-0.1,0.7-0.2,1-0.3c0.3-0.1,0.6,0,0.9,0c0.3,0.1,0.5,0.3,0.7,0.6c0.2,0.3,0.2,0.5,0.2,0.8c0,0.3-0.1,0.5-0.2,0.7
		c-0.1,0.2-0.3,0.4-0.5,0.7c-0.2,0.2-0.4,0.4-0.6,0.5c-0.3,0.2-0.6,0.3-0.9,0.4c-0.3,0.1-0.6,0.2-0.8,0.1c-0.3,0-0.5-0.1-0.8-0.2
		c-0.2-0.1-0.5-0.4-0.7-0.7l0.9-0.5c0.1,0.2,0.2,0.3,0.4,0.3c0.1,0.1,0.3,0.1,0.4,0.1c0.2,0,0.3,0,0.5-0.1c0.2-0.1,0.3-0.1,0.4-0.2
		c0.1-0.1,0.3-0.2,0.4-0.3c0.1-0.1,0.2-0.2,0.3-0.3c0.1-0.1,0.1-0.2,0.1-0.4c0-0.1,0-0.3-0.1-0.4c-0.1-0.1-0.2-0.2-0.4-0.3
		s-0.3,0-0.5,0c-0.2,0-0.4,0.1-0.6,0.2c-0.2,0.1-0.5,0.2-0.7,0.2c-0.2,0.1-0.5,0.2-0.7,0.2c-0.2,0.1-0.5,0.1-0.7,0.1
		c-0.2,0-0.4-0.1-0.6-0.2c-0.2-0.1-0.4-0.3-0.5-0.5c-0.2-0.3-0.3-0.6-0.3-0.9c0-0.3,0.1-0.6,0.2-0.8c0.1-0.3,0.3-0.5,0.5-0.7
		c0.2-0.2,0.5-0.4,0.7-0.6c0.3-0.2,0.6-0.3,0.9-0.4c0.3-0.1,0.6-0.1,0.9-0.1s0.6,0.1,0.8,0.2c0.3,0.2,0.5,0.4,0.7,0.7l-0.9,0.5
		C290.1,362.2,289.9,362.1,289.7,362z"/>
	<path d="M277.5,373.5c0.3,0.1,0.7,0,1-0.2c0.3-0.2,0.6-0.4,0.7-0.6c0.1-0.2,0.2-0.5,0.3-0.8c0-0.3,0-0.5-0.1-0.8
		c-0.1-0.3-0.2-0.6-0.4-0.8c-0.1-0.2-0.3-0.5-0.5-0.7s-0.4-0.4-0.6-0.5c-0.2-0.1-0.5-0.2-0.7-0.2c-0.3,0-0.5,0.1-0.8,0.2
		c-0.4,0.2-0.7,0.5-0.8,0.9c-0.1,0.4-0.1,0.8,0.1,1.2l-0.9,0.5c-0.3-0.7-0.3-1.4-0.1-2c0.2-0.6,0.6-1.1,1.3-1.4
		c0.4-0.2,0.8-0.4,1.2-0.4c0.4,0,0.8,0,1.1,0.1c0.3,0.1,0.7,0.3,1,0.6c0.3,0.3,0.5,0.6,0.8,1c0.2,0.4,0.4,0.8,0.5,1.2
		c0.1,0.4,0.1,0.8,0,1.2c-0.1,0.4-0.2,0.7-0.5,1.1c-0.2,0.3-0.6,0.6-1,0.8c-0.3,0.2-0.6,0.3-0.9,0.4c-0.3,0.1-0.6,0.1-0.9,0
		c-0.3,0-0.6-0.1-0.8-0.3s-0.5-0.4-0.7-0.7l0.9-0.5C276.9,373.2,277.2,373.4,277.5,373.5z"/>
	<path d="M273.8,379.3l-3.9-7.5l0.9-0.5l3.9,7.5L273.8,379.3z"/>
	<path d="M268.5,379.4l-2.7-5.5l0.9-0.4l2.7,5.5L268.5,379.4z M269.8,379.9l0.5,1.1l-0.9,0.4l-0.5-1.1L269.8,379.9z"/>
	<path d="M264.2,381.4l-0.4-0.9l0,0c-0.1,0.9-0.5,1.5-1.3,1.8c-0.4,0.2-0.7,0.3-1,0.3c-0.3,0-0.6,0-0.8-0.1
		c-0.2-0.1-0.4-0.3-0.6-0.5c-0.2-0.2-0.3-0.5-0.5-0.8l-1.7-3.7l0.9-0.4l1.7,3.8c0.2,0.3,0.4,0.6,0.7,0.7c0.3,0.1,0.6,0.1,1-0.1
		c0.3-0.1,0.5-0.3,0.7-0.5c0.2-0.2,0.3-0.4,0.3-0.6c0.1-0.2,0.1-0.5,0-0.7c0-0.2-0.1-0.5-0.2-0.7l-1.5-3.2l0.9-0.4l2.6,5.6
		L264.2,381.4z"/>
	<path d="M250.8,381c0.3-0.5,0.8-0.9,1.4-1.1c0.5-0.2,0.9-0.3,1.3-0.3c0.4,0,0.8,0.1,1.1,0.3c0.3,0.2,0.6,0.4,0.9,0.7
		c0.3,0.3,0.5,0.7,0.7,1.1c0.2,0.4,0.3,0.9,0.3,1.3c0,0.4,0,0.8-0.2,1.2c-0.1,0.4-0.3,0.7-0.6,1c-0.3,0.3-0.6,0.5-1,0.7
		c-0.5,0.2-1,0.3-1.4,0.2c-0.4-0.1-0.8-0.2-1.1-0.5c-0.3-0.2-0.6-0.5-0.9-0.9c-0.2-0.3-0.4-0.7-0.5-1l4.2-1.8
		c-0.1-0.3-0.2-0.5-0.4-0.7s-0.3-0.4-0.6-0.5s-0.5-0.2-0.7-0.2c-0.3,0-0.6,0.1-0.9,0.2c-0.4,0.2-0.7,0.4-0.9,0.7s-0.2,0.6-0.1,1
		l-0.9,0.4C250.4,382.1,250.5,381.5,250.8,381z M252.5,384.5c0.2,0.2,0.3,0.3,0.6,0.4c0.2,0.1,0.4,0.1,0.6,0.1c0.2,0,0.5,0,0.7-0.1
		c0.2-0.1,0.4-0.2,0.6-0.4c0.2-0.2,0.3-0.3,0.4-0.6s0.1-0.4,0.1-0.6c0-0.2,0-0.5-0.1-0.7l-3.2,1.3
		C252.2,384.2,252.4,384.4,252.5,384.5z"/>
	<path d="M246.6,388.8l-0.3-0.8l1.1-0.4l-1.4-3.6c0-0.1-0.1-0.2-0.1-0.3c0-0.1-0.1-0.1-0.2-0.1s-0.1,0-0.2,0c-0.1,0-0.2,0.1-0.4,0.1
		l-0.4,0.2l-0.3-0.8l0.7-0.3c0.2-0.1,0.5-0.2,0.6-0.2c0.2,0,0.3,0,0.5,0c0.1,0,0.3,0.1,0.4,0.3c0.1,0.1,0.2,0.3,0.3,0.6l1.4,3.7
		l1-0.4l0.3,0.8l-1,0.4l0.7,1.7l-0.9,0.4l-0.7-1.7L246.6,388.8z"/>
	<path d="M237.5,385.9c0.3-0.5,0.8-0.8,1.5-1.1c0.5-0.2,0.9-0.2,1.3-0.2c0.4,0,0.7,0.1,1.1,0.3c0.3,0.2,0.6,0.5,0.9,0.8
		c0.2,0.3,0.4,0.7,0.6,1.2c0.2,0.4,0.2,0.9,0.2,1.3c0,0.4-0.1,0.8-0.2,1.2c-0.2,0.4-0.4,0.7-0.6,0.9s-0.6,0.5-1,0.6
		c-0.5,0.2-1,0.2-1.4,0.1c-0.4-0.1-0.8-0.3-1.1-0.5s-0.6-0.6-0.8-0.9c-0.2-0.4-0.4-0.7-0.5-1.1l4.3-1.5c-0.1-0.3-0.2-0.5-0.3-0.7
		c-0.1-0.2-0.3-0.4-0.5-0.5s-0.4-0.2-0.7-0.2c-0.3,0-0.6,0-0.9,0.1c-0.4,0.1-0.7,0.3-0.9,0.6c-0.2,0.3-0.3,0.6-0.2,1l-0.9,0.3
		C237.1,386.9,237.2,386.3,237.5,385.9z M239,389.5c0.2,0.2,0.3,0.3,0.5,0.4c0.2,0.1,0.4,0.2,0.6,0.2c0.2,0,0.5,0,0.7-0.1
		c0.2-0.1,0.5-0.2,0.6-0.4s0.3-0.3,0.4-0.5c0.1-0.2,0.1-0.4,0.2-0.6c0-0.2,0-0.5-0.1-0.7l-3.3,1.1
		C238.7,389.2,238.9,389.4,239,389.5z"/>
	<path d="M97.2,379.6c-0.7-0.4-1.1-0.9-1.3-1.5c-0.2-0.6-0.1-1.2,0.2-1.8c0.3-0.4,0.6-0.8,1-1c0.4-0.2,0.9-0.3,1.4-0.1l0,0
		c-0.2-0.2-0.3-0.3-0.4-0.5c-0.1-0.2-0.1-0.3-0.1-0.5c0-0.2,0-0.4,0.1-0.5c0.1-0.2,0.1-0.4,0.2-0.6c0.1-0.2,0.2-0.4,0.3-0.6
		c0.1-0.2,0.2-0.4,0.3-0.6c0.1-0.2,0.1-0.4,0.2-0.6c0-0.2,0-0.4,0-0.6l1.1,0.6c0,0.1,0,0.2,0,0.4s-0.1,0.3-0.2,0.5
		c-0.1,0.2-0.2,0.3-0.3,0.5c-0.1,0.2-0.2,0.4-0.3,0.6c-0.1,0.2-0.1,0.4-0.2,0.6c-0.1,0.2-0.1,0.4-0.1,0.5c0,0.2,0.1,0.3,0.2,0.5
		c0.1,0.2,0.3,0.3,0.5,0.4l2.4,1.4l1.8-3.1l1,0.6l-4.3,7.3L97.2,379.6z M99,376.2c-0.2-0.1-0.4-0.1-0.7-0.1c-0.2,0-0.4,0.1-0.6,0.2
		c-0.2,0.1-0.4,0.3-0.5,0.6c-0.2,0.4-0.3,0.7-0.2,1.1c0.1,0.4,0.3,0.7,0.8,0.9l2.4,1.4l1.5-2.6l-2-1.2
		C99.4,376.4,99.2,376.3,99,376.2z"/>
	<path d="M92.6,367.2c0.6,0,1.2,0.1,1.7,0.5c0.4,0.3,0.7,0.6,0.9,0.9c0.2,0.3,0.3,0.7,0.4,1.1c0,0.4,0,0.8-0.1,1.2
		c-0.1,0.4-0.3,0.8-0.5,1.2c-0.3,0.4-0.5,0.7-0.9,1c-0.3,0.2-0.7,0.4-1.1,0.5c-0.4,0.1-0.7,0.1-1.1,0.1c-0.4-0.1-0.7-0.2-1.1-0.4
		c-0.5-0.3-0.8-0.6-1-1c-0.2-0.4-0.3-0.8-0.3-1.2s0.1-0.8,0.2-1.2s0.3-0.7,0.6-1l3.8,2.5c0.2-0.2,0.3-0.5,0.3-0.7
		c0.1-0.2,0.1-0.5,0.1-0.7c0-0.2-0.1-0.5-0.3-0.7c-0.1-0.2-0.4-0.4-0.6-0.6c-0.4-0.2-0.7-0.3-1-0.3c-0.3,0-0.7,0.2-0.9,0.5L91,368
		C91.5,367.5,92,367.2,92.6,367.2z M90.6,370.6c0,0.2,0,0.5,0,0.7c0,0.2,0.1,0.4,0.3,0.6s0.3,0.4,0.5,0.5c0.2,0.1,0.4,0.2,0.7,0.3
		c0.2,0,0.4,0,0.7,0c0.2-0.1,0.4-0.1,0.6-0.3c0.2-0.1,0.4-0.3,0.5-0.5l-2.9-1.9C90.7,370.1,90.7,370.4,90.6,370.6z"/>
	<path d="M83.5,366.6c0.1,0.3,0.3,0.6,0.6,0.9c0.3,0.2,0.6,0.3,0.9,0.4c0.3,0,0.5,0,0.8-0.1c0.2-0.1,0.5-0.2,0.7-0.4
		c0.2-0.2,0.4-0.4,0.6-0.7c0.2-0.2,0.3-0.5,0.4-0.7c0.1-0.3,0.2-0.5,0.2-0.8s0-0.5-0.2-0.7c-0.1-0.2-0.3-0.4-0.6-0.6
		c-0.4-0.3-0.8-0.4-1.2-0.4s-0.7,0.2-1.1,0.6l-0.8-0.6c0.5-0.6,1.1-0.9,1.7-0.9c0.6-0.1,1.2,0.1,1.9,0.6c0.4,0.3,0.7,0.6,0.9,0.9
		s0.3,0.7,0.4,1c0,0.4,0,0.7-0.1,1.1c-0.1,0.4-0.3,0.8-0.6,1.1c-0.3,0.4-0.6,0.7-0.9,0.9c-0.3,0.3-0.7,0.4-1,0.5
		c-0.4,0.1-0.8,0.1-1.1,0c-0.4-0.1-0.8-0.3-1.2-0.5c-0.3-0.2-0.5-0.4-0.7-0.7c-0.2-0.2-0.3-0.5-0.4-0.8c-0.1-0.3-0.1-0.6-0.1-0.9
		c0-0.3,0.1-0.6,0.3-0.9l0.8,0.6C83.5,365.9,83.4,366.2,83.5,366.6z"/>
	<path d="M79.5,357.1l-0.6,0.8l0,0c0.4-0.2,0.8-0.2,1.2-0.2c0.4,0.1,0.7,0.2,1.1,0.5c0.3,0.2,0.5,0.5,0.7,0.7
		c0.1,0.3,0.2,0.5,0.2,0.8c0,0.3,0,0.5-0.2,0.8c-0.1,0.3-0.3,0.5-0.5,0.8l-2.5,3.2l-0.8-0.6l2.6-3.3c0.2-0.3,0.3-0.6,0.3-0.9
		c0-0.3-0.2-0.6-0.5-0.8c-0.2-0.2-0.5-0.3-0.7-0.4c-0.2-0.1-0.5-0.1-0.7,0c-0.2,0-0.4,0.1-0.6,0.3c-0.2,0.1-0.4,0.3-0.6,0.5
		l-2.2,2.7l-0.8-0.6l3.8-4.8L79.5,357.1z"/>
	<path d="M71.2,358.2l0.5-0.6l0,0c-0.3,0.1-0.7,0.2-1.1,0c-0.4-0.1-0.7-0.3-1-0.6c-0.4-0.3-0.6-0.6-0.8-1c-0.2-0.4-0.2-0.7-0.2-1.1
		c0-0.4,0.1-0.8,0.3-1.1c0.2-0.4,0.4-0.7,0.7-1c0.3-0.3,0.6-0.6,0.9-0.8c0.3-0.2,0.7-0.4,1.1-0.4c0.4-0.1,0.7,0,1.1,0.1
		c0.4,0.1,0.7,0.3,1.1,0.6c0.1,0.1,0.2,0.2,0.3,0.4c0.1,0.1,0.2,0.3,0.3,0.5c0.1,0.2,0.2,0.4,0.2,0.6c0,0.2,0,0.4,0,0.6l0,0l2.1-2.4
		l0.8,0.7l-5.6,6.4L71.2,358.2z M69.9,354.2c-0.1,0.3-0.2,0.5-0.2,0.8s0,0.5,0.1,0.8c0.1,0.3,0.3,0.5,0.5,0.7
		c0.3,0.2,0.5,0.4,0.8,0.4c0.3,0.1,0.5,0,0.8,0c0.3-0.1,0.5-0.2,0.7-0.3c0.2-0.2,0.4-0.4,0.6-0.6c0.2-0.2,0.4-0.5,0.5-0.7
		c0.1-0.3,0.2-0.5,0.2-0.8c0-0.3,0-0.5-0.1-0.8c-0.1-0.3-0.3-0.5-0.5-0.7c-0.3-0.2-0.5-0.4-0.8-0.4c-0.3-0.1-0.5,0-0.8,0
		c-0.3,0.1-0.5,0.2-0.7,0.4c-0.2,0.2-0.5,0.4-0.6,0.6C70.2,353.7,70,353.9,69.9,354.2z"/>
	<path d="M65.9,345.5c0.6,0.1,1.1,0.3,1.6,0.8c0.4,0.3,0.6,0.7,0.8,1c0.2,0.4,0.2,0.7,0.2,1.1c0,0.4-0.1,0.8-0.3,1.1
		c-0.2,0.4-0.4,0.7-0.7,1.1c-0.3,0.3-0.7,0.6-1,0.8c-0.4,0.2-0.7,0.3-1.1,0.3c-0.4,0-0.8,0-1.1-0.1c-0.4-0.1-0.7-0.3-1-0.6
		c-0.4-0.4-0.6-0.8-0.7-1.2c-0.1-0.4-0.1-0.8,0-1.2s0.2-0.8,0.5-1.1c0.2-0.4,0.5-0.7,0.7-0.9l3.3,3.2c0.2-0.2,0.3-0.4,0.5-0.6
		c0.1-0.2,0.2-0.5,0.2-0.7c0-0.2,0-0.5-0.1-0.7s-0.3-0.5-0.5-0.7c-0.3-0.3-0.6-0.5-1-0.5c-0.3,0-0.7,0-1,0.3l-0.7-0.7
		C64.7,345.6,65.3,345.5,65.9,345.5z M63.3,348.6c-0.1,0.2-0.1,0.4-0.1,0.7c0,0.2,0.1,0.4,0.1,0.6c0.1,0.2,0.2,0.4,0.4,0.6
		c0.2,0.2,0.4,0.3,0.6,0.4c0.2,0.1,0.4,0.1,0.6,0.1c0.2,0,0.4-0.1,0.6-0.2c0.2-0.1,0.4-0.2,0.6-0.4l-2.5-2.4
		C63.5,348.1,63.4,348.4,63.3,348.6z"/>
	<path d="M58.2,346l0.9-0.9l0,0c-0.5,0.2-1,0.2-1.4,0.1c-0.4-0.1-0.8-0.3-1.2-0.7l0.8-0.7c0.3,0.3,0.6,0.5,0.8,0.6
		c0.3,0.1,0.6,0.2,0.8,0.2c0.3,0,0.5-0.1,0.8-0.3c0.3-0.2,0.6-0.4,0.8-0.7l2-1.9l0.7,0.7l-4.4,4.3L58.2,346z"/>
	<path d="M55.5,334.1c0.2,0.1,0.4,0.2,0.6,0.4c0.2,0.2,0.3,0.4,0.3,0.6c0,0.2-0.1,0.4-0.4,0.7c0.4,0,0.8,0.1,1.2,0.2
		c0.4,0.2,0.7,0.4,1,0.7c0.2,0.2,0.3,0.4,0.5,0.6c0.1,0.2,0.2,0.5,0.2,0.7c0,0.2,0,0.5-0.1,0.7c-0.1,0.2-0.3,0.4-0.5,0.6
		c-0.3,0.2-0.5,0.4-0.8,0.4c-0.2,0.1-0.5,0.1-0.7,0c-0.2-0.1-0.5-0.1-0.7-0.3c-0.2-0.1-0.4-0.3-0.6-0.4c-0.2-0.2-0.4-0.3-0.6-0.5
		c-0.2-0.2-0.4-0.3-0.5-0.4c-0.2-0.1-0.3-0.2-0.5-0.2c-0.1,0-0.3,0-0.4,0.2c-0.2,0.1-0.3,0.3-0.3,0.5c0,0.2,0,0.3,0,0.4
		c0,0.1,0.1,0.3,0.2,0.4c0.1,0.1,0.2,0.3,0.3,0.4c0.3,0.3,0.6,0.5,0.9,0.6c0.3,0.1,0.6,0,1-0.3l0.7,0.7c-0.3,0.2-0.6,0.4-0.9,0.5
		c-0.3,0.1-0.6,0.1-0.9,0c-0.3-0.1-0.5-0.2-0.8-0.4c-0.3-0.2-0.5-0.4-0.7-0.7c-0.2-0.2-0.4-0.4-0.5-0.7c-0.2-0.2-0.3-0.5-0.3-0.7
		s0-0.5,0-0.7c0.1-0.2,0.2-0.5,0.5-0.7l2.3-2.1c0.2-0.2,0.3-0.3,0.4-0.4c0.1-0.1,0-0.2-0.1-0.3c-0.1-0.1-0.1-0.1-0.2-0.2L55.5,334.1
		z M54.2,337.4c0.2,0,0.3,0.1,0.5,0.2c0.2,0.1,0.3,0.3,0.5,0.4c0.2,0.1,0.3,0.3,0.5,0.4c0.2,0.1,0.4,0.3,0.5,0.3
		c0.2,0.1,0.4,0.1,0.5,0.1c0.2,0,0.4-0.1,0.6-0.3c0.1-0.1,0.2-0.2,0.2-0.4c0-0.1,0-0.3,0-0.4s-0.1-0.3-0.1-0.4
		c-0.1-0.1-0.2-0.2-0.3-0.4c-0.2-0.2-0.4-0.4-0.7-0.5c-0.2-0.1-0.4-0.2-0.6-0.2c-0.2,0-0.4,0-0.6,0.1c-0.2,0.1-0.3,0.1-0.4,0.2
		L54.2,337.4z"/>
	<path d="M48.3,335.1l1-0.8l0,0c-0.5,0.1-1,0.1-1.4,0s-0.8-0.4-1.1-0.8l0.8-0.7c0.3,0.3,0.5,0.5,0.8,0.7c0.3,0.1,0.5,0.2,0.8,0.2
		s0.6-0.1,0.8-0.2c0.3-0.1,0.6-0.3,0.9-0.6l2.1-1.8l0.6,0.8l-4.7,4L48.3,335.1z"/>
	<path d="M41,325.9l0.7-0.5l0,0c-0.8,0-1.5-0.3-2-1c-0.2-0.3-0.4-0.6-0.4-1c-0.1-0.3,0-0.7,0.3-1c-0.4,0-0.8,0-1.1-0.2
		c-0.3-0.2-0.6-0.4-0.9-0.7c-0.2-0.2-0.3-0.5-0.4-0.7c-0.1-0.2-0.1-0.5-0.1-0.7c0-0.2,0.1-0.4,0.2-0.7c0.1-0.2,0.3-0.4,0.6-0.6
		l3.7-2.6l0.6,0.8l-3.3,2.4c-0.2,0.1-0.3,0.2-0.4,0.4c-0.1,0.1-0.2,0.3-0.2,0.4c0,0.1-0.1,0.3,0,0.5c0,0.2,0.1,0.3,0.3,0.5
		c0.3,0.4,0.6,0.6,1,0.7c0.4,0.1,0.8,0,1.2-0.3l3.1-2.2l0.6,0.8l-3.3,2.4c-0.2,0.1-0.3,0.2-0.4,0.4c-0.1,0.1-0.2,0.3-0.2,0.4
		s-0.1,0.3,0,0.5c0,0.2,0.1,0.3,0.2,0.5c0.2,0.2,0.4,0.4,0.6,0.5c0.2,0.1,0.4,0.2,0.6,0.2c0.2,0,0.4,0,0.6-0.1
		c0.2-0.1,0.3-0.1,0.4-0.2l3.1-2.2l0.6,0.8l-5,3.6L41,325.9z"/>
	<path d="M36.6,308.6c0.2,0.1,0.4,0.3,0.5,0.5c0.1,0.2,0.2,0.4,0.2,0.6c0,0.2-0.2,0.4-0.5,0.6c0.4,0.1,0.8,0.2,1.1,0.4
		s0.6,0.5,0.8,0.9c0.1,0.2,0.3,0.5,0.3,0.7c0.1,0.2,0.1,0.5,0.1,0.7c0,0.2-0.1,0.4-0.2,0.7c-0.1,0.2-0.3,0.4-0.6,0.6
		c-0.3,0.2-0.6,0.3-0.8,0.3c-0.3,0-0.5,0-0.7-0.1c-0.2-0.1-0.4-0.2-0.6-0.4c-0.2-0.2-0.4-0.4-0.6-0.5c-0.2-0.2-0.4-0.4-0.5-0.6
		s-0.3-0.4-0.5-0.5s-0.3-0.2-0.4-0.3c-0.1,0-0.3,0-0.5,0.1c-0.2,0.1-0.3,0.3-0.4,0.4c-0.1,0.1-0.1,0.3-0.1,0.4c0,0.1,0,0.3,0.1,0.4
		c0.1,0.1,0.1,0.3,0.2,0.4c0.2,0.4,0.5,0.6,0.8,0.8c0.3,0.2,0.6,0.1,1-0.1l0.5,0.8c-0.3,0.2-0.6,0.3-0.9,0.3c-0.3,0-0.6,0-0.8-0.1
		c-0.3-0.1-0.5-0.3-0.7-0.5c-0.2-0.2-0.4-0.5-0.6-0.8c-0.1-0.2-0.3-0.5-0.4-0.7c-0.1-0.2-0.2-0.5-0.2-0.8s0-0.5,0.1-0.7
		c0.1-0.2,0.3-0.4,0.6-0.6l2.7-1.7c0.2-0.1,0.3-0.2,0.4-0.3c0.1-0.1,0.1-0.2,0-0.3c0-0.1-0.1-0.2-0.2-0.2L36.6,308.6z M34.8,311.7
		c0.1,0.1,0.3,0.2,0.4,0.3c0.1,0.1,0.3,0.3,0.4,0.5c0.1,0.2,0.3,0.3,0.4,0.5c0.2,0.2,0.3,0.3,0.5,0.4c0.2,0.1,0.3,0.2,0.5,0.2
		c0.2,0,0.4,0,0.6-0.2c0.1-0.1,0.2-0.2,0.3-0.3c0.1-0.1,0.1-0.2,0.1-0.4c0-0.1,0-0.3-0.1-0.4c-0.1-0.1-0.1-0.3-0.2-0.4
		c-0.2-0.3-0.4-0.5-0.6-0.6c-0.2-0.1-0.4-0.2-0.6-0.3c-0.2-0.1-0.4-0.1-0.6,0c-0.2,0-0.3,0.1-0.4,0.2L34.8,311.7z"/>
	<path d="M28.4,307l0.8-0.5l0.6,1l3.3-2c0.1-0.1,0.2-0.1,0.2-0.2c0.1-0.1,0.1-0.1,0.1-0.2c0-0.1,0-0.1-0.1-0.2
		c0-0.1-0.1-0.2-0.2-0.3l-0.2-0.4l0.8-0.5l0.4,0.7c0.1,0.2,0.2,0.4,0.3,0.6c0.1,0.2,0.1,0.3,0.1,0.5c0,0.1-0.1,0.3-0.2,0.4
		c-0.1,0.1-0.3,0.3-0.5,0.4l-3.4,2l0.5,0.9l-0.8,0.5l-0.5-0.9l-1.6,0.9l-0.5-0.9l1.6-0.9L28.4,307z"/>
	<path d="M29.7,297.5c0.5,0.2,1,0.7,1.3,1.3c0.2,0.4,0.4,0.8,0.4,1.2c0,0.4,0,0.8-0.1,1.1c-0.1,0.4-0.3,0.7-0.6,1
		c-0.3,0.3-0.6,0.6-1,0.8c-0.4,0.2-0.8,0.4-1.2,0.4c-0.4,0.1-0.8,0.1-1.2,0c-0.4-0.1-0.7-0.2-1-0.5c-0.3-0.2-0.6-0.5-0.8-0.9
		c-0.3-0.5-0.4-0.9-0.4-1.3s0.1-0.8,0.3-1.2c0.2-0.4,0.5-0.7,0.8-0.9c0.3-0.3,0.6-0.5,1-0.7l2.2,4c0.2-0.1,0.4-0.3,0.6-0.5
		c0.2-0.2,0.3-0.4,0.4-0.6c0.1-0.2,0.1-0.5,0.1-0.7c0-0.3-0.1-0.5-0.3-0.8c-0.2-0.4-0.5-0.6-0.8-0.8c-0.3-0.1-0.7-0.2-1.1,0
		l-0.5-0.9C28.6,297.3,29.2,297.3,29.7,297.5z M26.4,299.6c-0.1,0.2-0.2,0.4-0.3,0.6c-0.1,0.2-0.1,0.4-0.1,0.7
		c0,0.2,0.1,0.5,0.2,0.7c0.1,0.2,0.3,0.4,0.5,0.6c0.2,0.1,0.4,0.2,0.6,0.3c0.2,0.1,0.4,0.1,0.7,0c0.2,0,0.4-0.1,0.7-0.2l-1.7-3.1
		C26.7,299.3,26.5,299.5,26.4,299.6z"/>
	<path d="M22.3,295.8l1.2-0.6l0,0c-0.6,0-1-0.1-1.4-0.3c-0.4-0.2-0.7-0.6-0.9-1l1-0.5c0.2,0.4,0.4,0.6,0.6,0.8
		c0.2,0.2,0.5,0.3,0.7,0.4c0.3,0.1,0.6,0.1,0.9,0c0.3-0.1,0.6-0.2,1-0.4l2.4-1.2l0.5,0.9l-5.5,2.8L22.3,295.8z"/>
	<path d="M18.9,291.5l-1.1,0.5l-0.4-0.9l1.1-0.5L18.9,291.5z M19.5,290.1l5.5-2.7l0.4,0.9l-5.5,2.7L19.5,290.1z"/>
	<path d="M21.2,279.2c0.2,0.1,0.3,0.3,0.4,0.6c0.1,0.2,0.1,0.5,0.1,0.7c-0.1,0.2-0.3,0.4-0.6,0.5c0.4,0.1,0.8,0.3,1,0.6
		c0.3,0.3,0.5,0.6,0.7,1c0.1,0.3,0.2,0.5,0.2,0.8c0,0.3,0,0.5,0,0.7c0,0.2-0.2,0.4-0.3,0.6c-0.2,0.2-0.4,0.3-0.7,0.5
		c-0.3,0.1-0.6,0.2-0.9,0.2c-0.3,0-0.5-0.1-0.7-0.2s-0.4-0.3-0.6-0.5c-0.2-0.2-0.3-0.4-0.5-0.6c-0.2-0.2-0.3-0.5-0.4-0.7
		c-0.1-0.2-0.3-0.4-0.4-0.6c-0.1-0.2-0.3-0.3-0.4-0.3c-0.1-0.1-0.3-0.1-0.5,0c-0.2,0.1-0.3,0.2-0.4,0.3c-0.1,0.1-0.1,0.3-0.2,0.4
		s0,0.3,0,0.5c0,0.2,0.1,0.3,0.2,0.5c0.2,0.4,0.4,0.7,0.7,0.9c0.3,0.2,0.6,0.2,1,0l0.4,0.9c-0.4,0.1-0.7,0.2-1,0.2
		c-0.3,0-0.6-0.1-0.8-0.3c-0.2-0.2-0.5-0.3-0.7-0.6c-0.2-0.2-0.4-0.5-0.5-0.8c-0.1-0.3-0.2-0.5-0.3-0.8s-0.1-0.5-0.1-0.8
		c0-0.3,0.1-0.5,0.3-0.7c0.1-0.2,0.4-0.4,0.7-0.5l2.9-1.3c0.2-0.1,0.4-0.2,0.5-0.2c0.1-0.1,0.1-0.2,0-0.3c0-0.1-0.1-0.2-0.2-0.3
		L21.2,279.2z M19,282c0.1,0.1,0.3,0.2,0.4,0.4c0.1,0.2,0.2,0.4,0.4,0.5c0.1,0.2,0.2,0.4,0.4,0.6c0.1,0.2,0.3,0.4,0.4,0.5
		c0.1,0.1,0.3,0.2,0.5,0.3c0.2,0,0.4,0,0.6-0.1c0.2-0.1,0.3-0.2,0.3-0.3s0.1-0.2,0.1-0.4c0-0.1,0-0.3,0-0.4c0-0.1-0.1-0.3-0.1-0.4
		c-0.1-0.3-0.3-0.5-0.5-0.7c-0.2-0.2-0.4-0.3-0.6-0.4c-0.2-0.1-0.4-0.1-0.5-0.1c-0.2,0-0.3,0-0.5,0.1L19,282z"/>
	<path d="M11.9,278.7l7.9-3.2l0.4,0.9l-7.9,3.2L11.9,278.7z"/>
	<path d="M16.5,268.2c0.5,0.3,0.9,0.8,1.1,1.4c0.2,0.5,0.2,0.9,0.2,1.3c0,0.4-0.1,0.8-0.3,1.1c-0.2,0.3-0.4,0.6-0.8,0.9
		c-0.3,0.3-0.7,0.5-1.1,0.7c-0.4,0.2-0.9,0.2-1.3,0.3c-0.4,0-0.8-0.1-1.2-0.2c-0.4-0.1-0.7-0.3-0.9-0.6c-0.3-0.3-0.5-0.6-0.6-1
		c-0.2-0.5-0.2-1-0.2-1.4c0.1-0.4,0.3-0.8,0.5-1.1c0.2-0.3,0.6-0.6,0.9-0.8c0.4-0.2,0.7-0.4,1.1-0.5l1.6,4.3
		c0.3-0.1,0.5-0.2,0.7-0.4c0.2-0.2,0.4-0.3,0.5-0.5c0.1-0.2,0.2-0.5,0.2-0.7c0-0.3,0-0.6-0.1-0.9c-0.2-0.4-0.4-0.7-0.6-0.9
		c-0.3-0.2-0.6-0.2-1-0.2l-0.4-0.9C15.4,267.8,16,267.9,16.5,268.2z M12.9,269.9c-0.2,0.2-0.3,0.3-0.4,0.5c-0.1,0.2-0.1,0.4-0.2,0.6
		c0,0.2,0,0.5,0.1,0.7c0.1,0.2,0.2,0.4,0.4,0.6c0.2,0.2,0.3,0.3,0.5,0.4c0.2,0.1,0.4,0.1,0.6,0.1c0.2,0,0.5,0,0.7-0.1l-1.2-3.3
		C13.2,269.6,13,269.7,12.9,269.9z"/>
	<path d="M13.9,264c0.1-0.1,0.2-0.3,0.2-0.5c0-0.2,0-0.4,0-0.6c0-0.2-0.1-0.4-0.1-0.6c0-0.2-0.1-0.3-0.2-0.5
		c-0.1-0.2-0.2-0.3-0.3-0.4c-0.1-0.1-0.2-0.2-0.4-0.3c-0.1,0-0.3,0-0.5,0c-0.2,0.1-0.4,0.2-0.5,0.5c-0.1,0.2-0.1,0.5-0.1,0.8
		c0,0.3,0,0.6,0.1,1c0,0.4,0.1,0.7,0,1c0,0.3-0.1,0.6-0.3,0.9s-0.4,0.5-0.8,0.6c-0.3,0.1-0.6,0.1-0.8,0.1s-0.5-0.2-0.7-0.3
		c-0.2-0.2-0.4-0.4-0.5-0.6c-0.1-0.2-0.3-0.5-0.4-0.7c-0.1-0.3-0.2-0.6-0.2-0.9c0-0.3,0-0.6,0-0.8c0.1-0.3,0.2-0.5,0.4-0.7
		c0.2-0.2,0.5-0.4,0.8-0.5l0.3,1c-0.2,0.1-0.3,0.2-0.4,0.3c-0.1,0.1-0.2,0.3-0.2,0.4s0,0.3,0,0.5c0,0.2,0.1,0.3,0.1,0.5
		c0,0.1,0.1,0.3,0.2,0.4c0.1,0.1,0.2,0.3,0.3,0.4c0.1,0.1,0.2,0.2,0.3,0.2c0.1,0,0.3,0,0.4,0c0.2-0.1,0.3-0.2,0.4-0.3
		c0.1-0.2,0.1-0.3,0.1-0.5c0-0.2,0-0.4,0-0.7c0-0.2-0.1-0.5-0.1-0.7c0-0.3,0-0.5,0-0.8s0-0.5,0.1-0.7c0.1-0.2,0.2-0.4,0.3-0.6
		c0.2-0.2,0.4-0.3,0.6-0.4c0.4-0.1,0.7-0.1,1-0.1c0.3,0.1,0.5,0.2,0.8,0.4s0.4,0.4,0.6,0.7c0.2,0.3,0.3,0.6,0.4,0.9
		c0.1,0.3,0.2,0.6,0.2,1c0,0.3,0,0.6-0.1,0.9c-0.1,0.3-0.2,0.5-0.4,0.7c-0.2,0.2-0.5,0.4-0.8,0.5l-0.3-1
		C13.7,264.2,13.8,264.1,13.9,264z"/>
</g>
<g>
	<path class="st7" d="M56.8,140.8l1.3,6.6h0l1.3-6.6h2.8v9.3h-1.7v-7.4h0l-1.7,7.4h-1.5l-1.7-7.4h0v7.4H54v-9.3H56.8z"/>
	<path class="st7" d="M63.5,145.1c0-0.4,0.1-0.7,0.2-1c0.1-0.3,0.3-0.5,0.5-0.7c0.2-0.2,0.5-0.3,0.8-0.4c0.3-0.1,0.6-0.1,1-0.1
		c0.5,0,1,0.1,1.3,0.2c0.3,0.1,0.6,0.3,0.8,0.4c0.2,0.2,0.3,0.4,0.4,0.7c0.1,0.3,0.1,0.6,0.1,0.9v3.7c0,0.3,0,0.6,0,0.8
		c0,0.2,0.1,0.4,0.2,0.6H67c-0.1-0.1-0.1-0.2-0.1-0.4s-0.1-0.2-0.1-0.4h0c-0.2,0.4-0.4,0.6-0.7,0.7c-0.3,0.1-0.6,0.2-1.1,0.2
		c-0.3,0-0.6-0.1-0.8-0.2c-0.2-0.1-0.4-0.3-0.5-0.4c-0.1-0.2-0.2-0.4-0.3-0.6c-0.1-0.2-0.1-0.5-0.1-0.7c0-0.3,0-0.6,0.1-0.9
		s0.2-0.4,0.3-0.6c0.1-0.2,0.3-0.3,0.5-0.4c0.2-0.1,0.5-0.2,0.8-0.3l1-0.3c0.3-0.1,0.5-0.2,0.6-0.3c0.1-0.1,0.2-0.3,0.2-0.5
		c0-0.3-0.1-0.5-0.2-0.6c-0.1-0.2-0.3-0.2-0.6-0.2c-0.3,0-0.5,0.1-0.6,0.2s-0.2,0.4-0.2,0.7v0.2h-1.6V145.1z M66.4,146.8
		c-0.1,0.1-0.3,0.1-0.4,0.1c-0.4,0.1-0.6,0.2-0.8,0.4c-0.2,0.2-0.2,0.4-0.2,0.7c0,0.3,0.1,0.5,0.2,0.7c0.1,0.2,0.3,0.3,0.5,0.3
		c0.1,0,0.2,0,0.4-0.1c0.1,0,0.2-0.1,0.4-0.2c0.1-0.1,0.2-0.2,0.3-0.3s0.1-0.3,0.1-0.5v-1.4C66.7,146.7,66.5,146.8,66.4,146.8z"/>
	<path class="st7" d="M72,141.1v2h1v1.2h-1v3.8c0,0.3,0,0.5,0.1,0.6c0.1,0.1,0.3,0.2,0.5,0.2c0.1,0,0.1,0,0.2,0s0.1,0,0.2,0v1.2
		c-0.2,0-0.4,0-0.6,0c-0.2,0-0.4,0-0.6,0c-0.3,0-0.6,0-0.9-0.1c-0.2,0-0.4-0.1-0.5-0.3s-0.2-0.3-0.2-0.6c0-0.2-0.1-0.5-0.1-0.9v-4
		h-0.9v-1.2h0.9v-2H72z"/>
	<path class="st7" d="M75.2,147.4c0,0.2,0,0.4,0,0.6c0,0.2,0.1,0.4,0.1,0.5c0.1,0.2,0.2,0.3,0.3,0.4c0.1,0.1,0.3,0.1,0.4,0.1
		c0.3,0,0.5-0.1,0.7-0.3c0.1-0.2,0.2-0.5,0.3-1h1.6c0,0.8-0.3,1.4-0.7,1.9c-0.4,0.4-1,0.6-1.9,0.6c-0.6,0-1.2-0.1-1.5-0.3
		c-0.4-0.2-0.6-0.5-0.8-0.9s-0.3-0.8-0.3-1.2c0-0.4-0.1-0.9-0.1-1.3c0-0.5,0-0.9,0.1-1.4c0.1-0.4,0.2-0.8,0.4-1.2
		c0.2-0.3,0.5-0.6,0.8-0.8c0.4-0.2,0.8-0.3,1.5-0.3c0.5,0,0.9,0.1,1.3,0.3s0.6,0.4,0.8,0.7c0.2,0.3,0.3,0.7,0.4,1.1
		c0.1,0.4,0.1,0.9,0.1,1.5v0.4h-3.5V147.4z M76.9,145.1c0-0.2-0.1-0.4-0.1-0.5s-0.2-0.3-0.3-0.3c-0.1-0.1-0.3-0.1-0.4-0.1
		c-0.2,0-0.3,0-0.4,0.1c-0.1,0.1-0.2,0.2-0.3,0.3c-0.1,0.1-0.1,0.3-0.1,0.4c0,0.2,0,0.3,0,0.5v0.3H77C77,145.6,77,145.3,76.9,145.1z
		"/>
	<path class="st7" d="M81.4,143.1v0.9h0c0.2-0.3,0.4-0.6,0.7-0.8c0.3-0.2,0.6-0.3,0.9-0.3c0.1,0,0.1,0,0.2,0c0.1,0,0.1,0,0.2,0v1.7
		c-0.1,0-0.2,0-0.3,0s-0.2,0-0.3,0c-0.2,0-0.3,0-0.5,0.1s-0.3,0.1-0.4,0.2c-0.1,0.1-0.2,0.2-0.3,0.4c-0.1,0.2-0.1,0.4-0.1,0.6v4.2
		h-1.8v-7H81.4z"/>
	<path class="st7" d="M85.8,140.7v1.5H84v-1.5H85.8z M85.8,143.1v7H84v-7H85.8z"/>
	<path class="st7" d="M87.1,145.1c0-0.4,0.1-0.7,0.2-1c0.1-0.3,0.3-0.5,0.5-0.7c0.2-0.2,0.5-0.3,0.8-0.4c0.3-0.1,0.6-0.1,1-0.1
		c0.5,0,1,0.1,1.3,0.2c0.3,0.1,0.6,0.3,0.8,0.4c0.2,0.2,0.3,0.4,0.4,0.7c0.1,0.3,0.1,0.6,0.1,0.9v3.7c0,0.3,0,0.6,0,0.8
		c0,0.2,0.1,0.4,0.2,0.6h-1.7c-0.1-0.1-0.1-0.2-0.1-0.4s-0.1-0.2-0.1-0.4h0c-0.2,0.4-0.4,0.6-0.7,0.7c-0.3,0.1-0.6,0.2-1.1,0.2
		c-0.3,0-0.6-0.1-0.8-0.2c-0.2-0.1-0.4-0.3-0.5-0.4c-0.1-0.2-0.2-0.4-0.3-0.6c-0.1-0.2-0.1-0.5-0.1-0.7c0-0.3,0-0.6,0.1-0.9
		s0.2-0.4,0.3-0.6c0.1-0.2,0.3-0.3,0.5-0.4c0.2-0.1,0.5-0.2,0.8-0.3l1-0.3c0.3-0.1,0.5-0.2,0.6-0.3c0.1-0.1,0.2-0.3,0.2-0.5
		c0-0.3-0.1-0.5-0.2-0.6c-0.1-0.2-0.3-0.2-0.6-0.2c-0.3,0-0.5,0.1-0.6,0.2s-0.2,0.4-0.2,0.7v0.2h-1.6V145.1z M90,146.8
		c-0.1,0.1-0.3,0.1-0.4,0.1c-0.4,0.1-0.6,0.2-0.8,0.4c-0.2,0.2-0.2,0.4-0.2,0.7c0,0.3,0.1,0.5,0.2,0.7c0.1,0.2,0.3,0.3,0.5,0.3
		c0.1,0,0.2,0,0.4-0.1c0.1,0,0.2-0.1,0.4-0.2c0.1-0.1,0.2-0.2,0.3-0.3s0.1-0.3,0.1-0.5v-1.4C90.2,146.7,90.1,146.8,90,146.8z"/>
	<path class="st7" d="M94.7,148.1c0,0.3,0.1,0.5,0.2,0.7s0.4,0.3,0.7,0.3c0.3,0,0.5-0.1,0.7-0.2s0.2-0.3,0.2-0.6
		c0-0.2-0.1-0.4-0.2-0.5c-0.1-0.1-0.3-0.2-0.5-0.3l-1.3-0.5c-0.5-0.2-0.9-0.4-1.1-0.7s-0.4-0.7-0.4-1.2c0-0.3,0-0.6,0.1-0.8
		c0.1-0.3,0.2-0.5,0.5-0.7c0.2-0.2,0.5-0.3,0.8-0.5s0.7-0.2,1.2-0.2c0.8,0,1.4,0.2,1.8,0.5s0.6,0.8,0.6,1.5v0.3h-1.6
		c0-0.4-0.1-0.6-0.2-0.8c-0.1-0.2-0.3-0.3-0.6-0.3c-0.2,0-0.4,0.1-0.6,0.2c-0.2,0.1-0.3,0.3-0.3,0.6c0,0.2,0.1,0.3,0.2,0.5
		s0.3,0.3,0.6,0.4l1.1,0.4c0.6,0.2,1,0.4,1.2,0.7s0.4,0.7,0.4,1.3c0,0.4-0.1,0.7-0.2,1c-0.1,0.3-0.3,0.5-0.5,0.7
		c-0.2,0.2-0.5,0.3-0.8,0.4c-0.3,0.1-0.7,0.1-1,0.1c-0.5,0-0.9,0-1.3-0.1c-0.3-0.1-0.6-0.2-0.8-0.4c-0.2-0.2-0.3-0.4-0.4-0.7
		s-0.1-0.6-0.1-0.9v-0.2h1.6V148.1z"/>
	<path class="st7" d="M60.3,158.7v0.7h0c0.2-0.3,0.4-0.6,0.7-0.7c0.2-0.1,0.6-0.2,0.9-0.2c0.7,0,1.3,0.3,1.6,0.9
		c0.3,0.6,0.5,1.5,0.5,2.8c0,1.3-0.2,2.2-0.5,2.8c-0.3,0.6-0.9,0.8-1.6,0.8c-0.3,0-0.6-0.1-0.9-0.2s-0.5-0.3-0.6-0.6h0v2.9h-1.8
		v-9.2H60.3z M60.6,163.9c0.1,0.4,0.4,0.6,0.8,0.6c0.4,0,0.6-0.2,0.8-0.6c0.1-0.4,0.2-1,0.2-1.7s-0.1-1.3-0.2-1.7
		c-0.1-0.4-0.4-0.6-0.8-0.6c-0.4,0-0.7,0.2-0.8,0.6c-0.1,0.4-0.2,1-0.2,1.7S60.5,163.6,60.6,163.9z"/>
	<path class="st7" d="M66.8,158.7v0.9h0c0.2-0.3,0.4-0.6,0.7-0.8c0.3-0.2,0.6-0.3,0.9-0.3c0.1,0,0.1,0,0.2,0c0.1,0,0.1,0,0.2,0v1.7
		c-0.1,0-0.2,0-0.3,0s-0.2,0-0.3,0c-0.2,0-0.3,0-0.5,0.1s-0.3,0.1-0.4,0.2c-0.1,0.1-0.2,0.2-0.3,0.4c-0.1,0.2-0.1,0.4-0.1,0.6v4.2
		h-1.8v-7H66.8z"/>
	<path class="st7" d="M71.3,156.3v1.5h-1.8v-1.5H71.3z M71.3,158.7v7h-1.8v-7H71.3z"/>
	<path class="st7" d="M74.3,158.7v0.7h0c0.2-0.3,0.5-0.6,0.8-0.7c0.3-0.1,0.6-0.2,1-0.2c0.4,0,0.8,0.1,1,0.3
		c0.3,0.2,0.5,0.5,0.6,0.8h0c0.1-0.4,0.4-0.7,0.7-0.8s0.7-0.3,1.1-0.3c0.6,0,1,0.2,1.3,0.5c0.3,0.4,0.4,0.9,0.4,1.6v5.1h-1.8v-4.9
		c0-0.3-0.1-0.5-0.2-0.7c-0.1-0.2-0.3-0.2-0.5-0.2c-0.3,0-0.5,0.1-0.7,0.3c-0.2,0.2-0.3,0.5-0.3,0.9v4.6H76v-4.9
		c0-0.3-0.1-0.5-0.2-0.7c-0.1-0.2-0.3-0.2-0.5-0.2c-0.3,0-0.5,0.1-0.7,0.3c-0.2,0.2-0.3,0.5-0.3,0.9v4.6h-1.8v-7H74.3z"/>
	<path class="st7" d="M82.4,160.7c0-0.4,0.1-0.7,0.2-1c0.1-0.3,0.3-0.5,0.5-0.7c0.2-0.2,0.5-0.3,0.8-0.4c0.3-0.1,0.6-0.1,1-0.1
		c0.5,0,1,0.1,1.3,0.2c0.3,0.1,0.6,0.3,0.8,0.4c0.2,0.2,0.3,0.4,0.4,0.7c0.1,0.3,0.1,0.6,0.1,0.9v3.7c0,0.3,0,0.6,0,0.8
		c0,0.2,0.1,0.4,0.2,0.6h-1.7c-0.1-0.1-0.1-0.2-0.1-0.4s-0.1-0.2-0.1-0.4h0c-0.2,0.4-0.4,0.6-0.7,0.7c-0.3,0.1-0.6,0.2-1.1,0.2
		c-0.3,0-0.6-0.1-0.8-0.2c-0.2-0.1-0.4-0.3-0.5-0.4c-0.1-0.2-0.2-0.4-0.3-0.6c-0.1-0.2-0.1-0.5-0.1-0.7c0-0.3,0-0.6,0.1-0.9
		s0.2-0.4,0.3-0.6c0.1-0.2,0.3-0.3,0.5-0.4c0.2-0.1,0.5-0.2,0.8-0.3l1-0.3c0.3-0.1,0.5-0.2,0.6-0.3c0.1-0.1,0.2-0.3,0.2-0.5
		c0-0.3-0.1-0.5-0.2-0.6c-0.1-0.2-0.3-0.2-0.6-0.2c-0.3,0-0.5,0.1-0.6,0.2s-0.2,0.4-0.2,0.7v0.2h-1.6V160.7z M85.3,162.4
		c-0.1,0.1-0.3,0.1-0.4,0.1c-0.4,0.1-0.6,0.2-0.8,0.4c-0.2,0.2-0.2,0.4-0.2,0.7c0,0.3,0.1,0.5,0.2,0.7c0.1,0.2,0.3,0.3,0.5,0.3
		c0.1,0,0.2,0,0.4-0.1c0.1,0,0.2-0.1,0.4-0.2c0.1-0.1,0.2-0.2,0.3-0.3s0.1-0.3,0.1-0.5v-1.4C85.5,162.3,85.4,162.4,85.3,162.4z"/>
	<path class="st7" d="M90,163.7c0,0.3,0.1,0.5,0.2,0.7s0.4,0.3,0.7,0.3c0.3,0,0.5-0.1,0.7-0.2s0.2-0.3,0.2-0.6
		c0-0.2-0.1-0.4-0.2-0.5c-0.1-0.1-0.3-0.2-0.5-0.3l-1.3-0.5c-0.5-0.2-0.9-0.4-1.1-0.7s-0.4-0.7-0.4-1.2c0-0.3,0-0.6,0.1-0.8
		c0.1-0.3,0.2-0.5,0.5-0.7c0.2-0.2,0.5-0.3,0.8-0.5s0.7-0.2,1.2-0.2c0.8,0,1.4,0.2,1.8,0.5s0.6,0.8,0.6,1.5v0.3h-1.6
		c0-0.4-0.1-0.6-0.2-0.8c-0.1-0.2-0.3-0.3-0.6-0.3c-0.2,0-0.4,0.1-0.6,0.2c-0.2,0.1-0.3,0.3-0.3,0.6c0,0.2,0.1,0.3,0.2,0.5
		s0.3,0.3,0.6,0.4l1.1,0.4c0.6,0.2,1,0.4,1.2,0.7s0.4,0.7,0.4,1.3c0,0.4-0.1,0.7-0.2,1c-0.1,0.3-0.3,0.5-0.5,0.7
		c-0.2,0.2-0.5,0.3-0.8,0.4c-0.3,0.1-0.7,0.1-1,0.1c-0.5,0-0.9,0-1.3-0.1c-0.3-0.1-0.6-0.2-0.8-0.4c-0.2-0.2-0.3-0.4-0.4-0.7
		s-0.1-0.6-0.1-0.9v-0.2H90V163.7z"/>
</g>
<g>
	<path class="st7" d="M185.3,93c0.6,0,1.2,0.1,1.6,0.3c0.4,0.2,0.7,0.5,0.9,0.9c0.2,0.4,0.4,0.9,0.4,1.4c0.1,0.6,0.1,1.2,0.1,1.9
		c0,0.8,0,1.5-0.1,2.1c-0.1,0.6-0.3,1.1-0.5,1.5c-0.2,0.4-0.6,0.7-1,0.9c-0.4,0.2-0.9,0.3-1.5,0.3h-3V93H185.3z M185,100.9
		c0.3,0,0.6-0.1,0.8-0.2c0.2-0.1,0.4-0.3,0.5-0.6c0.1-0.3,0.2-0.6,0.2-1c0-0.4,0.1-1,0.1-1.6c0-0.5,0-1-0.1-1.4c0-0.4-0.1-0.7-0.2-1
		c-0.1-0.3-0.3-0.5-0.5-0.6c-0.2-0.1-0.5-0.2-0.9-0.2h-0.8v6.5H185z"/>
	<path class="st7" d="M191.5,92.9v1.5h-1.8v-1.5H191.5z M191.5,95.3v7h-1.8v-7H191.5z"/>
	<path class="st7" d="M194,100.2c0,0.3,0.1,0.5,0.2,0.7s0.4,0.3,0.7,0.3c0.3,0,0.5-0.1,0.7-0.2c0.2-0.1,0.2-0.3,0.2-0.6
		c0-0.2-0.1-0.4-0.2-0.5c-0.1-0.1-0.3-0.2-0.5-0.3l-1.3-0.5c-0.5-0.2-0.9-0.4-1.1-0.7c-0.3-0.3-0.4-0.7-0.4-1.2c0-0.3,0-0.6,0.1-0.8
		c0.1-0.3,0.2-0.5,0.5-0.7c0.2-0.2,0.5-0.3,0.8-0.5s0.7-0.2,1.2-0.2c0.8,0,1.4,0.2,1.8,0.5c0.4,0.3,0.6,0.8,0.6,1.5v0.3h-1.6
		c0-0.4-0.1-0.6-0.2-0.8s-0.3-0.3-0.6-0.3c-0.2,0-0.4,0.1-0.6,0.2c-0.2,0.1-0.3,0.3-0.3,0.6c0,0.2,0.1,0.3,0.2,0.5s0.3,0.3,0.6,0.4
		l1.1,0.4c0.6,0.2,1,0.4,1.2,0.7c0.2,0.3,0.4,0.7,0.4,1.3c0,0.4-0.1,0.7-0.2,1c-0.1,0.3-0.3,0.5-0.5,0.7c-0.2,0.2-0.5,0.3-0.8,0.4
		c-0.3,0.1-0.7,0.1-1,0.1c-0.5,0-0.9,0-1.3-0.1s-0.6-0.2-0.8-0.4c-0.2-0.2-0.3-0.4-0.4-0.7s-0.1-0.6-0.1-0.9V100h1.6V100.2z"/>
	<path class="st7" d="M200,99.6c0,0.2,0,0.4,0,0.6s0.1,0.4,0.1,0.5c0.1,0.2,0.2,0.3,0.3,0.4c0.1,0.1,0.3,0.1,0.4,0.1
		c0.3,0,0.5-0.1,0.7-0.3c0.1-0.2,0.2-0.5,0.3-1h1.6c0,0.8-0.3,1.4-0.7,1.9c-0.4,0.4-1,0.6-1.9,0.6c-0.6,0-1.2-0.1-1.5-0.3
		c-0.4-0.2-0.6-0.5-0.8-0.9c-0.2-0.4-0.3-0.8-0.3-1.2c0-0.4-0.1-0.9-0.1-1.3c0-0.5,0-0.9,0.1-1.4c0.1-0.4,0.2-0.8,0.4-1.2
		c0.2-0.3,0.5-0.6,0.8-0.8s0.8-0.3,1.5-0.3c0.5,0,0.9,0.1,1.3,0.3c0.3,0.2,0.6,0.4,0.8,0.7c0.2,0.3,0.3,0.7,0.4,1.1s0.1,0.9,0.1,1.5
		v0.4H200V99.6z M201.8,97.3c0-0.2-0.1-0.4-0.1-0.5c-0.1-0.1-0.2-0.3-0.3-0.3s-0.3-0.1-0.4-0.1c-0.2,0-0.3,0-0.4,0.1
		c-0.1,0.1-0.2,0.2-0.3,0.3s-0.1,0.3-0.1,0.4c0,0.2,0,0.3,0,0.5V98h1.8C201.8,97.7,201.8,97.5,201.8,97.3z"/>
	<path class="st7" d="M206.2,95.3v0.8h0c0.2-0.3,0.4-0.6,0.7-0.8c0.3-0.2,0.6-0.2,1-0.2c0.6,0,1,0.2,1.3,0.5s0.5,0.8,0.5,1.5v5.2
		H208v-4.8c0-0.4-0.1-0.6-0.2-0.8s-0.3-0.2-0.6-0.2c-0.6,0-0.9,0.4-0.9,1.2v4.6h-1.8v-7H206.2z M205.5,93.2c0.2-0.3,0.5-0.4,0.8-0.4
		c0.2,0,0.4,0,0.6,0.1l0.6,0.3c0.1,0.1,0.3,0.1,0.4,0.1c0.1,0,0.2-0.1,0.3-0.2c0.1-0.1,0.1-0.2,0.1-0.3h0.9c0,0.5-0.2,0.9-0.4,1.2
		c-0.2,0.3-0.5,0.5-0.8,0.5c-0.1,0-0.3,0-0.4-0.1c-0.1,0-0.3-0.1-0.4-0.1c-0.1-0.1-0.3-0.1-0.4-0.1c-0.1,0-0.2-0.1-0.3-0.1
		c-0.2,0-0.3,0.2-0.4,0.5h-0.9C205.2,93.8,205.3,93.4,205.5,93.2z"/>
	<path class="st7" d="M210.9,97.2c0.1-0.5,0.3-0.8,0.5-1.2s0.5-0.5,0.9-0.7c0.4-0.2,0.8-0.2,1.3-0.2c0.5,0,1,0.1,1.3,0.2
		c0.4,0.2,0.6,0.4,0.8,0.7s0.4,0.7,0.4,1.2c0.1,0.5,0.1,1,0.1,1.6c0,0.6,0,1.1-0.1,1.6c-0.1,0.5-0.3,0.8-0.5,1.2
		c-0.2,0.3-0.5,0.5-0.9,0.7c-0.4,0.1-0.8,0.2-1.3,0.2c-0.5,0-1-0.1-1.3-0.2s-0.6-0.4-0.8-0.7s-0.4-0.7-0.4-1.2
		c-0.1-0.5-0.1-1-0.1-1.6C210.8,98.2,210.8,97.7,210.9,97.2z M212.6,99.8c0,0.3,0.1,0.6,0.1,0.8c0.1,0.2,0.2,0.4,0.3,0.5
		c0.1,0.1,0.3,0.2,0.5,0.2c0.4,0,0.6-0.2,0.8-0.6s0.2-1,0.2-1.9c0-0.9-0.1-1.5-0.2-1.9s-0.4-0.6-0.8-0.6c-0.2,0-0.4,0.1-0.5,0.2
		c-0.1,0.1-0.2,0.3-0.3,0.5c-0.1,0.2-0.1,0.5-0.1,0.8s0,0.6,0,1C212.6,99.2,212.6,99.5,212.6,99.8z"/>
</g>
<g>
	<path class="st7" d="M290.3,177.4c0.5,0,0.9,0.1,1.2,0.2c0.3,0.2,0.6,0.4,0.8,0.6c0.2,0.3,0.3,0.6,0.4,0.9c0.1,0.3,0.1,0.7,0.1,1
		c0,0.5-0.1,0.9-0.2,1.2s-0.3,0.6-0.6,0.9c-0.3,0.2-0.6,0.4-0.9,0.5c-0.4,0.1-0.8,0.2-1.2,0.2h-1v3.7H287v-9.3H290.3z M289.7,181.6
		c0.4,0,0.7-0.1,0.9-0.3s0.3-0.6,0.3-1.1c0-0.5-0.1-0.8-0.3-1.1c-0.2-0.2-0.5-0.4-1-0.4h-0.8v2.8H289.7z"/>
	<path class="st7" d="M295.4,179.7v0.9h0c0.2-0.3,0.4-0.6,0.7-0.8c0.3-0.2,0.6-0.3,0.9-0.3c0.1,0,0.1,0,0.2,0c0.1,0,0.1,0,0.2,0v1.7
		c-0.1,0-0.2,0-0.3,0s-0.2,0-0.3,0c-0.2,0-0.3,0-0.5,0.1c-0.2,0-0.3,0.1-0.4,0.2c-0.1,0.1-0.2,0.2-0.3,0.4c-0.1,0.2-0.1,0.4-0.1,0.6
		v4.2h-1.8v-7H295.4z"/>
	<path class="st7" d="M297.9,181.6c0.1-0.5,0.3-0.8,0.5-1.2c0.2-0.3,0.5-0.5,0.9-0.7c0.4-0.2,0.8-0.2,1.3-0.2c0.5,0,1,0.1,1.3,0.2
		c0.4,0.2,0.6,0.4,0.8,0.7s0.4,0.7,0.4,1.2s0.1,1,0.1,1.6c0,0.6,0,1.1-0.1,1.6c-0.1,0.5-0.3,0.8-0.5,1.2c-0.2,0.3-0.5,0.5-0.9,0.7
		c-0.4,0.1-0.8,0.2-1.3,0.2c-0.5,0-1-0.1-1.3-0.2s-0.6-0.4-0.8-0.7s-0.4-0.7-0.4-1.2c-0.1-0.5-0.1-1-0.1-1.6
		C297.8,182.6,297.8,182.1,297.9,181.6z M299.6,184.2c0,0.3,0.1,0.6,0.1,0.8c0.1,0.2,0.2,0.4,0.3,0.5c0.1,0.1,0.3,0.2,0.5,0.2
		c0.4,0,0.6-0.2,0.8-0.6s0.2-1,0.2-1.9c0-0.9-0.1-1.5-0.2-1.9s-0.4-0.6-0.8-0.6c-0.2,0-0.4,0.1-0.5,0.2c-0.1,0.1-0.2,0.3-0.3,0.5
		c-0.1,0.2-0.1,0.5-0.1,0.8c0,0.3,0,0.6,0,1C299.6,183.6,299.6,183.9,299.6,184.2z"/>
	<path class="st7" d="M307.8,186c-0.2,0.3-0.4,0.6-0.7,0.7c-0.2,0.1-0.6,0.2-0.9,0.2c-0.7,0-1.3-0.3-1.6-0.8
		c-0.3-0.6-0.5-1.5-0.5-2.8c0-1.3,0.2-2.2,0.5-2.8c0.3-0.6,0.9-0.9,1.6-0.9c0.3,0,0.6,0.1,0.9,0.2s0.5,0.3,0.6,0.6h0v-2.9h1.8v9.3
		h-1.7L307.8,186L307.8,186z M306.1,184.9c0.1,0.4,0.4,0.6,0.8,0.6c0.4,0,0.7-0.2,0.8-0.6c0.1-0.4,0.2-1,0.2-1.7s-0.1-1.3-0.2-1.7
		c-0.1-0.4-0.4-0.6-0.8-0.6c-0.4,0-0.6,0.2-0.8,0.6c-0.1,0.4-0.2,1-0.2,1.7S305.9,184.6,306.1,184.9z"/>
	<path class="st7" d="M314.3,185.9c-0.2,0.3-0.4,0.6-0.7,0.7c-0.3,0.1-0.7,0.2-1,0.2c-0.6,0-1-0.1-1.3-0.4c-0.3-0.3-0.5-0.8-0.5-1.5
		v-5.2h1.8v4.8c0,0.4,0.1,0.6,0.2,0.8c0.1,0.1,0.3,0.2,0.6,0.2c0.6,0,0.9-0.4,0.9-1.2v-4.6h1.8v7h-1.7L314.3,185.9L314.3,185.9z"/>
	<path class="st7" d="M320.6,181.7c0-0.2-0.1-0.3-0.1-0.4c-0.1-0.1-0.1-0.2-0.2-0.3c-0.1-0.1-0.2-0.1-0.4-0.1c-0.2,0-0.4,0-0.5,0.1
		s-0.2,0.2-0.3,0.4c-0.1,0.2-0.1,0.4-0.1,0.7c0,0.3,0,0.7,0,1.1c0,0.4,0,0.8,0,1.1c0,0.3,0.1,0.6,0.1,0.8s0.2,0.3,0.3,0.4
		c0.1,0.1,0.3,0.1,0.5,0.1c0.3,0,0.5-0.1,0.7-0.4c0.1-0.3,0.2-0.7,0.2-1.2h1.7c0,0.9-0.2,1.6-0.6,2.1c-0.4,0.5-1.1,0.7-2,0.7
		c-0.5,0-0.8-0.1-1.2-0.2c-0.3-0.1-0.6-0.3-0.8-0.6c-0.2-0.3-0.4-0.7-0.5-1.1c-0.1-0.5-0.2-1.1-0.2-1.8c0-0.7,0.1-1.3,0.2-1.8
		c0.1-0.5,0.3-0.8,0.6-1.1c0.3-0.3,0.5-0.5,0.9-0.6s0.7-0.2,1.1-0.2c0.8,0,1.5,0.2,1.9,0.7c0.4,0.5,0.6,1.1,0.6,2h-1.7
		C320.6,182.1,320.6,181.9,320.6,181.7z"/>
	<path class="st7" d="M326.6,181.7c0-0.2-0.1-0.3-0.1-0.4c-0.1-0.1-0.1-0.2-0.2-0.3c-0.1-0.1-0.2-0.1-0.4-0.1c-0.2,0-0.4,0-0.5,0.1
		s-0.2,0.2-0.3,0.4c-0.1,0.2-0.1,0.4-0.1,0.7c0,0.3,0,0.7,0,1.1c0,0.4,0,0.8,0,1.1c0,0.3,0.1,0.6,0.1,0.8s0.2,0.3,0.3,0.4
		c0.1,0.1,0.3,0.1,0.5,0.1c0.3,0,0.5-0.1,0.7-0.4c0.1-0.3,0.2-0.7,0.2-1.2h1.7c0,0.9-0.2,1.6-0.6,2.1c-0.4,0.5-1.1,0.7-2,0.7
		c-0.5,0-0.8-0.1-1.2-0.2c-0.3-0.1-0.6-0.3-0.8-0.6s-0.4-0.7-0.5-1.1c-0.1-0.5-0.2-1.1-0.2-1.8c0-0.7,0.1-1.3,0.2-1.8
		c0.1-0.5,0.3-0.8,0.6-1.1c0.3-0.3,0.6-0.5,0.9-0.6s0.7-0.2,1.1-0.2c0.8,0,1.5,0.2,1.9,0.7c0.4,0.5,0.6,1.1,0.6,2h-1.7
		C326.6,182.1,326.6,181.9,326.6,181.7z"/>
	<path class="st7" d="M331.2,177.3v1.5h-1.8v-1.5H331.2z M331.2,179.7v7h-1.8v-7H331.2z"/>
	<path class="st7" d="M332.3,181.6c0.1-0.5,0.3-0.8,0.5-1.2s0.5-0.5,0.9-0.7c0.4-0.2,0.8-0.2,1.3-0.2c0.5,0,1,0.1,1.3,0.2
		c0.4,0.2,0.6,0.4,0.8,0.7s0.4,0.7,0.4,1.2c0.1,0.5,0.1,1,0.1,1.6c0,0.6,0,1.1-0.1,1.6c-0.1,0.5-0.3,0.8-0.5,1.2
		c-0.2,0.3-0.5,0.5-0.9,0.7c-0.4,0.1-0.8,0.2-1.3,0.2c-0.5,0-1-0.1-1.3-0.2s-0.6-0.4-0.8-0.7s-0.4-0.7-0.4-1.2
		c-0.1-0.5-0.1-1-0.1-1.6C332.2,182.6,332.2,182.1,332.3,181.6z M334,184.2c0,0.3,0.1,0.6,0.1,0.8c0.1,0.2,0.2,0.4,0.3,0.5
		c0.1,0.1,0.3,0.2,0.5,0.2c0.4,0,0.6-0.2,0.8-0.6s0.2-1,0.2-1.9c0-0.9-0.1-1.5-0.2-1.9s-0.4-0.6-0.8-0.6c-0.2,0-0.4,0.1-0.5,0.2
		c-0.1,0.1-0.2,0.3-0.3,0.5c-0.1,0.2-0.1,0.5-0.1,0.8s0,0.6,0,1C334,183.6,334,183.9,334,184.2z M336.6,177l-1.3,1.9h-1.2l0.7-1.9
		H336.6z"/>
	<path class="st7" d="M340.4,179.7v0.8h0c0.2-0.3,0.4-0.6,0.7-0.8c0.3-0.2,0.7-0.2,1-0.2c0.6,0,1,0.2,1.3,0.5s0.5,0.8,0.5,1.5v5.2
		h-1.8v-4.8c0-0.4-0.1-0.6-0.2-0.8c-0.1-0.1-0.3-0.2-0.6-0.2c-0.6,0-0.9,0.4-0.9,1.2v4.6h-1.8v-7H340.4z"/>
</g>
<g>
	<path class="st7" d="M265,283.9c0.7,0,1.2,0.1,1.6,0.3c0.4,0.2,0.7,0.5,0.9,0.9c0.2,0.4,0.4,0.9,0.4,1.4s0.1,1.2,0.1,1.9
		c0,0.8,0,1.5-0.1,2.1s-0.3,1.1-0.5,1.5c-0.2,0.4-0.6,0.7-1,0.9c-0.4,0.2-0.9,0.3-1.5,0.3h-3v-9.3H265z M264.7,291.8
		c0.3,0,0.6-0.1,0.8-0.2c0.2-0.1,0.4-0.3,0.5-0.6c0.1-0.3,0.2-0.6,0.2-1c0-0.4,0.1-1,0.1-1.6c0-0.5,0-1-0.1-1.4c0-0.4-0.1-0.7-0.2-1
		s-0.3-0.5-0.5-0.6c-0.2-0.1-0.5-0.2-0.9-0.2h-0.8v6.5H264.7z"/>
	<path class="st7" d="M271.1,283.7v1.5h-1.8v-1.5H271.1z M271.1,286.1v7h-1.8v-7H271.1z"/>
	<path class="st7" d="M273.7,291.1c0,0.3,0.1,0.5,0.2,0.7s0.4,0.3,0.7,0.3c0.3,0,0.5-0.1,0.7-0.2c0.2-0.1,0.2-0.3,0.2-0.6
		c0-0.2-0.1-0.4-0.2-0.5s-0.3-0.2-0.5-0.3l-1.3-0.5c-0.5-0.2-0.9-0.4-1.1-0.7c-0.3-0.3-0.4-0.7-0.4-1.2c0-0.3,0-0.6,0.1-0.8
		c0.1-0.3,0.2-0.5,0.5-0.7c0.2-0.2,0.5-0.3,0.8-0.5c0.3-0.1,0.7-0.2,1.2-0.2c0.8,0,1.4,0.2,1.8,0.5c0.4,0.3,0.6,0.8,0.6,1.5v0.3
		h-1.6c0-0.4-0.1-0.6-0.2-0.8s-0.3-0.3-0.6-0.3c-0.2,0-0.4,0.1-0.6,0.2s-0.3,0.3-0.3,0.6c0,0.2,0.1,0.3,0.2,0.5s0.3,0.3,0.6,0.4
		l1.1,0.4c0.6,0.2,1,0.4,1.2,0.7c0.2,0.3,0.4,0.7,0.4,1.3c0,0.4-0.1,0.7-0.2,1c-0.1,0.3-0.3,0.5-0.5,0.7s-0.5,0.3-0.8,0.4
		c-0.3,0.1-0.7,0.1-1,0.1c-0.5,0-0.9,0-1.3-0.1c-0.3-0.1-0.6-0.2-0.8-0.4c-0.2-0.2-0.3-0.4-0.4-0.7c-0.1-0.3-0.1-0.6-0.1-0.9v-0.2
		h1.6V291.1z"/>
	<path class="st7" d="M280.3,284.1v2h1v1.2h-1v3.8c0,0.3,0,0.5,0.1,0.6c0.1,0.1,0.3,0.2,0.5,0.2c0.1,0,0.1,0,0.2,0
		c0.1,0,0.1,0,0.2,0v1.2c-0.2,0-0.4,0-0.6,0c-0.2,0-0.4,0-0.6,0c-0.3,0-0.6,0-0.9-0.1c-0.2,0-0.4-0.1-0.5-0.3
		c-0.1-0.1-0.2-0.3-0.2-0.6c0-0.2-0.1-0.5-0.1-0.9v-4h-0.9v-1.2h0.9v-2H280.3z"/>
	<path class="st7" d="M283.7,286.1v0.9h0c0.2-0.3,0.4-0.6,0.7-0.8c0.3-0.2,0.6-0.3,0.9-0.3c0.1,0,0.1,0,0.2,0c0.1,0,0.1,0,0.2,0v1.7
		c-0.1,0-0.2,0-0.3,0c-0.1,0-0.2,0-0.3,0c-0.2,0-0.3,0-0.5,0.1c-0.2,0-0.3,0.1-0.4,0.2s-0.2,0.2-0.3,0.4c-0.1,0.2-0.1,0.4-0.1,0.6
		v4.2H282v-7H283.7z"/>
	<path class="st7" d="M288.2,283.7v1.5h-1.8v-1.5H288.2z M288.2,286.1v7h-1.8v-7H288.2z"/>
	<path class="st7" d="M291.3,283.9v2.9h0c0.2-0.3,0.4-0.5,0.6-0.6s0.5-0.2,0.9-0.2c0.7,0,1.3,0.3,1.6,0.9s0.5,1.5,0.5,2.8
		s-0.2,2.2-0.5,2.8s-0.9,0.8-1.6,0.8c-0.4,0-0.7-0.1-0.9-0.2c-0.2-0.1-0.5-0.4-0.7-0.7h0v0.7h-1.7v-9.3H291.3z M291.4,291.4
		c0.1,0.4,0.4,0.6,0.8,0.6c0.4,0,0.6-0.2,0.8-0.6c0.1-0.4,0.2-1,0.2-1.7s-0.1-1.3-0.2-1.7c-0.1-0.4-0.4-0.6-0.8-0.6
		c-0.4,0-0.7,0.2-0.8,0.6s-0.2,1-0.2,1.7S291.3,291,291.4,291.4z"/>
	<path class="st7" d="M299.5,292.3c-0.2,0.3-0.4,0.6-0.7,0.7c-0.3,0.1-0.7,0.2-1,0.2c-0.6,0-1-0.1-1.3-0.4s-0.5-0.8-0.5-1.5v-5.2
		h1.8v4.8c0,0.4,0.1,0.6,0.2,0.8c0.1,0.1,0.3,0.2,0.6,0.2c0.6,0,0.9-0.4,0.9-1.2v-4.6h1.8v7h-1.7L299.5,292.3L299.5,292.3z"/>
	<path class="st7" d="M305.8,288.2c0-0.2-0.1-0.3-0.1-0.4c-0.1-0.1-0.1-0.2-0.2-0.3c-0.1-0.1-0.2-0.1-0.4-0.1c-0.2,0-0.4,0-0.5,0.1
		s-0.2,0.2-0.3,0.4c-0.1,0.2-0.1,0.4-0.1,0.7c0,0.3,0,0.7,0,1.1c0,0.4,0,0.8,0,1.1c0,0.3,0.1,0.6,0.1,0.8s0.2,0.3,0.3,0.4
		c0.1,0.1,0.3,0.1,0.5,0.1c0.3,0,0.5-0.1,0.7-0.4c0.1-0.3,0.2-0.7,0.2-1.2h1.7c0,0.9-0.2,1.6-0.6,2.1c-0.4,0.5-1.1,0.7-2,0.7
		c-0.5,0-0.8-0.1-1.2-0.2c-0.3-0.1-0.6-0.3-0.8-0.6c-0.2-0.3-0.4-0.7-0.5-1.1c-0.1-0.5-0.2-1.1-0.2-1.8c0-0.7,0.1-1.3,0.2-1.8
		c0.1-0.5,0.3-0.8,0.6-1.1c0.3-0.3,0.5-0.5,0.9-0.6c0.3-0.1,0.7-0.2,1.1-0.2c0.8,0,1.5,0.2,1.9,0.7c0.4,0.5,0.6,1.1,0.6,2h-1.7
		C305.8,288.5,305.8,288.3,305.8,288.2z"/>
	<path class="st7" d="M310.3,283.7v1.5h-1.8v-1.5H310.3z M310.3,286.1v7h-1.8v-7H310.3z"/>
	<path class="st7" d="M311.5,288c0.1-0.5,0.3-0.8,0.5-1.2s0.5-0.5,0.9-0.7c0.4-0.2,0.8-0.2,1.3-0.2c0.5,0,1,0.1,1.3,0.2
		c0.4,0.2,0.6,0.4,0.8,0.7c0.2,0.3,0.4,0.7,0.4,1.2c0.1,0.5,0.1,1,0.1,1.6c0,0.6,0,1.1-0.1,1.6c-0.1,0.5-0.3,0.8-0.5,1.2
		s-0.5,0.5-0.9,0.7c-0.4,0.1-0.8,0.2-1.3,0.2c-0.5,0-1-0.1-1.3-0.2c-0.4-0.1-0.6-0.4-0.8-0.7s-0.4-0.7-0.4-1.2
		c-0.1-0.5-0.1-1-0.1-1.6C311.4,289,311.4,288.5,311.5,288z M313.2,290.6c0,0.3,0.1,0.6,0.1,0.8c0.1,0.2,0.2,0.4,0.3,0.5
		c0.1,0.1,0.3,0.2,0.5,0.2c0.4,0,0.6-0.2,0.8-0.6c0.1-0.4,0.2-1,0.2-1.9s-0.1-1.5-0.2-1.9c-0.1-0.4-0.4-0.6-0.8-0.6
		c-0.2,0-0.4,0.1-0.5,0.2c-0.1,0.1-0.2,0.3-0.3,0.5c-0.1,0.2-0.1,0.5-0.1,0.8c0,0.3,0,0.6,0,1S313.2,290.3,313.2,290.6z
		 M315.8,283.4l-1.3,1.9h-1.2l0.7-1.9H315.8z"/>
	<path class="st7" d="M319.6,286.1v0.8h0c0.2-0.3,0.4-0.6,0.7-0.8s0.7-0.2,1-0.2c0.6,0,1,0.2,1.3,0.5c0.3,0.3,0.5,0.8,0.5,1.5v5.2
		h-1.8v-4.8c0-0.4-0.1-0.6-0.2-0.8c-0.1-0.1-0.3-0.2-0.6-0.2c-0.6,0-0.9,0.4-0.9,1.2v4.6h-1.8v-7H319.6z"/>
</g>
<g>
	<path class="st7" d="M164.4,339.8c0.8,0,1.4,0.2,1.8,0.6c0.4,0.4,0.6,1,0.6,1.8c0,0.6-0.1,1.1-0.4,1.5c-0.3,0.4-0.6,0.6-1.2,0.8v0
		c0.5,0.1,0.8,0.2,1,0.5c0.2,0.2,0.4,0.6,0.4,1.1c0,0.2,0,0.4,0,0.6c0,0.2,0,0.4,0,0.7c0,0.5,0,0.9,0.1,1.1c0.1,0.3,0.2,0.4,0.3,0.5
		v0.1h-2c-0.1-0.1-0.2-0.3-0.2-0.4c0-0.2,0-0.3-0.1-0.5l-0.1-1.8c0-0.4-0.1-0.7-0.3-0.9s-0.4-0.3-0.8-0.3h-1v3.9H161v-9.3H164.4z
		 M163.6,343.8c0.5,0,0.8-0.1,1-0.3c0.2-0.2,0.4-0.6,0.4-1.1c0-0.9-0.4-1.3-1.3-1.3h-0.9v2.7H163.6z"/>
	<path class="st7" d="M169.7,346.4c0,0.2,0,0.4,0,0.6c0,0.2,0.1,0.4,0.1,0.5c0.1,0.2,0.2,0.3,0.3,0.4c0.1,0.1,0.3,0.1,0.4,0.1
		c0.3,0,0.5-0.1,0.7-0.3c0.1-0.2,0.2-0.5,0.3-1h1.6c0,0.8-0.3,1.4-0.7,1.9c-0.4,0.4-1,0.6-1.9,0.6c-0.6,0-1.2-0.1-1.5-0.3
		c-0.4-0.2-0.6-0.5-0.8-0.9s-0.3-0.8-0.3-1.2s-0.1-0.9-0.1-1.3c0-0.5,0-0.9,0.1-1.4s0.2-0.8,0.4-1.2c0.2-0.3,0.5-0.6,0.8-0.8
		c0.4-0.2,0.8-0.3,1.5-0.3c0.5,0,0.9,0.1,1.3,0.3s0.6,0.4,0.8,0.7c0.2,0.3,0.3,0.7,0.4,1.1c0.1,0.4,0.1,0.9,0.1,1.5v0.4h-3.5V346.4z
		 M171.5,344.1c0-0.2-0.1-0.4-0.1-0.5c-0.1-0.1-0.2-0.3-0.3-0.3c-0.1-0.1-0.3-0.1-0.4-0.1c-0.2,0-0.3,0-0.4,0.1
		c-0.1,0.1-0.2,0.2-0.3,0.3c-0.1,0.1-0.1,0.3-0.1,0.4c0,0.2,0,0.3,0,0.5v0.3h1.8C171.5,344.5,171.5,344.3,171.5,344.1z"/>
	<path class="st7" d="M177.5,344.1c0-0.2-0.1-0.3-0.1-0.4c-0.1-0.1-0.1-0.2-0.2-0.3c-0.1-0.1-0.2-0.1-0.4-0.1c-0.2,0-0.4,0-0.5,0.1
		s-0.2,0.2-0.3,0.4c-0.1,0.2-0.1,0.4-0.1,0.7s0,0.7,0,1.1c0,0.4,0,0.8,0,1.1s0.1,0.6,0.1,0.8s0.2,0.3,0.3,0.4s0.3,0.1,0.5,0.1
		c0.3,0,0.5-0.1,0.7-0.4c0.1-0.3,0.2-0.7,0.2-1.2h1.7c0,0.9-0.2,1.6-0.6,2.1c-0.4,0.5-1.1,0.7-2,0.7c-0.5,0-0.8-0.1-1.2-0.2
		s-0.6-0.3-0.8-0.6c-0.2-0.3-0.4-0.7-0.5-1.1c-0.1-0.5-0.2-1.1-0.2-1.8c0-0.7,0.1-1.3,0.2-1.8c0.1-0.5,0.3-0.8,0.6-1.1
		c0.3-0.3,0.6-0.5,0.9-0.6c0.3-0.1,0.7-0.2,1.1-0.2c0.8,0,1.5,0.2,1.9,0.7s0.6,1.1,0.6,2h-1.7C177.5,344.4,177.5,344.3,177.5,344.1z
		"/>
	<path class="st7" d="M180.1,344c0.1-0.5,0.3-0.8,0.5-1.2c0.2-0.3,0.5-0.5,0.9-0.7s0.8-0.2,1.3-0.2c0.5,0,1,0.1,1.3,0.2
		c0.4,0.2,0.6,0.4,0.8,0.7c0.2,0.3,0.4,0.7,0.4,1.2c0.1,0.5,0.1,1,0.1,1.6c0,0.6,0,1.1-0.1,1.6s-0.3,0.8-0.5,1.2
		c-0.2,0.3-0.5,0.5-0.9,0.7s-0.8,0.2-1.3,0.2c-0.5,0-1-0.1-1.3-0.2c-0.4-0.1-0.6-0.4-0.8-0.7s-0.4-0.7-0.4-1.2
		c-0.1-0.5-0.1-1-0.1-1.6C180,345,180,344.4,180.1,344z M181.8,346.6c0,0.3,0.1,0.6,0.1,0.8c0.1,0.2,0.2,0.4,0.3,0.5
		c0.1,0.1,0.3,0.2,0.5,0.2c0.4,0,0.6-0.2,0.8-0.6c0.1-0.4,0.2-1,0.2-1.9s-0.1-1.5-0.2-1.9c-0.1-0.4-0.4-0.6-0.8-0.6
		c-0.2,0-0.4,0.1-0.5,0.2c-0.1,0.1-0.2,0.3-0.3,0.5c-0.1,0.2-0.1,0.5-0.1,0.8c0,0.3,0,0.6,0,1S181.8,346.3,181.8,346.6z"/>
	<path class="st7" d="M188.3,339.8v9.3h-1.8v-9.3H188.3z"/>
	<path class="st7" d="M191.1,346.4c0,0.2,0,0.4,0,0.6c0,0.2,0.1,0.4,0.1,0.5c0.1,0.2,0.2,0.3,0.3,0.4c0.1,0.1,0.3,0.1,0.4,0.1
		c0.3,0,0.5-0.1,0.7-0.3s0.2-0.5,0.3-1h1.6c0,0.8-0.3,1.4-0.7,1.9s-1,0.6-1.9,0.6c-0.6,0-1.2-0.1-1.5-0.3c-0.4-0.2-0.6-0.5-0.8-0.9
		s-0.3-0.8-0.3-1.2s-0.1-0.9-0.1-1.3c0-0.5,0-0.9,0.1-1.4s0.2-0.8,0.4-1.2c0.2-0.3,0.5-0.6,0.8-0.8c0.4-0.2,0.8-0.3,1.5-0.3
		c0.5,0,0.9,0.1,1.3,0.3s0.6,0.4,0.8,0.7c0.2,0.3,0.3,0.7,0.4,1.1c0.1,0.4,0.1,0.9,0.1,1.5v0.4h-3.5V346.4z M192.9,344.1
		c0-0.2-0.1-0.4-0.1-0.5c-0.1-0.1-0.2-0.3-0.3-0.3c-0.1-0.1-0.3-0.1-0.4-0.1c-0.2,0-0.3,0-0.4,0.1c-0.1,0.1-0.2,0.2-0.3,0.3
		c-0.1,0.1-0.1,0.3-0.1,0.4c0,0.2,0,0.3,0,0.5v0.3h1.8C192.9,344.5,192.9,344.3,192.9,344.1z"/>
	<path class="st7" d="M198.9,344.1c0-0.2-0.1-0.3-0.1-0.4c-0.1-0.1-0.1-0.2-0.2-0.3c-0.1-0.1-0.2-0.1-0.4-0.1c-0.2,0-0.4,0-0.5,0.1
		s-0.2,0.2-0.3,0.4c-0.1,0.2-0.1,0.4-0.1,0.7c0,0.3,0,0.7,0,1.1c0,0.4,0,0.8,0,1.1c0,0.3,0.1,0.6,0.1,0.8s0.2,0.3,0.3,0.4
		c0.1,0.1,0.3,0.1,0.5,0.1c0.3,0,0.5-0.1,0.7-0.4c0.1-0.3,0.2-0.7,0.2-1.2h1.7c0,0.9-0.2,1.6-0.6,2.1c-0.4,0.5-1.1,0.7-2,0.7
		c-0.5,0-0.8-0.1-1.2-0.2s-0.6-0.3-0.8-0.6c-0.2-0.3-0.4-0.7-0.5-1.1c-0.1-0.5-0.2-1.1-0.2-1.8c0-0.7,0.1-1.3,0.2-1.8
		c0.1-0.5,0.3-0.8,0.6-1.1c0.3-0.3,0.6-0.5,0.9-0.6c0.3-0.1,0.7-0.2,1.1-0.2c0.8,0,1.5,0.2,1.9,0.7s0.6,1.1,0.6,2h-1.7
		C198.9,344.4,198.9,344.3,198.9,344.1z"/>
	<path class="st7" d="M204.9,344.1c0-0.2-0.1-0.3-0.1-0.4c-0.1-0.1-0.1-0.2-0.2-0.3c-0.1-0.1-0.2-0.1-0.4-0.1c-0.2,0-0.4,0-0.5,0.1
		s-0.2,0.2-0.3,0.4c-0.1,0.2-0.1,0.4-0.1,0.7s0,0.7,0,1.1c0,0.4,0,0.8,0,1.1s0.1,0.6,0.1,0.8c0.1,0.2,0.2,0.3,0.3,0.4
		s0.3,0.1,0.5,0.1c0.3,0,0.5-0.1,0.7-0.4c0.1-0.3,0.2-0.7,0.2-1.2h1.7c0,0.9-0.2,1.6-0.6,2.1c-0.4,0.5-1.1,0.7-2,0.7
		c-0.5,0-0.8-0.1-1.2-0.2c-0.3-0.1-0.6-0.3-0.8-0.6c-0.2-0.3-0.4-0.7-0.5-1.1c-0.1-0.5-0.2-1.1-0.2-1.8c0-0.7,0.1-1.3,0.2-1.8
		c0.1-0.5,0.3-0.8,0.6-1.1c0.3-0.3,0.6-0.5,0.9-0.6c0.3-0.1,0.7-0.2,1.1-0.2c0.8,0,1.5,0.2,1.9,0.7c0.4,0.5,0.6,1.1,0.6,2H205
		C205,344.4,205,344.3,204.9,344.1z"/>
	<path class="st7" d="M209.5,339.7v1.5h-1.8v-1.5H209.5z M209.5,342.1v7h-1.8v-7H209.5z"/>
	<path class="st7" d="M210.6,344c0.1-0.5,0.3-0.8,0.5-1.2s0.5-0.5,0.9-0.7c0.4-0.2,0.8-0.2,1.3-0.2c0.5,0,1,0.1,1.3,0.2
		c0.4,0.2,0.6,0.4,0.8,0.7c0.2,0.3,0.4,0.7,0.4,1.2c0.1,0.5,0.1,1,0.1,1.6c0,0.6,0,1.1-0.1,1.6c-0.1,0.5-0.3,0.8-0.5,1.2
		c-0.2,0.3-0.5,0.5-0.9,0.7c-0.4,0.1-0.8,0.2-1.3,0.2c-0.5,0-1-0.1-1.3-0.2c-0.4-0.1-0.6-0.4-0.8-0.7c-0.2-0.3-0.4-0.7-0.4-1.2
		c-0.1-0.5-0.1-1-0.1-1.6C210.5,345,210.6,344.4,210.6,344z M212.3,346.6c0,0.3,0.1,0.6,0.1,0.8c0.1,0.2,0.2,0.4,0.3,0.5
		c0.1,0.1,0.3,0.2,0.5,0.2c0.4,0,0.6-0.2,0.8-0.6c0.1-0.4,0.2-1,0.2-1.9s-0.1-1.5-0.2-1.9c-0.1-0.4-0.4-0.6-0.8-0.6
		c-0.2,0-0.4,0.1-0.5,0.2c-0.1,0.1-0.2,0.3-0.3,0.5c-0.1,0.2-0.1,0.5-0.1,0.8c0,0.3,0,0.6,0,1S212.3,346.3,212.3,346.6z
		 M214.9,339.4l-1.3,1.9h-1.2l0.7-1.9H214.9z"/>
	<path class="st7" d="M218.7,342.1v0.8h0c0.2-0.3,0.4-0.6,0.7-0.8c0.3-0.2,0.7-0.2,1-0.2c0.6,0,1,0.2,1.3,0.5
		c0.3,0.3,0.5,0.8,0.5,1.5v5.2h-1.8v-4.8c0-0.4-0.1-0.6-0.2-0.8c-0.1-0.1-0.3-0.2-0.6-0.2c-0.6,0-0.9,0.4-0.9,1.2v4.6H217v-7H218.7z
		"/>
</g>
<g>
	<path class="st7" d="M61.5,274.8c0.8,0,1.4,0.2,1.8,0.6c0.4,0.4,0.6,1,0.6,1.8c0,0.6-0.1,1.1-0.4,1.5c-0.3,0.4-0.6,0.6-1.2,0.8v0
		c0.5,0.1,0.8,0.2,1,0.5c0.2,0.2,0.4,0.6,0.4,1.1c0,0.2,0,0.4,0,0.6c0,0.2,0,0.4,0,0.7c0,0.5,0,0.9,0.1,1.1c0.1,0.3,0.2,0.4,0.3,0.5
		v0.1h-2c-0.1-0.1-0.2-0.3-0.2-0.4c0-0.2,0-0.3-0.1-0.5l-0.1-1.8c0-0.4-0.1-0.7-0.3-0.9s-0.4-0.3-0.8-0.3h-1v3.9h-1.9v-9.3H61.5z
		 M60.7,278.8c0.5,0,0.8-0.1,1-0.3c0.2-0.2,0.4-0.6,0.4-1.1c0-0.9-0.4-1.3-1.3-1.3h-0.9v2.7H60.7z"/>
	<path class="st7" d="M66.8,281.4c0,0.2,0,0.4,0,0.6c0,0.2,0.1,0.4,0.1,0.5c0.1,0.2,0.2,0.3,0.3,0.4c0.1,0.1,0.3,0.1,0.4,0.1
		c0.3,0,0.5-0.1,0.7-0.3c0.1-0.2,0.2-0.5,0.3-1h1.6c0,0.8-0.3,1.4-0.7,1.9c-0.4,0.4-1,0.6-1.9,0.6c-0.6,0-1.2-0.1-1.5-0.3
		c-0.4-0.2-0.6-0.5-0.8-0.9s-0.3-0.8-0.3-1.2S65,281,65,280.5c0-0.5,0-0.9,0.1-1.4s0.2-0.8,0.4-1.2c0.2-0.3,0.5-0.6,0.8-0.8
		c0.4-0.2,0.8-0.3,1.5-0.3c0.5,0,0.9,0.1,1.3,0.3s0.6,0.4,0.8,0.7c0.2,0.3,0.3,0.7,0.4,1.1c0.1,0.4,0.1,0.9,0.1,1.5v0.4h-3.5V281.4z
		 M68.6,279.1c0-0.2-0.1-0.4-0.1-0.5c-0.1-0.1-0.2-0.3-0.3-0.3c-0.1-0.1-0.3-0.1-0.4-0.1c-0.2,0-0.3,0-0.4,0.1
		c-0.1,0.1-0.2,0.2-0.3,0.3c-0.1,0.1-0.1,0.3-0.1,0.4c0,0.2,0,0.3,0,0.5v0.3h1.8C68.6,279.5,68.6,279.3,68.6,279.1z"/>
	<path class="st7" d="M74.6,279.1c0-0.2-0.1-0.3-0.1-0.4c-0.1-0.1-0.1-0.2-0.2-0.3c-0.1-0.1-0.2-0.1-0.4-0.1c-0.2,0-0.4,0-0.5,0.1
		s-0.2,0.2-0.3,0.4c-0.1,0.2-0.1,0.4-0.1,0.7s0,0.7,0,1.1c0,0.4,0,0.8,0,1.1s0.1,0.6,0.1,0.8s0.2,0.3,0.3,0.4s0.3,0.1,0.5,0.1
		c0.3,0,0.5-0.1,0.7-0.4c0.1-0.3,0.2-0.7,0.2-1.2h1.7c0,0.9-0.2,1.6-0.6,2.1c-0.4,0.5-1.1,0.7-2,0.7c-0.5,0-0.8-0.1-1.2-0.2
		s-0.6-0.3-0.8-0.6c-0.2-0.3-0.4-0.7-0.5-1.1c-0.1-0.5-0.2-1.1-0.2-1.8c0-0.7,0.1-1.3,0.2-1.8c0.1-0.5,0.3-0.8,0.6-1.1
		c0.3-0.3,0.6-0.5,0.9-0.6c0.3-0.1,0.7-0.2,1.1-0.2c0.8,0,1.5,0.2,1.9,0.7s0.6,1.1,0.6,2h-1.7C74.6,279.4,74.6,279.3,74.6,279.1z"/>
	<path class="st7" d="M79.1,274.7v1.5h-1.8v-1.5H79.1z M79.1,277.1v7h-1.8v-7H79.1z"/>
	<path class="st7" d="M83.7,279.1c0-0.2-0.1-0.3-0.1-0.4c-0.1-0.1-0.1-0.2-0.2-0.3c-0.1-0.1-0.2-0.1-0.4-0.1c-0.2,0-0.4,0-0.5,0.1
		s-0.2,0.2-0.3,0.4c-0.1,0.2-0.1,0.4-0.1,0.7s0,0.7,0,1.1c0,0.4,0,0.8,0,1.1s0.1,0.6,0.1,0.8s0.2,0.3,0.3,0.4s0.3,0.1,0.5,0.1
		c0.3,0,0.5-0.1,0.7-0.4c0.1-0.3,0.2-0.7,0.2-1.2h1.7c0,0.9-0.2,1.6-0.6,2.1c-0.4,0.5-1.1,0.7-2,0.7c-0.5,0-0.8-0.1-1.2-0.2
		s-0.6-0.3-0.8-0.6c-0.2-0.3-0.4-0.7-0.5-1.1c-0.1-0.5-0.2-1.1-0.2-1.8c0-0.7,0.1-1.3,0.2-1.8c0.1-0.5,0.3-0.8,0.6-1.1
		c0.3-0.3,0.6-0.5,0.9-0.6c0.3-0.1,0.7-0.2,1.1-0.2c0.8,0,1.5,0.2,1.9,0.7s0.6,1.1,0.6,2h-1.7C83.8,279.4,83.8,279.3,83.7,279.1z"/>
	<path class="st7" d="M88,274.8v9.3h-1.8v-9.3H88z"/>
	<path class="st7" d="M89.3,279.1c0-0.4,0.1-0.7,0.2-1c0.1-0.3,0.3-0.5,0.5-0.7c0.2-0.2,0.5-0.3,0.8-0.4c0.3-0.1,0.6-0.1,1-0.1
		c0.5,0,1,0.1,1.3,0.2c0.3,0.1,0.6,0.3,0.8,0.4s0.3,0.4,0.4,0.7s0.1,0.6,0.1,0.9v3.7c0,0.3,0,0.6,0,0.8c0,0.2,0.1,0.4,0.2,0.6h-1.7
		c-0.1-0.1-0.1-0.2-0.1-0.4c0-0.1-0.1-0.2-0.1-0.4h0c-0.2,0.4-0.4,0.6-0.7,0.7c-0.3,0.1-0.6,0.2-1.1,0.2c-0.3,0-0.6-0.1-0.8-0.2
		c-0.2-0.1-0.4-0.3-0.5-0.4c-0.1-0.2-0.2-0.4-0.3-0.6c-0.1-0.2-0.1-0.5-0.1-0.7c0-0.3,0-0.6,0.1-0.9s0.2-0.4,0.3-0.6
		c0.1-0.2,0.3-0.3,0.5-0.4s0.5-0.2,0.8-0.3l1-0.3c0.3-0.1,0.5-0.2,0.6-0.3c0.1-0.1,0.2-0.3,0.2-0.5c0-0.3-0.1-0.5-0.2-0.6
		s-0.3-0.2-0.6-0.2c-0.3,0-0.5,0.1-0.6,0.2c-0.1,0.2-0.2,0.4-0.2,0.7v0.2h-1.6V279.1z M92.1,280.8c-0.1,0.1-0.3,0.1-0.4,0.1
		c-0.4,0.1-0.6,0.2-0.8,0.4c-0.2,0.2-0.2,0.4-0.2,0.7c0,0.3,0.1,0.5,0.2,0.7s0.3,0.3,0.5,0.3c0.1,0,0.2,0,0.4-0.1
		c0.1,0,0.2-0.1,0.4-0.2c0.1-0.1,0.2-0.2,0.3-0.3s0.1-0.3,0.1-0.5v-1.4C92.4,280.7,92.3,280.7,92.1,280.8z"/>
	<path class="st7" d="M97.4,277.1v7.4c0,0.3,0,0.6-0.1,0.8s-0.2,0.4-0.3,0.6c-0.2,0.2-0.4,0.3-0.6,0.3c-0.3,0.1-0.6,0.1-1,0.1
		c-0.1,0-0.2,0-0.3,0c-0.1,0-0.2,0-0.4,0V285c0.1,0,0.1,0,0.1,0h0.1c0.3,0,0.5-0.1,0.6-0.3c0.1-0.2,0.1-0.4,0.1-0.8v-6.9H97.4z
		 M97.4,274.7v1.5h-1.8v-1.5H97.4z"/>
	<path class="st7" d="M100.2,281.4c0,0.2,0,0.4,0,0.6c0,0.2,0.1,0.4,0.1,0.5c0.1,0.2,0.2,0.3,0.3,0.4c0.1,0.1,0.3,0.1,0.4,0.1
		c0.3,0,0.5-0.1,0.7-0.3c0.1-0.2,0.2-0.5,0.3-1h1.6c0,0.8-0.3,1.4-0.7,1.9c-0.4,0.4-1,0.6-1.9,0.6c-0.6,0-1.2-0.1-1.5-0.3
		c-0.4-0.2-0.6-0.5-0.8-0.9s-0.3-0.8-0.3-1.2s-0.1-0.9-0.1-1.3c0-0.5,0-0.9,0.1-1.4s0.2-0.8,0.4-1.2c0.2-0.3,0.5-0.6,0.8-0.8
		c0.4-0.2,0.8-0.3,1.5-0.3c0.5,0,0.9,0.1,1.3,0.3s0.6,0.4,0.8,0.7c0.2,0.3,0.3,0.7,0.4,1.1c0.1,0.4,0.1,0.9,0.1,1.5v0.4h-3.5V281.4z
		 M102,279.1c0-0.2-0.1-0.4-0.1-0.5c-0.1-0.1-0.2-0.3-0.3-0.3c-0.1-0.1-0.3-0.1-0.4-0.1c-0.2,0-0.3,0-0.4,0.1
		c-0.1,0.1-0.2,0.2-0.3,0.3c-0.1,0.1-0.1,0.3-0.1,0.4c0,0.2,0,0.3,0,0.5v0.3h1.8C102,279.5,102,279.3,102,279.1z"/>
</g>
<g>
	<path class="st7" d="M79.2,241.3c0,0.9,0,1.9,0,2.8c0,0.6,0,1.2,0,1.9c0,0.2,0.1,0.4,0.3,0.3c2.9,0,5.9,0,8.8,0
		c0.8,0,1.6-0.2,2.4-0.3c1-0.2,1.8-0.7,2.5-1.5c0,0,0.1-0.1,0.1-0.1c0,0,0,0,0.1,0c-0.4,0.6-0.7,1.2-1.1,1.9
		c-0.9,1.6-1.9,3.2-2.8,4.8c-1.1,1.9-2.8,2.7-4.8,2.7c-1.7,0.1-3.4,0.1-5.2,0.1c-0.3,0-0.4,0.1-0.4,0.4c0,1.4,0,2.8,0,4.2
		c0,0.1,0,0.3,0,0.4c0,0-0.1,0-0.1,0c-0.1-0.2-0.3-0.4-0.4-0.6c-1.7-2.6-3.4-5.2-5.1-7.8c-0.2-0.3-0.2-0.5,0-0.8
		c1.8-2.7,3.5-5.4,5.3-8.1C78.9,241.5,79,241.4,79.2,241.3C79.1,241.3,79.2,241.3,79.2,241.3z"/>
	<path class="st7" d="M57.3,234.5c-1.5-0.8-2.9-1.7-4.3-2.5c0,0,0-0.1,0-0.1c0.3,0,0.7-0.1,1-0.1c3-0.2,6.1-0.3,9.1-0.5
		c0.2,0,0.4,0,0.5,0.3c1.5,3,3,5.9,4.5,8.9c0,0.1,0.1,0.2,0.1,0.3c-0.1-0.1-0.2-0.1-0.3-0.1c-1.2-0.7-2.5-1.4-3.7-2.1
		c-0.2-0.1-0.3-0.2-0.5,0.1c-1.5,2.7-3.1,5.3-4.6,8c-0.6,1-1,2.2-1,3.4c0,0.5,0.1,1,0.2,1.6c-0.1-0.1-0.2-0.2-0.2-0.3
		c-1.2-2-2.3-4-3.5-6c-1.1-1.9-1.1-3.8-0.1-5.7c0.8-1.6,1.7-3.1,2.6-4.7C57.2,234.8,57.2,234.7,57.3,234.5z"/>
	<path class="st7" d="M89.4,222.8c-0.6,1.1-1.2,2.3-1.7,3.4c-0.9,1.8-1.9,3.7-2.8,5.5c-0.1,0.3-0.3,0.4-0.6,0.4c-3-0.2-6-0.4-9-0.5
		c-0.4,0-0.7,0-1.1,0c0-0.1,0-0.1,0-0.2c1.4-0.8,2.9-1.7,4.3-2.5c-0.7-1.1-1.3-2.2-1.9-3.3c-1.1-1.8-2.2-3.7-3.3-5.5
		c-0.7-1.1-1.7-2-3-2.3c-0.2,0-0.3-0.1-0.5-0.2c0.1,0,0.2,0,0.3,0c2.4,0,4.9,0,7.3,0c1.9,0,3.4,0.8,4.5,2.4c1,1.5,1.9,3.1,2.9,4.7
		c0.3,0.5,0.3,0.5,0.8,0.2c1.2-0.7,2.3-1.3,3.5-2C89.1,222.9,89.2,222.8,89.4,222.8C89.3,222.8,89.4,222.8,89.4,222.8z"/>
	<path class="st7" d="M70,246.3c0,2.5,0,5,0,7.5c-0.1,0-0.3,0-0.4,0c-2.1,0-4.2,0-6.3,0c-0.5,0-1-0.1-1.5-0.2
		c-1.2-0.3-1.9-1.3-1.9-2.5c-0.1-1.3,0.4-2.4,0.9-3.5c0.2-0.4,0.4-0.9,0.7-1.2c0.3-0.2,0.8-0.1,1.3-0.1c2.3,0,4.6,0,6.9,0
		C69.7,246.3,69.8,246.3,70,246.3z"/>
	<path class="st7" d="M83.1,237c2.2-1.2,4.3-2.5,6.5-3.8c1.2,2.1,2.4,4.2,3.6,6.3c0.2,0.3,0.3,0.6,0.3,0.9c0.2,1.1-0.1,2-0.9,2.7
		c-0.9,0.7-1.9,1-2.9,1.1c-0.7,0.1-1.3,0.1-2,0.1c-0.1,0-0.3-0.1-0.4-0.2c-1.4-2.4-2.8-4.8-4.2-7.2C83.1,237,83.1,237,83.1,237z"/>
	<path class="st7" d="M68.4,230.3c-2.2-1.3-4.3-2.5-6.5-3.7c0-0.1,0.1-0.1,0.1-0.2c1.1-1.9,2.2-3.8,3.3-5.7c0.1-0.2,0.3-0.5,0.5-0.7
		c1-1.3,2.4-1.5,3.8-0.7c1.1,0.7,1.8,1.7,2.6,2.7c0.5,0.6,0.5,1.1,0.1,1.8c-1.3,2-2.4,4.1-3.6,6.2C68.6,230.1,68.5,230.2,68.4,230.3
		z"/>
</g>
<g>
	<path class="st7" d="M318.4,126.2c-2.7,2.1-5.3,4.3-8,6.4c2.7,2.1,5.3,4.3,8,6.4c-3.9,2.5-7.7,5-11.6,7.6c-2.7-2.2-5.4-4.5-8.1-6.8
		c3.9-2.4,7.8-4.8,11.7-7.2c-1.3-0.8-2.5-1.6-3.8-2.3c-2.5-1.6-5.1-3.1-7.6-4.7c-0.2-0.1-0.3-0.2-0.5-0.1c-3.8,2.3-7.6,4.7-11.3,7
		c0,0-0.1,0.1-0.1,0.1c3.9,2.4,7.8,4.8,11.7,7.2c-2.7,2.3-5.4,4.5-8.1,6.8c-3.9-2.5-7.7-5-11.6-7.6c2.7-2.1,5.3-4.3,8-6.4
		c-2.7-2.1-5.3-4.3-8-6.4c3.9-2.5,7.7-5,11.6-7.6c2.7,2.2,5.4,4.5,8.1,6.7c0.1-0.1,0.2-0.2,0.3-0.3c2.5-2.1,5-4.2,7.5-6.3
		c0.2-0.1,0.3-0.2,0.5-0.1c3.7,2.4,7.4,4.8,11.1,7.3C318.2,126.1,318.3,126.1,318.4,126.2z"/>
	<path class="st7" d="M286.6,145.7c1.4,0.8,2.7,1.6,4,2.4c2.7-2.3,5.4-4.5,8.1-6.7c2.6,2.1,5.2,4.3,7.8,6.4c0.3,0.2,0.5,0.2,0.8,0
		c1.1-0.7,2.1-1.3,3.3-2c0,0.1,0,0.2,0,0.3c0,1.1,0,2.3,0,3.4c0,0.1-0.1,0.4-0.2,0.4c-3.8,2.3-7.6,4.5-11.4,6.8
		c-0.1,0.1-0.3,0.1-0.4,0c-3.9-2.3-7.8-4.7-11.7-7c-0.1-0.1-0.2-0.2-0.2-0.3C286.6,148.3,286.6,147.1,286.6,145.7z"/>
</g>
<g>
	<path class="st7" d="M66.8,118.8c0-2,0-3.9,0-5.9c0-0.7,0.7-1.4,1.5-1.4c0.1,0,0.3,0,0.4,0c9.2,0,18.4,0,27.6,0
		c2.4,0,4.6,0.7,6.4,2.4c4.3,4.2,3.4,11.3-1.8,14.2c-1.4,0.8-2.8,1.1-4.4,1.1c-4.4,0-8.9,0-13.3,0c-4.9,0-9.7,0-14.6,0
		c-1.2,0-1.8-0.6-1.8-1.8c0-1.7,0-3.3,0-5c0-0.1,0-0.3,0-0.5c0.2,0,0.3,0,0.5,0c8.1,0,16.2,0,24.3,0c0.3,0,0.5,0.1,0.6,0.4
		c0.9,2,3.1,3.2,5.1,2.8c2.5-0.5,4.1-2.3,4.1-4.7c0.1-2.1-1.4-4.1-3.4-4.7c-2-0.6-4.3,0.1-5.5,1.9c-0.1,0.1-0.2,0.3-0.3,0.4
		c-0.2,0.7-0.6,0.7-1.2,0.7c-7.9,0-15.8,0-23.7,0C67.3,118.8,67.1,118.8,66.8,118.8z"/>
	<path class="st7" d="M79.7,107.5c-1,0-2,0-3,0c-0.4,0-0.9-0.2-1.3-0.4c-1-0.7-2-1.5-3-2.2c-0.5-0.4-0.8-0.9-0.8-1.6
		c0-0.7,0-1.4,0-2.2c0-1,0.7-1.7,1.7-1.7c0,0,0.1,0,0.1,0c1,0.2,1.7-0.2,2.1-1.1c0.3-0.6,0.6-1.1,1.3-1.2c0.6-0.1,1.2,0,1.6,0.5
		c0.3,0.4,0.6,0.9,0.9,1.4c0.1,0.2,0.3,0.3,0.5,0.2c0.9-0.2,1.8-0.4,2.6-0.5c0.7-0.1,1.2,0.1,1.6,0.7c0.4,0.6,0.4,1.1,0,1.7
		c-0.3,0.5-0.6,0.9-0.9,1.4c-0.2,0.3-0.2,0.5,0,0.7c0.3,0.6,0.6,1.2,0.9,1.8c0.7,1.4-0.1,2.5-1.6,2.6
		C81.7,107.5,80.7,107.5,79.7,107.5z"/>
	<path class="st7" d="M114.8,121.2c-0.7,0-1.3,0-2,0c-0.6,0-1-0.3-1.3-0.8c-1.1-1.9-2.2-3.8-3.3-5.7c-0.4-0.7-0.3-1.4,0.3-1.9
		c1-1,2.1-2.1,3.1-3.1c1-1,2.3-0.7,2.8,0.6c0.4,0.9,0.7,1.8,1.1,2.8c0.1,0.3,0.3,0.4,0.5,0.4c0.9,0.2,1.8,0.4,2.8,0.5
		c0.8,0.2,1.3,0.8,1.3,1.6c0,0,0,0,0,0c0,2.4,0.2,1.7-1.1,3.7c-0.3,0.4-0.5,0.8-0.8,1.2c-0.3,0.5-0.8,0.7-1.3,0.7
		C116.1,121.2,115.5,121.2,114.8,121.2z"/>
	<path class="st7" d="M98.3,107.5c-0.8,0-1.5,0-2.3,0c-0.7,0-1.2-0.3-1.6-0.8c-1-1.5-2-3.1-3.1-4.6c-0.4-0.6-0.5-1.1-0.2-1.8
		c0.3-0.6,0.9-0.9,1.6-0.9c1,0,1.9,0,2.9,0c0.3,0,0.6-0.1,0.8-0.2c0.5-0.3,1-0.7,1.5-1c1-0.7,2-0.4,2.5,0.7c0.3,0.6,0.6,1.2,0.9,1.8
		c0.1,0.2,0.3,0.4,0.5,0.3c0.3,0,0.7,0,1,0c1.3,0,2.1,1.4,1.4,2.5c-0.8,1.2-1.7,2.3-2.6,3.4c-0.3,0.4-0.7,0.6-1.2,0.6
		C99.9,107.5,99.1,107.5,98.3,107.5z"/>
	<path class="st7" d="M96.6,122c-0.9,0-1.6-0.7-1.6-1.6c0-0.9,0.7-1.6,1.6-1.6c0.9,0,1.6,0.7,1.6,1.6C98.3,121.3,97.6,122,96.6,122z
		"/>
</g>
<path class="st7" d="M185,78.4c0.3-0.9,0.6-1.6,0.8-2.4c0.5-1.6,1.1-3.3,1.6-4.9c0.4-1.3,1.1-2.3,2-3.2c1.3-1.4,2.6-2.7,4-4.1
	c0.1-0.1,0.3-0.3,0.5-0.4c-3.4-3.4-6.7-6.7-10.1-10.1c2.6-2.6,5.2-5.2,7.8-7.8c3.3,3.3,6.7,6.7,10,10c0.6-0.6,1.2-1.2,1.7-1.8
	c1.8-1.8,3.6-3.6,5.4-5.4c1.2-1.2,2.8-1.4,4.4-0.8c1.6,0.6,2.6,1.8,2.8,3.4c0.2,1.5-0.3,2.8-1.4,3.9c-2.2,2.2-4.3,4.3-6.5,6.5
	c-0.1,0.1-0.2,0.2-0.3,0.2c3.4,3.4,6.7,6.8,10.1,10.1c-2.6,2.6-5.2,5.2-7.8,7.8c-3.3-3.3-6.7-6.7-10-10c-0.1,0.1-0.2,0.1-0.2,0.2
	c-1,1-2,2-3,3c-0.9,0.8-1.8,1.6-2.7,2.4c-0.4,0.3-0.9,0.6-1.4,0.7c-2.5,0.9-5,1.7-7.5,2.5C185.2,78.4,185.1,78.4,185,78.4z
	 M191.8,52.2c0.3,0.3,0.6,0.5,0.9,0.8c-1,1-2,2-3,3c0.8,0.7,1.5,1.5,2.3,2.3c0.5-0.5,1-1,1.5-1.5c0.3,0.3,0.5,0.5,0.8,0.8
	c-0.5,0.5-1,1-1.5,1.4c0.8,0.8,1.5,1.5,2.3,2.3c0.5-0.5,1-1,1.4-1.4c0.3,0.2,0.6,0.5,0.9,0.8c-0.5,0.5-1,1-1.5,1.5
	c0.8,0.8,1.5,1.5,2.3,2.3c1-1,2-2,3-3c0.3,0.2,0.5,0.5,0.8,0.8c-1,1-2,2-3,3c0.8,0.8,1.5,1.5,2.3,2.3c0.5-0.5,1-1,1.4-1.5
	c0.3,0.3,0.5,0.5,0.8,0.8c-0.5,0.5-1,1-1.5,1.5c0.8,0.8,1.5,1.5,2.3,2.3c0.5-0.5,1-1,1.5-1.5c0.3,0.3,0.5,0.5,0.8,0.8
	c-0.5,0.5-1,1-1.5,1.4c0.8,0.8,1.6,1.6,2.4,2.4c1-1,2-2,3-3.1c0.3,0.3,0.5,0.5,0.8,0.8c-1,1-2,2-3,3c0.7,0.7,1.3,1.3,1.9,1.9
	c1.5-1.5,3.1-3.1,4.6-4.6c-7.7-7.7-15.5-15.5-23.2-23.2c-1.5,1.5-3.1,3-4.6,4.5c0.6,0.6,1.3,1.3,1.9,1.9
	C189.9,54.2,190.9,53.2,191.8,52.2z M207,53.3c-1.3,1.3-2.5,2.5-3.8,3.8c1,1,2,2,3,3c1.3-1.3,2.5-2.5,3.8-3.8
	C209.1,55.4,208,54.3,207,53.3z M194.6,71.8c1.3-1.3,2.6-2.6,3.8-3.8c-1-1-2-2-3-3c-1.3,1.3-2.5,2.5-3.8,3.8
	C192.6,69.8,193.6,70.8,194.6,71.8z M211.7,54.8c0.5-0.5,1-1,1.5-1.5c0.8-0.9,0.8-2.2,0.1-3c-0.8-0.9-2.1-1-3-0.2
	c-0.6,0.5-1.1,1.1-1.7,1.7C209.6,52.7,210.7,53.8,211.7,54.8z M188.4,75c1.6-0.5,3.1-1,4.6-1.5c-1-1-2-2-3-3
	C189.4,71.9,188.9,73.4,188.4,75z"/>
<path class="st7" d="M192.2,332.2c0-1.6,0-3.1,0-4.7c3.4-0.1,6.3-1.5,8.4-4.2c1.4-1.7,2.1-3.7,2.2-6c0.2-4.8-2.6-8.9-7.1-10.5
	c-4.2-1.5-8.7,0-11.3,3c1.3,0.8,2.6,1.5,4,2.3c-4.2,2.4-8.4,4.8-12.6,7.2c0-4.8,0-9.7,0-14.5c1.5,0.8,2.9,1.7,4.4,2.5
	c3.2-3.8,7.2-5.8,12.1-5.8c3.5,0,6.6,1.1,9.3,3.2c5.4,4.2,7.4,11.6,4.7,17.9C203.5,329.4,197.3,332.4,192.2,332.2z"/>
<g>
	<g>
		<path class="st7" d="M297.9,246.7c-1.1,0.9-2.1,1.7-3.2,2.5c1.1,0.9,2.1,1.7,3.2,2.6c-1.5,1-3.1,2-4.6,3c-1.1-0.9-2.1-1.8-3.2-2.7
			c1.6-1,3.1-1.9,4.7-2.9c-0.5-0.3-1-0.6-1.5-0.9c-1-0.6-2-1.2-3-1.9c-0.1,0-0.1-0.1-0.2,0c-1.5,0.9-3,1.9-4.5,2.8c0,0,0,0-0.1,0
			c1.5,1,3.1,1.9,4.7,2.9c-1.1,0.9-2.2,1.8-3.2,2.7c-1.5-1-3.1-2-4.6-3c1.1-0.9,2.1-1.7,3.2-2.6c-1.1-0.9-2.1-1.7-3.2-2.5
			c1.5-1,3.1-2,4.6-3c1.1,0.9,2.1,1.8,3.2,2.7c0,0,0.1-0.1,0.1-0.1c1-0.8,2-1.7,3-2.5c0.1-0.1,0.1-0.1,0.2,0
			C294.9,244.7,296.3,245.6,297.9,246.7C297.9,246.6,297.9,246.6,297.9,246.7z"/>
		<path class="st7" d="M285.2,254.5c0.6,0.3,1.1,0.6,1.6,1c1.1-0.9,2.2-1.8,3.2-2.7c1,0.9,2.1,1.7,3.1,2.6c0.1,0.1,0.2,0.1,0.3,0
			c0.4-0.3,0.9-0.5,1.3-0.8c0,0.1,0,0.1,0,0.1c0,0.5,0,0.9,0,1.4c0,0.1,0,0.1-0.1,0.2c-1.5,0.9-3,1.8-4.5,2.7c0,0-0.1,0-0.2,0
			c-1.6-0.9-3.1-1.9-4.7-2.8c0,0-0.1-0.1-0.1-0.1C285.2,255.5,285.2,255,285.2,254.5z"/>
	</g>
	<path class="st7" d="M307.7,246.9c2.2,0,4.4,0,6.6,0c2.1,0,1.6-0.3,2.7,1.5c1.5,2.5,3,4.9,4.4,7.4c0.2,0.3,0.3,0.6,0.3,1
		c0,3,0,6,0,9.1c0,0.9-0.3,1.2-1.1,1.2c-0.4,0-0.8,0-1.2,0c-0.3,0-0.4,0.1-0.5,0.4c-0.8,2.4-3,3.8-5.5,3.5c-2.1-0.2-3.6-1.4-4.4-3.4
		c-0.2-0.4-0.4-0.5-0.8-0.5c-7.3,0-14.6,0-21.9,0c-0.2,0-0.4,0-0.6,0c-0.9,2.5-2.6,3.9-5.2,3.9c-2.6,0-4.2-1.5-5-3.9
		c-1.1,0-2.1,0-3.2,0c-1,0-1.3-0.3-1.3-1.3c0-9.1,0-18.1,0-27.2c0-1,0.3-1.3,1.3-1.3c11.2,0,22.4,0,33.6,0c0.3,0,0.5,0,0.8,0
		c0.7,0,1,0.3,1,1c0,2.7,0,5.3,0,8C307.7,246.5,307.7,246.7,307.7,246.9z M305.9,265.3c0-8.8,0-17.5,0-26.2c-11.1,0-22.1,0-33.2,0
		c0,8.7,0,17.4,0,26.1c0.9,0,1.7,0,2.6,0c0-0.2,0.1-0.3,0.1-0.5c0.4-2.4,2.7-4.3,5.2-4.2c2.5,0,4.7,1.9,5.1,4.3
		c0.1,0.4,0.2,0.5,0.6,0.5c6.3,0,12.7,0,19,0C305.6,265.3,305.7,265.3,305.9,265.3z M319.9,265.2c0-0.1,0-0.3,0-0.4
		c0-2.6,0-5.2,0-7.7c0-0.2-0.1-0.5-0.2-0.7c-1.5-2.5-3-4.9-4.4-7.4c-0.2-0.3-0.4-0.4-0.7-0.4c-2.1,0-4.3,0-6.4,0c-0.2,0-0.3,0-0.5,0
		c0,5.5,0,11,0,16.5c0.3,0,0.6,0,0.8,0c0.5-2.7,2.3-4.5,4.8-4.7c1.2-0.1,2.3,0.2,3.4,0.9c1.4,0.9,2.1,2.2,2.3,3.9
		C319.3,265.2,319.6,265.2,319.9,265.2z M310.3,265.7c0,2,1.5,3.6,3.5,3.6c1.9,0,3.5-1.6,3.5-3.5c0-1.9-1.6-3.5-3.5-3.5
		C311.9,262.2,310.3,263.8,310.3,265.7z M284.1,265.8c0.1-1.9-1.4-3.5-3.4-3.6c-1.9-0.1-3.5,1.4-3.6,3.3c-0.1,2,1.4,3.6,3.3,3.7
		C282.4,269.3,284,267.8,284.1,265.8z"/>
</g>
</svg>
