<?xml version="1.0" encoding="utf-8"?>
<!-- Generator: Adobe Illustrator 23.0.4, SVG Export Plug-In . SVG Version: 6.00 Build 0)  -->
<svg version="1.1" id="Capa_1" xmlns="http://www.w3.org/2000/svg" xmlns:xlink="http://www.w3.org/1999/xlink" x="0px" y="0px"
	 viewBox="0 0 480.1 480.1" style="enable-background:new 0 0 480.1 480.1;" xml:space="preserve">
<style type="text/css">
	.st0{fill:#24D37B;}
</style>
<g>
	<path class="st0" d="M424.4,360.3H42.6v-38.5h381.8V360.3z M48.6,354.3h369.8v-26.5H48.6V354.3z"/>
	<path class="st0" d="M437.5,309.8H55.7v-38.5h381.8V309.8z M61.7,303.8h369.8v-26.5H61.7V303.8z"/>
	<path class="st0" d="M424.4,259.3H42.6v-38.5h381.8V259.3z M48.6,253.3h369.8v-26.5H48.6V253.3z"/>
	<path class="st0" d="M424.4,158.2H42.6v-38.5h381.8V158.2z M48.6,152.2h369.8v-26.5H48.6V152.2z"/>
	<path class="st0" d="M437.5,208.8H55.7v-38.5h381.8V208.8z M61.7,202.8h369.8v-26.5H61.7V202.8z"/>
	<polygon class="st0" points="324,358 298.9,332.9 275,356.8 250.8,332.6 226.6,356.8 203.1,333.2 180.1,356.3 157.2,333.4 
		133.8,356.8 112.6,335.5 91.8,356.3 70.6,335.2 52.5,353.4 48.2,349.1 70.6,326.7 91.8,347.9 112.6,327 133.8,348.3 157.2,324.9 
		180.1,347.8 203.1,324.8 226.6,348.3 250.8,324.1 275,348.3 298.9,324.4 324,349.5 348.5,325 372.7,349.2 397.9,324 420.4,346.4 
		416.1,350.7 397.9,332.5 372.7,357.7 348.5,333.5 	"/>
	<polygon class="st0" points="324,257 298.9,231.9 275,255.9 250.8,231.7 226.6,255.8 203.1,232.3 180.1,255.3 157.2,232.5 
		133.8,255.8 112.6,234.6 91.8,255.4 70.6,234.3 52.5,252.4 48.2,248.2 70.6,225.8 91.8,246.9 112.6,226.1 133.8,247.4 157.2,224 
		180.1,246.9 203.1,223.8 226.6,247.4 250.8,223.2 275,247.4 298.9,223.5 324,248.5 348.5,224.1 372.7,248.3 397.9,223.1 
		420.4,245.5 416.1,249.7 397.9,231.6 372.7,256.8 348.5,232.5 	"/>
	<polygon class="st0" points="324,156.1 298.9,131 275,155 250.8,130.8 226.6,154.9 203.1,131.4 180.1,154.4 157.2,131.5 
		133.8,154.9 112.6,133.7 91.8,154.5 70.6,133.4 52.5,151.5 48.2,147.3 70.6,124.9 91.8,146 112.6,125.2 133.8,146.4 157.2,123.1 
		180.1,145.9 203.1,122.9 226.6,146.4 250.8,122.3 275,146.5 298.9,122.5 324,147.6 348.5,123.1 372.7,147.3 397.9,122.1 
		420.4,144.6 416.1,148.8 397.9,130.6 372.7,155.8 348.5,131.6 	"/>
	<polygon class="st0" points="336.4,206.5 311.3,181.4 287.3,205.4 263.1,181.2 238.9,205.3 215.4,181.8 192.4,204.8 169.5,181.9 
		146.2,205.3 124.9,184.1 104.1,204.9 83,183.8 64.8,201.9 60.6,197.7 83,175.3 104.1,196.4 124.9,175.6 146.2,196.8 169.5,173.5 
		192.4,196.3 215.4,173.3 238.9,196.8 263.1,172.7 287.3,196.9 311.3,172.9 336.4,198 360.9,173.5 385.1,197.7 410.3,172.5 
		432.7,195 428.5,199.2 410.3,181 385.1,206.2 360.9,182 	"/>
	<polygon class="st0" points="336.4,307.5 311.3,282.4 287.3,306.4 263.1,282.2 238.9,306.3 215.4,282.8 192.4,305.8 169.5,282.9 
		146.2,306.3 124.9,285 104.1,305.9 83,284.8 64.8,302.9 60.6,298.7 83,276.3 104.1,297.4 124.9,276.6 146.2,297.8 169.5,274.4 
		192.4,297.3 215.4,274.3 238.9,297.8 263.1,273.7 287.3,297.9 311.3,273.9 336.4,299 360.9,274.5 385.1,298.7 410.3,273.5 
		432.7,296 428.5,300.2 410.3,282 385.1,307.2 360.9,283 	"/>
</g>
</svg>
