<?xml version="1.0" encoding="utf-8"?>
<!-- Generator: Adobe Illustrator 23.0.4, SVG Export Plug-In . SVG Version: 6.00 Build 0)  -->
<svg version="1.1" id="Capa_1" xmlns="http://www.w3.org/2000/svg" xmlns:xlink="http://www.w3.org/1999/xlink" x="0px" y="0px"
	 viewBox="0 0 64 64" style="enable-background:new 0 0 64 64;" xml:space="preserve">
<style type="text/css">
	.st0{fill:#24D37B;}
</style>
<path class="st0" d="M6.4,19.3c-1.7-1.7-3.3-3.3-5-5c-1-1-0.9-1.9,0.4-2.5C9.4,8.2,17,4.6,24.6,1.1c0.9-0.4,1.3-0.4,2,0.3
	c1.7,1.7,3.3,3.3,5,5c0.2-0.2,0.4-0.3,0.5-0.5c1.5-1.5,3.1-3.1,4.6-4.6c0.7-0.7,1.1-0.7,1.9-0.3c7.7,3.6,15.3,7.2,23,10.9
	c1.1,0.5,1.2,1.4,0.4,2.3c-1.5,1.5-3.1,3.1-4.6,4.6c-0.2,0.2-0.4,0.3-0.5,0.4c0,0.1-0.1,0.2-0.1,0.3c0.2,0.1,0.5,0.2,0.6,0.3
	c1.5,1.5,3,3,4.5,4.5c1,1,0.8,1.8-0.4,2.4c-1.6,0.7-3.1,1.5-4.7,2.2c-0.4,0.2-0.5,0.4-0.5,0.8c0,6.3,0,12.6,0,18.8
	c0,0.8-0.3,1.3-1,1.7c-7.6,4-15.2,8-22.7,12c-0.6,0.3-1.2,0.4-1.9,0c-7.6-4-15.2-8-22.8-12c-0.7-0.4-1-0.8-1-1.6
	c0-6.3,0-12.6,0-18.8c0-0.4-0.1-0.7-0.5-0.8c-1.6-0.7-3.2-1.5-4.7-2.2c-1.1-0.5-1.3-1.4-0.4-2.3c1.5-1.5,3.1-3.1,4.6-4.6
	C6,19.6,6.2,19.5,6.4,19.3z M30.3,59.2c0-8.6,0-17.1,0-25.7c-1.3,1.3-2.6,2.6-3.8,3.8c-0.6,0.6-1,0.7-1.8,0.3
	c-4.5-2.1-8.9-4.2-13.4-6.4c-0.6-0.3-1.2-0.6-1.8-0.9c0,0.1,0,0.2,0,0.3c0,5.7,0,11.4,0,17.1c0,0.4,0.2,0.5,0.5,0.7
	c4.6,2.4,9.2,4.8,13.7,7.2C25.8,56.9,28,58,30.3,59.2z M53.8,30.4c-0.3,0.2-0.6,0.3-0.8,0.4c-4.8,2.3-9.6,4.6-14.5,6.8
	c-0.8,0.4-1.2,0.3-1.8-0.3s-1.1-1.1-1.7-1.7c-0.7-0.7-1.4-1.4-2.2-2.3c0,8.7,0,17.2,0,25.8c0.2-0.1,0.4-0.2,0.5-0.3
	c6.7-3.5,13.3-7,20-10.5c0.4-0.2,0.4-0.4,0.4-0.8c0-4.7,0-9.3,0-14C53.8,32.6,53.8,31.5,53.8,30.4z M11.1,19.3
	c0.3,0.2,0.5,0.3,0.6,0.4c6.5,3.1,12.9,6.1,19.4,9.2c0.4,0.2,0.6,0.1,1,0c6.5-3.1,12.9-6.1,19.4-9.2c0.2-0.1,0.3-0.2,0.6-0.3
	c-0.2-0.1-0.3-0.2-0.4-0.2C45.1,16,38.6,12.9,32,9.8c-0.2-0.1-0.6-0.1-0.8,0c-3.6,1.7-7.2,3.4-10.9,5.1
	C17.3,16.4,14.2,17.8,11.1,19.3z M33.8,7.8C34,8,34.2,8.1,34.5,8.2c3.2,1.5,6.3,3,9.5,4.5c3.4,1.6,6.9,3.3,10.3,4.9
	c0.2,0.1,0.5,0.1,0.6,0c1.4-1.3,2.7-2.7,4.1-4.1c-0.2-0.1-0.3-0.2-0.5-0.3c-4.4-2.1-8.7-4.1-13.1-6.2c-2.3-1.1-4.6-2.2-7-3.3
	c-0.2-0.1-0.6-0.2-0.7,0C36.5,5.1,35.2,6.4,33.8,7.8z M29.5,30.8c-0.3-0.1-0.5-0.2-0.6-0.3c-4.3-2-8.6-4.1-12.9-6.1
	c-2.3-1.1-4.7-2.2-7-3.3c-0.2-0.1-0.5-0.1-0.6,0c-1.4,1.3-2.7,2.7-4.1,4.1c0.3,0.1,0.5,0.3,0.7,0.4c2.9,1.4,5.9,2.8,8.8,4.2
	c3.7,1.7,7.3,3.5,11,5.2c0.2,0.1,0.6,0.1,0.7,0C26.7,33.6,28.1,32.2,29.5,30.8z M59.1,25.1c-1.4-1.4-2.7-2.7-4.1-4
	c-0.1-0.1-0.5-0.1-0.7,0c-6.7,3.1-13.4,6.3-20,9.5c-0.2,0.1-0.3,0.2-0.5,0.3c1.3,1.3,2.6,2.6,3.9,3.9c0.3,0.3,0.5,0.3,0.8,0.1
	c6.7-3.2,13.4-6.4,20.1-9.5C58.7,25.3,58.9,25.2,59.1,25.1z M4.1,13.5c0.2,0.2,0.3,0.3,0.4,0.4c1.1,1.1,2.3,2.3,3.4,3.4
	c0.3,0.4,0.6,0.4,1,0.2c6.6-3.2,13.3-6.3,19.9-9.5c0.2-0.1,0.3-0.2,0.5-0.3c-1.3-1.3-2.6-2.6-3.8-3.8c-0.4-0.4-0.6-0.4-1.1-0.2
	c-6.1,2.9-12.1,5.8-18.2,8.6C5.6,12.8,4.9,13.1,4.1,13.5z"/>
</svg>
