<?xml version="1.0" encoding="utf-8"?>
<!-- Generator: Adobe Illustrator 23.0.4, SVG Export Plug-In . SVG Version: 6.00 Build 0)  -->
<svg version="1.1" id="Capa_1" xmlns="http://www.w3.org/2000/svg" xmlns:xlink="http://www.w3.org/1999/xlink" x="0px" y="0px"
	 viewBox="0 0 512 512" style="enable-background:new 0 0 512 512;" xml:space="preserve">
<style type="text/css">
	.st0{fill:#24D37B;}
</style>
<g>
	<g>
		<path class="st0" d="M344.8,287.2c-1.3-4.2-3.2-7.8-5.8-11c-2.6-3.2-5.8-5.7-9.5-7.6s-8-2.8-12.9-2.8c-5.1,0-9.5,1-13.2,3
			s-6.9,4.6-9.4,7.9c-2.5,3.2-4.4,6.9-5.7,11.1c-1.2,4.2-1.9,8.4-1.9,12.7c0,4.4,0.6,8.7,1.9,12.9c1.3,4.2,3.2,7.9,5.8,11.1
			c2.5,3.2,5.7,5.8,9.5,7.8c3.8,1.9,8.1,2.9,13,2.9c5.1,0,9.5-1,13.3-3.1s6.9-4.7,9.4-8s4.3-7,5.6-11.2c1.2-4.2,1.9-8.4,1.9-12.7
			C346.7,295.7,346.1,291.4,344.8,287.2z"/>
	</g>
</g>
<g>
	<g>
		<path class="st0" d="M384.4,181.1c-6.5-27.4-21.4-52.2-42.8-71.1c-25.1-22.1-57.4-34.3-90.9-34.3c-75.8,0-137.4,61.6-137.4,137.4
			c0,1.2,0,2.4,0,3.5c-1.2,0-2.3-0.1-3.5-0.1C49.3,216.6,0,265.9,0,326.4s49.3,109.9,109.9,109.9h274.5
			c70.4,0,127.6-57.3,127.6-127.6C512,238.3,454.8,181.1,384.4,181.1z M246.1,343.4c-3.4,3.4-7.3,6.2-11.8,8.4
			c-4.4,2.3-9.1,4-14.1,5.2s-9.8,1.8-14.6,1.8c-8.3,0-16-1.7-22.9-5.1c-7-3.4-13-7.9-18-13.5s-8.9-12-11.7-19.1s-4.1-14.4-4.1-21.7
			c0-6.9,1.3-13.8,3.9-20.7c2.6-6.9,6.4-13,11.3-18.4c5-5.4,11-9.8,18.2-13.1c7.1-3.3,15.2-5,24.3-5c10.8,0,20.2,2.3,28.1,7
			c7.9,4.6,13.9,10.7,17.7,18.2L232,281.7c-1.3-3-2.9-5.5-4.9-7.5s-4.2-3.6-6.6-4.9c-2.4-1.2-4.8-2.1-7.3-2.6s-4.9-0.7-7.3-0.7
			c-5.1,0-9.5,1-13.3,3.1s-6.9,4.7-9.4,7.9c-2.5,3.2-4.3,6.9-5.5,11s-1.8,8.3-1.8,12.5c0,4.5,0.7,8.9,2.1,13.1
			c1.4,4.2,3.4,7.9,6.1,11.2c2.6,3.2,5.8,5.8,9.6,7.7c3.7,1.9,7.9,2.8,12.6,2.8c2.4,0,4.8-0.3,7.4-0.9c2.5-0.6,5-1.5,7.3-2.8
			c2.3-1.2,4.5-2.9,6.4-4.9s3.5-4.5,4.7-7.4l21.7,12.8C252.1,336.3,249.5,340,246.1,343.4z M369.5,322.5c-2.9,7-6.8,13.2-11.9,18.6
			c-5.1,5.3-11.1,9.6-18.2,12.9c-7,3.2-14.7,4.9-23,4.9c-8.5,0-16.3-1.7-23.3-5s-13-7.8-18-13.2c-5-5.5-8.8-11.7-11.6-18.7
			c-2.8-7-4.1-14.3-4.1-21.7c0-7.6,1.4-14.9,4.3-21.9s6.9-13.2,12-18.6c5.1-5.3,11.2-9.6,18.2-12.8s14.7-4.8,23-4.8
			c8.5,0,16.3,1.7,23.3,5c7,3.4,13,7.8,18,13.3c5,5.5,8.8,11.8,11.5,18.8s4.1,14.2,4.1,21.4C373.8,308.2,372.3,315.5,369.5,322.5z
			 M374,378.9c0-2.4,0.2-4.5,0.5-6.4c0.4-1.9,1-3.6,1.8-5.1c0.9-1.5,2-3,3.5-4.3s3.3-2.6,5.5-3.9c2.4-1.3,4.4-2.4,6-3.3
			s2.9-1.6,3.8-2.3c0.9-0.7,1.6-1.3,2-1.8s0.6-1.2,0.6-1.9c0-1.4-0.5-2.6-1.5-3.4c-1-0.9-2.5-1.3-4.3-1.3c-2.1,0-4,0.5-5.5,1.6
			c-1.6,1-3.1,2.4-4.6,4.1l-7.8-9c0.8-0.9,1.9-1.8,3.3-2.7c1.4-0.9,2.9-1.6,4.6-2.3c1.7-0.7,3.6-1.2,5.7-1.6s4.2-0.6,6.4-0.6
			c5.5,0,9.7,1.2,12.6,3.6s4.4,5.6,4.4,9.7c0,1.7-0.3,3.2-0.8,4.5s-1.2,2.5-2.1,3.5s-1.8,2-2.9,2.7c-1.1,0.8-2.2,1.5-3.3,2.2
			c-0.8,0.5-1.7,1-2.7,1.6c-1.1,0.6-2.1,1.2-3.2,1.9c-1,0.6-2,1.3-2.9,1.9s-1.6,1.2-2,1.7h20.7v10.9L374,378.9L374,378.9z"/>
	</g>
</g>
</svg>
