<?xml version="1.0" encoding="utf-8"?>
<!-- Generator: Adobe Illustrator 23.0.4, SVG Export Plug-In . SVG Version: 6.00 Build 0)  -->
<svg version="1.1" id="Capa_1" xmlns="http://www.w3.org/2000/svg" xmlns:xlink="http://www.w3.org/1999/xlink" x="0px" y="0px"
	 viewBox="0 0 512 512" style="enable-background:new 0 0 512 512;" xml:space="preserve">
<path d="M255,0C114.4,0,0,114.4,0,255s114.4,257,255,257s257-116.4,257-257S395.6,0,255,0z M363.2,427l-27.5,19.1
	c-7.4,5.2-16.4,7.4-25.3,6.1c-29.3-4.6-87.6-29-138.5-162.8c-50.9-133.8-23.6-190.8-4.7-213.7c5.8-6.9,14-11.3,23-12.3l33.3-4
	c7.6-0.9,14.5,4.3,15.8,11.9l7.4,44.3l6.2,37.1c1.2,7.4-3.4,14.5-10.7,16.3l-31.6,7.7c-6.8,1.6-11.5,8-10.9,15
	c1.3,15.5,1.3,33,19.1,79.9c17.8,46.8,29.5,59.9,38.8,72.3c4.2,5.6,11.9,7.3,18.1,4l28.8-15.3c6.6-3.5,14.8-1.3,18.8,5l20.7,32.9
	l23.2,37C371.2,414.1,369.5,422.6,363.2,427z"/>
</svg>
