<?xml version="1.0" encoding="utf-8"?>
<!-- Generator: Adobe Illustrator 23.0.4, SVG Export Plug-In . SVG Version: 6.00 Build 0)  -->
<svg version="1.1" id="Capa_1" xmlns="http://www.w3.org/2000/svg" xmlns:xlink="http://www.w3.org/1999/xlink" x="0px" y="0px"
	 viewBox="0 0 512 512" style="enable-background:new 0 0 512 512;" xml:space="preserve">
<path d="M475.1,0H36.9C16.5,0,0,16.5,0,36.9V475c0,20.5,16.5,37,36.9,37H475c20.4,0,36.9-16.5,36.9-36.9V36.9
	C512,16.5,495.5,0,475.1,0z M305,256h-32v128.1h-48V256h-32v-40h32v-40c0-26.5,21.5-48,48-48h32v40h-16c-8.8,0-16,7.2-16,16v32h48
	L305,256z"/>
</svg>
