<?xml version="1.0" encoding="utf-8"?>
<!-- Generator: Adobe Illustrator 23.0.4, SVG Export Plug-In . SVG Version: 6.00 Build 0)  -->
<svg version="1.1" id="Capa_1" xmlns="http://www.w3.org/2000/svg" xmlns:xlink="http://www.w3.org/1999/xlink" x="0px" y="0px"
	 viewBox="0 0 60 60" style="enable-background:new 0 0 60 60;" xml:space="preserve">
<style type="text/css">
	.st0{fill:#252525;}
	.st1{fill:#1BC986;}
</style>
<g>
	<circle class="st0" cx="30" cy="30" r="29.1"/>
	<g>
		<path class="st1" d="M47.3,14.6c0.2-0.9-0.7-1.6-1.5-1.3L9.4,27.2c-0.4,0.2-0.7,0.6-0.7,1.1c0,0.5,0.3,0.9,0.7,1.1l10.2,3.9v12.4
			c0,0.5,0.4,1,0.9,1.1c0.5,0.1,1-0.1,1.3-0.6l4.2-8.4l10.3,7.6c0.6,0.5,1.5,0.2,1.8-0.6C47.7,13.3,47.3,14.7,47.3,14.6L47.3,14.6z
			 M38.3,18.6L20.6,31.2L13,28.2L38.3,18.6z M21.9,33l15.4-11C24,36.1,24.7,35.3,24.7,35.4c-0.1,0.1,0.1-0.3-2.8,5.5V33z M36.4,42.6
			l-9.1-6.7l16.4-17.3L36.4,42.6z"/>
	</g>
</g>
</svg>
