<?xml version="1.0" encoding="utf-8"?>
<!-- Generator: Adobe Illustrator 23.0.4, SVG Export Plug-In . SVG Version: 6.00 Build 0)  -->
<svg version="1.1" id="Capa_1" xmlns="http://www.w3.org/2000/svg" xmlns:xlink="http://www.w3.org/1999/xlink" x="0px" y="0px"
	 viewBox="0 0 480 480" style="enable-background:new 0 0 480 480;" xml:space="preserve">
<path d="M240,0C107.7,0,0,107.7,0,240c0,58,20.7,111.2,55,152.7c0.1,0.1,0.1,0.3,0.2,0.4c24.8,29.9,55.9,52.8,90.6,67.6
	c0.4,0.2,0.8,0.4,1.2,0.5c2.8,1.2,5.6,2.3,8.5,3.4c1.1,0.4,2.2,0.9,3.4,1.3c2.5,0.9,4.9,1.7,7.4,2.5c1.6,0.5,3.2,1,4.8,1.5
	c2.2,0.7,4.4,1.3,6.6,1.9c2,0.5,3.9,1,5.9,1.5c2,0.5,4,1,6,1.4c2.2,0.5,4.5,0.9,6.8,1.3c1.8,0.3,3.6,0.7,5.5,1
	c2.5,0.4,5.1,0.7,7.6,1.1c1.6,0.2,3.3,0.4,4.9,0.6c2.9,0.3,5.8,0.5,8.7,0.7c1.4,0.1,2.7,0.2,4.1,0.3c4.2,0.2,8.5,0.4,12.9,0.4
	c4.3,0,8.6-0.1,12.9-0.4c1.4-0.1,2.7-0.2,4.1-0.3c2.9-0.2,5.8-0.4,8.7-0.7c1.6-0.2,3.3-0.4,4.9-0.6c2.5-0.3,5.1-0.6,7.6-1.1
	c1.8-0.3,3.7-0.6,5.5-1c2.3-0.4,4.5-0.8,6.8-1.3c2-0.4,4-0.9,6-1.4c2-0.5,3.9-1,5.9-1.5c2.2-0.6,4.4-1.2,6.6-1.9
	c1.6-0.5,3.2-1,4.8-1.5c2.5-0.8,5-1.6,7.4-2.5c1.1-0.4,2.2-0.8,3.4-1.3c2.9-1.1,5.7-2.2,8.5-3.4c0.4-0.2,0.8-0.4,1.2-0.5
	c34.7-14.8,65.8-37.7,90.6-67.6c0.1-0.1,0.1-0.3,0.2-0.4c34.3-41.5,55-94.8,55-152.7C480,107.7,372.3,0,240,0z M421.8,370.6
	c-18.1-53.6-59.5-96.8-112.4-117.4c21.1-19,34.5-46.6,34.5-77.2c0-57.3-46.7-104-104-104s-104,46.7-104,104
	c0,30.6,13.4,58.1,34.6,77.2C117.7,273.8,76.3,317,58.2,370.6C31.7,333.8,16,288.7,16,240C16,116.5,116.5,16,240,16
	s224,100.5,224,224C464,288.7,448.3,333.8,421.8,370.6z"/>
</svg>
